<svg xmlns="http://www.w3.org/2000/svg" width="800" height="800" viewBox="-3 0 48 48"><path fill="#95CF00" fill-rule="evenodd" d="M26.727 9.6c-.792 0-1.432-.623-1.432-1.393s.64-1.392 1.432-1.392 1.432.621 1.432 1.392S27.52 9.6 26.727 9.6m-11.454 0c-.792 0-1.432-.623-1.432-1.393s.64-1.392 1.432-1.392 1.432.621 1.432 1.392-.64 1.394-1.432 1.394m12.3-5.581.534-.785.534-.773L29.83.722a.454.454 0 0 0-.134-.643.48.48 0 0 0-.658.13l-1.815 2.644-.545.796A16.1 16.1 0 0 0 21 2.633a16.1 16.1 0 0 0-5.678 1.016l-.542-.796-.536-.782L12.968.21a.49.49 0 0 0-.664-.13.46.46 0 0 0-.134.643l1.19 1.739.533.773.536.785c-4.05 1.837-6.791 5.317-6.791 9.299h26.724c0-3.982-2.74-7.462-6.788-9.3M7.844 15.175h-.205v20.438c0 1.623 1.354 2.944 3.024 2.944h2.181a2.6 2.6 0 0 0-.116.773v5.884c0 1.539 1.285 2.786 2.865 2.786s2.865-1.247 2.865-2.786V39.33c0-.27-.044-.528-.116-.773h5.318a2.7 2.7 0 0 0-.113.773v5.884c0 1.539 1.282 2.786 2.862 2.786 1.583 0 2.868-1.247 2.868-2.786V39.33c0-.27-.044-.528-.119-.773h2.184c1.67 0 3.021-1.32 3.021-2.944V15.175zm-4.978 0C1.282 15.175 0 16.422 0 17.96v11.924c0 1.538 1.282 2.786 2.865 2.786 1.58 0 2.862-1.248 2.862-2.786V17.96c0-1.538-1.282-2.785-2.862-2.785m36.273 0c-1.583 0-2.865 1.247-2.865 2.785v11.924c0 1.538 1.282 2.786 2.865 2.786 1.58 0 2.862-1.248 2.862-2.786V17.96c0-1.538-1.282-2.785-2.862-2.785"/></svg>