<svg xmlns="http://www.w3.org/2000/svg" width="450" height="450"><path fill="#D3D0DC" d="m116.772 145.606 2.93-.019c3.23-.016 6.46-.012 9.69-.007q3.48-.01 6.96-.026c6.295-.022 12.59-.025 18.886-.023q7.887-.002 15.775-.017c13.117-.02 26.234-.021 39.35-.014 11.378.006 22.755-.015 34.132-.048q17.544-.052 35.088-.044c6.56.002 13.121-.004 19.682-.028 6.172-.023 12.343-.02 18.515 0q3.392.005 6.784-.016c3.095-.019 6.188-.006 9.283.015l2.692-.038c7.36.103 13.88 2.39 19.384 7.414 5.286 5.654 7.45 11.652 7.465 19.328l.016 2.053c.014 2.252.007 4.503 0 6.754l.02 4.866c.019 4.392.018 8.785.012 13.178-.003 3.672.003 7.345.009 11.018q.02 13.002.001 26.005c-.011 8.929.003 17.857.03 26.786q.032 11.518.022 23.035-.006 6.871.017 13.742.021 6.464-.008 12.927-.005 2.366.01 4.73c.089 14.436.089 14.436-3.66 21.129-1.083 1.824-1.083 1.824-.857 4.694.953 2.272 1.982 3.978 3.562 5.875 1.908 2.82 2.304 4.72 2.438 8.125-1.118 3.665-2.025 6.163-4.96 8.683-4.502 1.95-8.698 1.73-13.554 1.698l-3.245.014c-3.593.012-7.186.003-10.78-.007l-7.722.016c-6.269.013-12.537.01-18.806.002q-7.643-.01-15.284-.005l-2.197.002-4.419.003c-13.812.008-27.624-.002-41.436-.018q-17.778-.018-35.556.003a22489 22489 0 0 1-45.69.01l-2.188-.001q-7.632-.003-15.266.009-10.273.013-20.546-.015-3.774-.006-7.55.004c-3.43.008-6.858-.002-10.287-.017l-3.035.02c-8.604-.073-8.604-.073-12.479-3.401-1.994-3.523-3-6.003-3-10.062 1.343-3.945 3.048-5.986 6-8.938h3l-1.242-1.574c-6.022-7.794-7.877-14.111-7.892-24.016l-.013-3.968.002-4.317-.01-4.574q-.013-6.198-.012-12.397l-.006-7.752q-.014-13.533-.012-27.066-.001-12.598-.026-25.196-.019-10.832-.018-21.662.002-6.462-.013-12.925-.014-6.08-.003-12.16a929 929 0 0 0-.007-4.45c-.041-10.813-.052-21.262 7.822-29.607 6.875-6.259 13.13-7.784 22.202-7.73"/><path fill="#33313D" d="m116.772 145.606 2.93-.019c3.23-.016 6.46-.012 9.69-.007q3.48-.01 6.96-.026c6.295-.022 12.59-.025 18.886-.023q7.887-.002 15.775-.017c13.117-.02 26.234-.021 39.35-.014 11.378.006 22.755-.015 34.132-.048q17.544-.052 35.088-.044c6.56.002 13.121-.004 19.682-.028 6.172-.023 12.343-.02 18.515 0q3.392.005 6.784-.016c3.095-.019 6.188-.006 9.283.015l2.692-.038c7.36.103 13.88 2.39 19.384 7.414 5.286 5.654 7.45 11.652 7.465 19.328l.016 2.053c.014 2.252.007 4.503 0 6.754l.02 4.866c.019 4.392.018 8.785.012 13.178-.003 3.672.003 7.345.009 11.018q.02 13.002.001 26.005c-.011 8.929.003 17.857.03 26.786q.032 11.518.022 23.035-.006 6.871.017 13.742.021 6.464-.008 12.927-.005 2.366.01 4.73c.089 14.436.089 14.436-3.66 21.129-1.083 1.824-1.083 1.824-.857 4.694.953 2.272 1.982 3.978 3.562 5.875 1.908 2.82 2.304 4.72 2.438 8.125-1.118 3.665-2.025 6.163-4.96 8.683-4.502 1.95-8.698 1.73-13.554 1.698l-3.245.014c-3.593.012-7.186.003-10.78-.007l-7.722.016c-6.269.013-12.537.01-18.806.002q-7.643-.01-15.284-.005l-2.197.002-4.419.003c-13.812.008-27.624-.002-41.436-.018q-17.778-.018-35.556.003a22489 22489 0 0 1-45.69.01l-2.188-.001q-7.632-.003-15.266.009-10.273.013-20.546-.015-3.774-.006-7.55.004c-3.43.008-6.858-.002-10.287-.017l-3.035.02c-8.604-.073-8.604-.073-12.479-3.401-1.994-3.523-3-6.003-3-10.062 1.343-3.945 3.048-5.986 6-8.938h3l-1.242-1.574c-6.022-7.794-7.877-14.111-7.892-24.016l-.013-3.968.002-4.317-.01-4.574q-.013-6.198-.012-12.397l-.006-7.752q-.014-13.533-.012-27.066-.001-12.598-.026-25.196-.019-10.832-.018-21.662.002-6.462-.013-12.925-.014-6.08-.003-12.16a929 929 0 0 0-.007-4.45c-.041-10.813-.052-21.262 7.822-29.607 6.875-6.259 13.13-7.784 22.202-7.73m-11.71 21.157c-2.493 5.25-1.75 11.616-1.709 17.327q-.01 2.321-.027 4.643c-.022 4.195-.013 8.388.002 12.583.013 4.393.001 8.786-.007 13.18-.009 7.377.003 14.755.027 22.132.027 8.524.019 17.048-.009 25.572q-.034 10.986-.013 21.972c.008 4.372.01 8.744-.007 13.116q-.021 6.165.024 12.332.01 2.26-.006 4.52c-.014 2.061.003 4.12.028 6.18l.006 3.49c.802 4.067 2.222 6.836 5.629 9.19 3.132.852 6.145.802 9.375.748l2.873.025c3.18.019 6.358-.005 9.537-.028q3.417.007 6.835.022c6.19.019 12.38 0 18.57-.027 6.473-.023 12.946-.014 19.42-.01q16.306 0 32.614-.058 16.776-.058 33.552-.04 20.22.019 40.438-.019 7.722-.013 15.445-.007 9.09.005 18.182-.044a1058 1058 0 0 1 6.68-.004c3.034.006 6.069-.012 9.104-.037l2.68.023c3.909-.056 6.24-.302 9.741-2.164 2.58-3.142 2.582-4.94 2.589-8.984l.024-2.007c.02-2.217.004-4.433-.012-6.65q.01-2.385.027-4.771c.022-4.318.013-8.636-.002-12.954-.013-4.518-.001-9.035.007-13.552.009-7.586-.003-15.172-.027-22.758-.027-8.773-.019-17.545.009-26.318q.034-11.295.013-22.589c-.008-4.498-.009-8.996.007-13.495q.021-6.343-.024-12.686a410 410 0 0 1 .006-4.658c.014-2.119-.003-4.235-.028-6.354l-.006-3.593c-.382-3.197-.382-3.197-3.007-5.395-2.958-1.823-4.485-2.087-7.923-2.007l-2.959.04-3.053.101-3.11.055q-3.79.07-7.577.195l-.184 1.863-.254 2.45-.246 2.425C318 172 318 172 317 175c-3.826 2.07-7.28 2.284-11.578 2.379l-3.766.103-3.906.08q-3.852.09-7.703.192l-3.443.072c-2.532-.118-2.532-.118-3.604 1.174a88 88 0 0 0-.316 4.91l-.127 2.998-.12 3.155-.13 3.166q-.16 3.885-.307 7.771l-5 1c.023-4.085.1-8.166.187-12.25.01-1.738.01-1.738.018-3.512l.088-3.379.048-3.11C278 177 278 177 280.117 174.672c3.474-2.015 5.714-2.21 9.715-2.281l3.916-.098q2.033-.023 4.064-.043 2.063-.042 4.124-.09 5.031-.105 10.064-.16c1.522-2.67 1.522-2.67 1-9h-85v16h-5v-16h-85c-.522 6.33-.522 6.33 1 9l2.706.076q4.974.143 9.947.296 2.151.066 4.303.125 3.095.088 6.189.187l3.76.11C169 173 169 173 172 174c1.212 3.104 1.193 6.338 1.316 9.64l.127 3.243.12 3.367.13 3.414q.159 4.168.307 8.336h-5c.01-.65.02-1.301.032-1.972.041-2.947.067-5.894.093-8.84l.05-3.104.02-2.979.032-2.745c-.065-2.63-.065-2.63-2.227-5.36-2.939-.495-2.939-.495-6.398-.477l-3.891-.093q-2.043-.03-4.086-.055c-2.654-.048-5.307-.106-7.96-.164l-3.58-.053C138 176 138 176 134 175l-2-12c-3.73-.162-7.455-.281-11.188-.375l-3.197-.152-3.095-.059-2.841-.095c-3.086.785-4.65 1.948-6.617 4.444"/><path fill="#D6D3DF" d="M260.637 198.25c13.174 9.755 22.57 23.412 25.363 39.75.28 3.131.334 6.232.313 9.375l-.013 2.515c-.118 6.41-.97 12.103-3.3 18.11l-.844 2.273c-6.52 16.02-17.092 26.578-32.594 33.977-15.203 6.243-30.527 6.542-45.953.871-9.587-4.006-17.792-9.235-24.609-17.121l-1.805-2.066c-10.285-13.143-13.836-29.09-12.54-45.478 2.298-16.332 11.346-31.089 24.095-41.143 21.44-15.544 49.985-16.119 71.887-1.063"/><path fill="#47454D" d="m141.875 339.813 3.957-.038 3.785-.005 3.488-.013C156 340 156 340 159 342l2-2c4.627-.516 9.285-.417 13.938-.437l3.943-.1 3.771-.022 3.469-.04C189 340 189 340 190.834 342.41L192 345l1 2 62 1 1-2 10 2 1-3h-8c.875-3.875.875-3.875 2-5 2.073-.088 4.148-.107 6.223-.098l3.818.01 4.022.026q2.016.008 4.033.013 4.952.018 9.904.049l1 5h2l.438-1.937C293 341 293 341 294 340c4.64-.254 9.291-.185 13.938-.187l3.982-.038 3.795-.005 3.504-.013C322 340 322 340 324 342v3q6.3-.141 12.598-.317 2.14-.058 4.283-.105c2.056-.046 4.11-.104 6.166-.164l3.745-.095c2.975-.296 4.701-.76 7.208-2.319l1.313 2.25c1.562 2.697 1.562 2.697 3.312 4.688 1.859 2.787 2.244 4.71 2.375 8.062-1.118 3.665-2.025 6.163-4.96 8.683-4.502 1.95-8.698 1.73-13.554 1.698l-3.245.014c-3.593.012-7.186.003-10.78-.007l-7.722.016c-6.269.013-12.537.01-18.806.002q-7.643-.01-15.284-.005l-2.197.002-4.419.003c-13.812.008-27.624-.002-41.436-.018q-17.778-.018-35.556.003a22489 22489 0 0 1-45.69.01l-2.188-.001q-7.632-.003-15.266.009-10.273.014-20.546-.015-3.774-.006-7.55.004c-3.43.008-6.858-.002-10.287-.017l-3.035.02c-8.604-.073-8.604-.073-12.479-3.401-1.994-3.523-3-6.003-3-10.062 1.35-3.968 3.026-5.964 6-8.938 3.52-1.361 7.01-1.026 10.734-.879l3.926.147 4.09.17 4.137.158q5.057.195 10.113.404l.438-1.937c1.527-5.602 10.698-3.248 15.437-3.25"/><path fill="#2AB1DB" d="m293.112 82.628 2.503-.011c2.734-.008 5.468.005 8.201.02q2.846 0 5.69-.002 5.964 0 11.926.029c5.104.023 10.208.023 15.311.016 3.916-.003 7.832.004 11.749.013q2.823.006 5.647.004 3.939.002 7.879.028l2.372-.007c5.381.053 5.381.053 7.61 2.282.266 3.152.266 3.152.25 6.937l.016 3.778C372 99 372 99 370 102l2 2c.266 2.934.266 2.934.25 6.437l.016 3.497C372 117 372 117 370 120l2 2c.266 3.187.266 3.187.25 7l.016 3.812C372 136 372 136 370 138c-2.694.204-5.286.283-7.982.275l-2.499.015a1381 1381 0 0 1-8.203.01l-5.687.014q-5.965.01-11.931.002c-5.103-.006-10.205.01-15.307.034-3.917.015-7.833.016-11.749.013q-2.822 0-5.644.015a867 867 0 0 1-7.886-.006l-2.367.023c-5.239-.05-5.239-.05-7.73-1.745-1.551-2.52-1.375-4.66-1.328-7.588l.012-3.152c.292-2.821.848-4.507 2.301-6.91l-2-3c-.266-2.559-.266-2.559-.25-5.438l-.016-2.87c.269-2.718.88-4.367 2.266-6.692l-2-3c-.3-2.813-.3-2.813-.313-6l-.05-3.188C282 86 282 86 283.016 84.347c3.128-2.124 6.444-1.755 10.096-1.72"/><path fill="#2FB1DA" d="M80 83c2.77-.302 5.317-.41 8.09-.388l2.533-.016c2.772-.013 5.543-.005 8.314.006q2.881-.003 5.762-.01 6.042-.005 12.085.017c5.172.017 10.344.007 15.516-.01 3.967-.012 7.934-.008 11.9 0q2.861.004 5.723-.008c2.663-.007 5.324.004 7.987.02l2.406-.018c2.192.026 2.192.026 5.684.407 2.3 3.45 2.27 4.872 2.25 8.938l.016 3.152c-.26 2.841-.8 4.497-2.266 6.91l2 2c.266 2.934.266 2.934.25 6.438l.016 3.496C168 117 168 117 166 120l2 3c.266 2.813.266 2.813.25 6l.016 3.188C168 135 168 135 166 138c-2.77.302-5.317.41-8.09.388l-2.533.016c-2.772.013-5.543.005-8.315-.006q-2.88.003-5.761.01-6.043.005-12.085-.017c-5.172-.017-10.344-.007-15.516.01-3.967.012-7.934.008-11.9 0q-2.862-.004-5.723.008c-2.663.007-5.324-.004-7.987-.02l-2.406.018c-2.192-.026-2.192-.026-5.684-.407-2.3-3.45-2.27-4.872-2.25-8.937l-.016-3.153c.26-2.841.8-4.497 2.266-6.91l-2-2c-.266-2.934-.266-2.934-.25-6.437l-.016-3.497C78 104 78 104 80 101l-2-3c-.266-2.812-.266-2.812-.25-6l-.016-3.187C78 86 78 86 80 83"/><path fill="#24AADA" d="m187.62 82.729 2.378.012 2.503-.01c2.74-.01 5.479-.003 8.218.003l5.694-.005q5.972-.005 11.944.01c5.112.012 10.223.005 15.334-.007q5.88-.009 11.762 0 2.827.003 5.655-.005c2.631-.005 5.263.003 7.894.014l2.377-.012c5.392.042 5.392.042 7.621 2.271.266 3.188.266 3.188.25 7l.016 3.813C269 99 269 99 267 101l2 2c.198 2.545.279 4.957.25 7.5l.023 2.09c-.02 5.157-.02 5.157-2.273 7.41l2 2c.266 3.188.266 3.188.25 7l.016 3.813C269 136 269 136 267 138c-2.7.199-5.297.273-7.998.259l-2.503.01c-2.74.01-5.479.003-8.218-.003l-5.694.005q-5.972.005-11.944-.01c-5.112-.012-10.223-.005-15.334.007q-5.88.009-11.762 0-2.827-.003-5.655.005c-2.631.005-5.263-.003-7.894-.014l-2.377.012c-5.392-.042-5.392-.042-7.621-2.271-.266-3.187-.266-3.187-.25-7l-.016-3.812C180 122 180 122 182 120l-2-2a83 83 0 0 1-.25-7.5l-.023-2.09c.02-5.157.02-5.157 2.273-7.41l-2-2c-.266-3.187-.266-3.187-.25-7l-.016-3.812c.464-5.563 2.877-5.42 7.887-5.46"/><path fill="#3F69D4" d="M260.637 198.25c13.174 9.755 22.57 23.412 25.363 39.75.28 3.131.334 6.232.313 9.375l-.013 2.515c-.118 6.41-.97 12.103-3.3 18.11l-.844 2.273c-6.52 16.02-17.092 26.578-32.594 33.977-15.203 6.243-30.527 6.542-45.953.871-9.587-4.006-17.792-9.235-24.609-17.121l-1.805-2.066c-10.285-13.143-13.836-29.09-12.54-45.478 2.298-16.332 11.346-31.089 24.095-41.143 21.44-15.544 49.985-16.119 71.887-1.063m-72.848 22.363c-7.898 10.537-10.295 22.656-8.476 35.614 1.93 8.649 5.988 16.055 11.687 22.773l1.555 1.844c7.088 7.733 17.109 12.919 27.644 13.492 13.53.272 23.814-2.05 34.801-10.336l2.688-1.812c5.871-5.555 9.356-12.77 12.312-20.188l1.25-2.812c2.634-11.194.715-24.485-4.875-34.5-7.227-10.84-17.37-19.199-30.2-22.211-19.85-2.98-35.252 2.726-48.386 18.136"/><path fill="#2B283A" d="M118.121 146.74c.945-.005 1.89-.008 2.864-.012 3.18-.01 6.36-.007 9.541-.003l6.825-.015c6.19-.014 12.38-.014 18.57-.012q7.746 0 15.492-.008 19.32-.016 38.642-.005c11.182.006 22.364-.006 33.546-.025q17.223-.03 34.447-.024 9.669.005 19.338-.014 9.096-.019 18.192.002 3.339.004 6.677-.009c3.039-.01 6.077-.002 9.116.01l2.667-.022c5.4.048 9.138.94 13.962 3.397v2c-2.504.072-4.739.06-7.188-.5-3.553-.632-7.03-.607-10.625-.563l-2.1.014q-2.543.02-5.087.049c-1.522 2.67-1.522 2.67-1 9l15 1v1h-18v-11h-5v12h-86v16h-5v-16h-85v-12h-6v11l-2-1 1-9-4.453-.148-5.797-.227c-.968-.03-1.936-.062-2.934-.094l-2.832-.117-2.602-.095c-2.51-.336-4.201-1.06-6.382-2.319 3.995-2.663 7.483-2.28 12.121-2.26"/><path fill="#161414" d="M88 351h1l1 9 2.96-1.492c4.296-1.836 8.059-1.811 12.665-1.633q2.396.049 4.793.086l2.36.038c3.071.001 6.102-.228 9.16-.499 8.122-.715 16.013-.844 24.09.379 2.206.135 3.844-.317 5.972-.879 4 0 4 0 7.688.563 3.718.49 6.965.198 10.664-.301 5.515-.545 11.115-.52 16.648-.262l1 1c1.682.233 3.371.413 5.063.563l2.785.253L198 358v-2q15.034-.034 30.067-.052 6.98-.007 13.96-.023 6.73-.016 13.46-.02 2.573-.003 5.147-.01 3.593-.01 7.184-.009l2.171-.01c4.897.01 4.897.01 6.011 1.124 1.873.16 1.873.16 4 .125l2.188.008c1.833.064 1.833.064 2.812-1.133 2.292-.088 4.586-.107 6.879-.098l2.08.005c2.202.005 4.403.018 6.603.03q2.234.009 4.467.014 5.486.017 10.971.049v2l2.09-.437c8.074-1.595 15.01-2.216 23.098-.563 5.715 1.16 11.225 1.118 17.039.973C361 358 361 358 362 359c.375 2.375.375 2.375 0 5-4.568 4.015-9.776 3.42-15.514 3.381l-3.245.014c-3.593.012-7.186.003-10.78-.007l-7.722.016c-6.269.013-12.537.01-18.806.002q-7.643-.01-15.284-.005l-2.197.002-4.419.003c-13.812.008-27.624-.002-41.436-.018q-17.778-.018-35.556.003a22489 22489 0 0 1-45.69.01l-2.188-.001q-7.632-.003-15.266.009-10.273.014-20.546-.015-3.774-.006-7.55.004c-3.43.008-6.858-.002-10.287-.017l-3.035.02c-8.604-.073-8.604-.073-12.479-3.401-2.677-4.73-3.413-7.732-2-13"/><path fill="#0D65B9" d="M80 83c2.77-.302 5.317-.41 8.09-.388l2.533-.016c2.772-.013 5.543-.005 8.314.006q2.881-.003 5.762-.01 6.042-.005 12.085.017c5.172.017 10.344.007 15.516-.01 3.967-.012 7.934-.008 11.9 0q2.861.004 5.723-.008c2.663-.007 5.324.004 7.987.02l2.406-.018c2.192.026 2.192.026 5.684.407 2.3 3.45 2.27 4.872 2.25 8.938l.016 3.152c-.262 2.87-.946 4.41-2.266 6.91l1 2c-10.6 1.546-20.322 2.525-31 1v9h-16v-2h-2v2h-7l-2-8-29-1v-3l-.984-1.809c-1.322-2.852-1.282-5.122-1.266-8.254l-.016-3.16C78 86 78 86 80 83"/><path fill="#25A9DC" d="M282 106h2c1.044 3.133.934 3.99 0 7 3.226 1.893 5.726 2.292 9.445 2.414l3.24.118 3.44.093 3.516.113c6.89.206 13.78.356 20.671.387l2.167.014c2.652-.008 5.142-.05 7.731-.655 3.667-.636 7.234-.498 10.935-.363l2.332.072q3.668.116 7.336.245l4.99.158q6.099.193 12.197.404l-2 4 2 2c.266 3.188.266 3.188.25 7l.016 3.813C372 136 372 136 370 138c-2.694.204-5.286.283-7.982.275l-2.499.015a1381 1381 0 0 1-8.203.01l-5.687.014q-5.965.01-11.931.002c-5.103-.006-10.205.01-15.307.034-3.917.015-7.833.016-11.749.013q-2.822 0-5.644.015a867 867 0 0 1-7.886-.006l-2.367.023c-5.239-.05-5.239-.05-7.73-1.745-1.551-2.52-1.375-4.66-1.327-7.588l.011-3.152c.292-2.821.848-4.507 2.301-6.91l-2-3c-.195-2.48-.195-2.48-.125-5.187l.055-2.731z"/><path fill="#40C0E4" d="m187.62 82.729 2.378.012 2.503-.01c2.74-.01 5.479-.003 8.218.003l5.694-.005q5.972-.005 11.944.01c5.112.012 10.223.005 15.334-.007q5.88-.009 11.762 0 2.827.003 5.655-.005c2.631-.005 5.263.003 7.894.014l2.377-.012c5.392.042 5.392.042 7.621 2.271.23 2.785.23 2.785.188 6.063l-.02 3.285C269 97 269 97 268 98c-2.703.1-5.38.136-8.084.13l-2.567.005q-4.22.004-8.443-.002l-5.84.003q-6.129.002-12.257-.006-7.874-.006-15.749.004-6.032.004-12.064 0-2.904 0-5.809.002-4.05.003-8.103-.007l-2.45.007c-5.52-.022-5.52-.022-6.634-1.136a104 104 0 0 1-.187-5.937l-.043-3.278c.437-5.285 3.206-5.02 7.85-5.056"/><path fill="#292739" d="m114.899 146.787 3.687.012 4.012.045q2.087.013 4.175.024c4.409.028 8.818.078 13.227.132l2.146.025c9.73.114 19.458.269 29.187.439q5.392.092 10.786.18 10.44.174 20.881.356v1l-7 1 2.08-.016q4.647-.029 9.295-.047l3.273-.025 3.125-.01 2.889-.016C219 150 219 150 221 151l1 12h-84v-12h-6v11l-2-1 1-9-4.453-.148-5.797-.227c-.968-.03-1.936-.062-2.934-.094l-2.832-.117-2.602-.095c-2.51-.336-4.201-1.06-6.382-2.319 3.482-2.322 4.792-2.24 8.899-2.213"/><path fill="#24ADDB" d="m78 104 32 1 1 9h7v-2h2v2l1.723-.254c5.043-.665 9.28-.703 14.277.254l-1-9c4.514-1.128 4.514-1.128 6.82-.52 2.7.644 5.05.532 7.82.399l3.243-.147 3.367-.17 3.414-.158q4.169-.194 8.336-.404c.054 2.083.093 4.166.125 6.25l.07 3.516c-.19 3.142-.722 4.552-2.195 7.234q-15.465.106-30.93.155c-4.787.016-9.575.037-14.362.071-4.623.033-9.246.05-13.87.059q-2.64.008-5.282.032c-2.473.022-4.945.025-7.418.024l-2.19.032c-4.843-.029-10.336-.76-13.948-4.373z"/><path fill="#2E2C38" d="M146.027 356.879c2.207.135 3.845-.317 5.973-.879 4 0 4 0 7.688.563 3.718.49 6.965.198 10.664-.301 5.515-.545 11.115-.52 16.648-.262l1 1c1.682.233 3.371.413 5.063.563l2.785.253L198 358v-2q15.034-.034 30.067-.052 6.98-.007 13.96-.023 6.73-.016 13.46-.02 2.573-.003 5.147-.01 3.593-.01 7.184-.009l2.171-.01c4.897.01 4.897.01 6.011 1.124 1.873.16 1.873.16 4 .125l2.188.008c1.833.064 1.833.064 2.812-1.133 2.292-.088 4.586-.107 6.879-.098l2.08.005c2.202.005 4.403.018 6.603.03q2.234.009 4.467.014 5.486.017 10.971.049v2l2.09-.437c8.983-1.775 16.877-1.877 25.91-.563v2c-4.008 1.336-7.857 1.138-12.036 1.127l-2.837.005c-3.15.004-6.3 0-9.45-.003l-6.761.006q-9.202.005-18.405 0c-6.422-.003-12.844 0-19.267 0q-17.235.004-34.472-.006-15.593-.006-31.187.001-18.12.01-36.243.005-9.586-.003-19.173.001-9.03.004-18.062-.005-3.302 0-6.605.002c-11.215.01-22.326-.075-33.502-1.133l1-2 3.48.035c8.24.057 16.349-.085 24.563-.808 7.068-.542 13.975-.41 20.984.652"/><path fill="#25ADD9" d="m159.75 121.875 2.074-.012c5.05.01 5.05.01 6.176 1.137.125 1.955.176 3.916.188 5.875l.042 3.242C168 135 168 135 166 138c-2.781.286-5.34.378-8.122.34l-2.542.002c-2.782-.002-5.563-.026-8.344-.049q-2.887-.009-5.776-.013c-5.073-.011-10.146-.04-15.22-.074-5.174-.03-10.349-.044-15.523-.06Q95.237 138.096 80 138l-2-4h34v-2l22 1c1.515-5.46 1.515-5.46 0-8l2.668-.402 3.52-.535 3.48-.528c1.934-.31 3.864-.657 5.773-1.094 3.438-.593 6.833-.586 10.309-.566"/><path fill="#21ADDC" d="M255.816 103.902q2.374.01 4.746.035l2.444.014q2.997.02 5.994.049v14c-5.153 2.54-9.336 3.437-15.107 3.388l-2.358.016c-2.55.013-5.098.005-7.648-.006q-2.67.003-5.337.01-5.574.005-11.148-.017c-4.77-.017-9.539-.007-14.308.01-3.668.012-7.335.008-11.002 0q-2.64-.004-5.279.008c-2.451.007-4.902-.004-7.353-.02l-2.212.018c-2.017-.026-2.017-.026-5.248-.407-2.29-3.435-2.178-4.985-2-9l1.188 1.438c3.283 2.83 7.46 2.688 11.646 2.723l2.821.03 3.01.012 3.117.017q3.255.015 6.511.02c3.327.01 6.654.041 9.98.073l6.329.015 3.02.038 2.802-.01 2.465.011c2.623-.456 3.47-1.315 5.111-3.367.977-1.802.977-1.802 1.688-3.687L241 106l2.152-.184 2.786-.254c.916-.08 1.833-.162 2.777-.246 3.498-.484 2.948-1.307 7.101-1.414"/><path fill="#1C1923" d="m116 359 225 1v1c-1.282.09-1.282.09-2.59.184l-3.348.253-3.34.247c-2.633.02-2.633.02-3.722 1.316-2.206.114-4.415.156-6.623.172l-2.123.019q-3.547.028-7.093.046l-5.065.04q-6.898.052-13.797.092l-8.613.056q-15.015.101-30.028.188c-9.34.053-18.68.119-28.02.189q-12.015.09-24.029.158-7.18.04-14.363.097-6.756.053-13.51.081-2.483.013-4.964.036c-2.256.021-4.512.03-6.768.035l-3.828.024c-3.052-.224-4.587-.724-7.176-2.233-2.495-.258-2.495-.258-5.184-.16l-3.045.035-3.208.063c-8.593.092-17.012-.003-25.563-.938z"/><path fill="#58D1EB" d="m292.998 82.839 2.503-.015q4.11-.021 8.218-.027l5.694-.017q5.972-.015 11.944-.02c5.112-.006 10.223-.03 15.334-.058 3.92-.019 7.841-.024 11.762-.026q2.827-.004 5.655-.024c2.632-.017 5.262-.015 7.894-.008l2.377-.028c2.167.017 2.167.017 5.621.384l2 3-29 3-1 5h-4v2c-3.458.058-6.916.094-10.375.125l-2.984.05-2.852.02-2.634.032C317 96 317 96 315 94v-8h-32v-2c3.153-1.576 6.536-1.156 9.998-1.161"/><path fill="#5C5A5F" d="m141.875 339.625 3.957-.113 3.785-.035 3.488-.06c2.895.583 2.895.583 4.794 3.116L159 345c-1.562 2.063-1.562 2.063-4 4-1.644-.204-3.288-.421-4.92-.71-3.903-.545-7.836-.351-11.768-.29q-2.505.039-5.011.063l-2.214.035c-2.157-.101-4-.564-6.087-1.098a199 199 0 0 0-7.75-.062l-2.113.013q-2.57.02-5.137.049l10 2v1l-3.875.438c-2.382.268-3.97.484-6.125 1.562a68 68 0 0 1-4.57-.121l-2.715-.147-2.84-.17-2.863-.158Q93.505 351.21 90 351c.304-2.935.805-3.84 3.122-5.745 3.563-1.554 6.053-1.51 9.929-1.33l1.996.08c2.09.088 4.177.197 6.266.308q2.133.095 4.267.185c3.474.15 6.947.321 10.42.502l.438-1.937c1.528-5.605 10.688-3.387 15.437-3.438m21.809.261 3.539.016 3.818.01 4.022.026q2.016.008 4.033.013 4.952.018 9.904.049l1 5h-31c1.242-4.968 1.242-4.968 4.684-5.114"/><path fill="#41C4E5" d="M80 83h86l2 5-31-1v7c-5.385.917-10.542 1.111-16 1l-1-5h-2l-1 5h-5v-8H78z"/><path fill="#3EB8E3" d="M367.852 119.87C370 120 370 120 372 122c.195 2.82.195 2.82.125 6.125l-.055 3.32L372 134h-2v-10l-28 1-1 7c-1.745 1.745-4 1.132-6.322 1.139l-2.178-.014-2.193-.006c-5.166-.041-10.188-.388-15.307-1.119l-2-7-3.438-.148-4.562-.227c-.744-.03-1.488-.062-2.254-.094-5.152-.269-9.776-1.142-14.746-2.531v-1a371902 371902 0 0 1 57.108-.748l14.383-.189c4.182-.05 4.182-.05 8.361-.194"/><path fill="#35B7E4" d="M80 102h86l1 2c-10.6 1.546-20.322 2.525-31 1v9h-16v-2h-2v2h-7l-2-8-29-1z"/><path fill="#DB663A" d="M314 151h5c.146 3.395.234 6.79.313 10.188l.126 2.908c.125 7.171.125 7.171-2.834 11.017-3.93 2.847-6.085 3.05-10.925 3.203l-3.809.127-3.996.12-4.02.13q-4.928.16-9.855.307l-.076 2.004q-.175 4.467-.361 8.934l-.12 3.154-.127 2.998-.11 2.777C283 201 283 201 282 202c-1.666.04-3.334.043-5 0-.175-4.062-.28-8.123-.375-12.187l-.152-3.487c-.088-5.051-.136-8.287 2.62-12.607 5.392-3.377 12.68-2.226 18.782-2.031q2.055.037 4.11.068c3.338.059 6.677.148 10.015.244z"/><path fill="#34B5E1" d="M288 101q15.986.09 31.97.236 7.423.07 14.845.11 7.158.04 14.316.117 2.736.025 5.471.035c2.549.01 5.096.037 7.644.07l2.301-.005c2.1.038 2.1.038 5.453.437l2 3q-4 .294-8 .563l-2.254.17c-3.824.249-7.383.267-11.183-.268-3.397-.781-3.397-.781-5.563.535-2.333.04-4.667.043-7 0v2h2c.043 1.666.04 3.334 0 5l-1 1a68 68 0 0 1-4.562-.437l-2.504-.31L330 113v2a782 782 0 0 1-6.937-.375c-1.288-.07-2.576-.14-3.903-.21L316 114c-1.354-2.709-1.065-5.01-1-8l-1.833-.06c-2.764-.096-5.528-.205-8.292-.315-.951-.03-1.903-.062-2.883-.094-5.01-.208-9.296-.586-13.992-2.531z"/><path fill="#5E5D63" d="m117.012 145.485 2.935-.02c3.224-.019 6.448-.009 9.672.002q3.48-.011 6.96-.027c6.287-.022 12.574-.02 18.861-.01 5.92.006 11.838-.004 17.757-.013 12.438-.016 24.876-.007 37.314.01 11.365.014 22.728 0 34.093-.03q17.53-.044 35.06-.03c6.554.005 13.108.003 19.662-.018a2653 2653 0 0 1 18.49.012q3.388.008 6.775-.01c3.09-.017 6.18-.002 9.27.02l2.687-.035c7.37.109 13.775 2.443 19.37 7.345 4 4.131 5.662 8.827 7.082 14.319h-2l-.687-2c-3.772-8.62-7.417-12.487-16.313-16-4.024-1.341-7.904-1.152-12.101-1.154l-2.857-.013q-4.76-.019-9.52-.026l-6.81-.025c-7.468-.026-14.936-.041-22.403-.055l-7.71-.017a32566 32566 0 0 0-40.397-.06l-2.09-.002c-11.16-.013-22.321-.046-33.482-.088q-17.198-.062-34.395-.071c-6.435-.004-12.87-.016-19.304-.048q-9.085-.044-18.17-.025-3.33 0-6.658-.025a717 717 0 0 0-9.113.001l-2.641-.042c-7.62.097-14.074 2.737-19.786 7.818L95 157.188l-1.625 2.042L92 161l-2 2c.537-3.86 1.462-6.107 4-9.062l1.625-1.973c6.443-5.33 13.237-6.555 21.387-6.48"/><path fill="#3CB4EE" d="M190 121h69v1c-6.468 1.512-12.356 2.214-19 2l-2 11q-4.875.291-9.75.563l-2.79.17-2.694.146-2.476.143c-2.335-.022-4.106-.191-6.29-1.022-2.304-3.457-2.259-4.949-2-9l1-2-1.896.048c-2.826.062-5.652.101-8.479.14l-2.984.076-2.852.029-2.634.048L192 124z"/><path fill="#CA613B" d="M132 151h6l1 21 6.422-.14c2.058-.032 4.117-.056 6.176-.08q2.141-.03 4.283-.082c2.055-.048 4.11-.071 6.166-.089l3.745-.063c3.793.537 4.897 1.472 7.208 4.454 1.305 2.61 1.113 4.527 1.098 7.445l-.01 3.262-.025 3.418-.014 3.441A2715 2715 0 0 1 174 202h-5l-.076-1.988q-.176-4.443-.362-8.887l-.119-3.129-.127-2.988-.11-2.761c-.072-2.282-.072-2.282-1.206-4.247l-2.599-.06q-4.785-.118-9.571-.257-2.07-.058-4.138-.105a880 880 0 0 1-5.958-.164l-3.618-.095c-2.976-.305-4.667-.65-7.116-2.319-2.17-3.254-2.24-4.134-2.195-7.887l.02-2.842.05-2.958.027-2.995q.036-3.66.098-7.318"/><path fill="#0F6FB9" d="M282 106h2c1.044 3.133.934 3.99 0 7 3.226 1.893 5.726 2.292 9.445 2.414l3.24.118 3.44.093 3.516.113c6.89.206 13.78.356 20.671.387l2.167.014c2.652-.008 5.142-.05 7.731-.655 3.667-.636 7.234-.498 10.935-.363l2.332.072q3.668.116 7.336.245l4.99.158q6.099.193 12.197.404c-3.42 3.657-5.305 4.94-10.436 5.12q-2.17.004-4.34-.006h-2.396c-2.613 0-5.226-.009-7.84-.016l-5.435-.005q-7.154-.006-14.308-.024-7.299-.014-14.599-.02-14.322-.016-28.646-.049c-1.552-3.665-2.232-6.317-2.125-10.312l.055-2.676z"/><path fill="#2DB2DC" d="M78 87h34v3h-2l2 6 6 1v-2l3 1c2.226.225 4.456.408 6.688.563l3.574.253L134 97v1H78z"/><path fill="#24212C" d="M222.296 146.74c2.501.01 5.002 0 7.503-.013 9.592-.008 18.737.574 28.201 2.273-3.195 1.884-5.515 2.238-9.203 2.195l-2.969-.02-3.078-.05-3.125-.027A1095 1095 0 0 1 232 151v10l-4 2v16h-5l-.184-3.465-.254-4.472-.119-2.288c.117-3.694.117-3.694-1.443-6.775v-11h-25l-1-2c9.085-2.232 18.006-2.308 27.296-2.26"/><path fill="#24A8DB" d="m185.438 120.813 2.433-.043C190 121 190 121 192 123c2.328.278 2.328.278 5.008.195l2.988-.02 3.129-.05 3.152-.027A1137 1137 0 0 0 214 123l-.254 1.863-.309 2.45-.316 2.425c-.269 2.43-.269 2.43.879 5.262-4.02.03-8.042.047-12.062.063l-3.436.025c-11.877.035-11.877.035-16.502-1.088-2.113-3.17-2.253-3.996-2.187-7.625l.019-2.414c.319-3.722 2.336-3.122 5.606-3.148"/><path fill="#E77643" d="M213 237v11l-5 1v2l5 1v11c-7.668-2.34-14.771-5.548-22-9v-8a3623 3623 0 0 1 9.875-4.5c.937-.43 1.874-.859 2.84-1.3l2.715-1.231 2.507-1.143C211 237 211 237 213 237"/><path fill="#2CB4E0" d="M282 86h33l1 11q-6.54.037-13.08.055-2.224.008-4.45.02c-2.131.013-4.263.018-6.396.023l-3.888.016C285 97 285 97 282 96z"/><path fill="#2CB2DB" d="m78 104 32 1 2 9 2 2q-6.753.252-13.507.482-2.297.08-4.595.166-3.302.122-6.605.23l-2.074.083c-3.066.096-5.278.02-8.219-.961-1-2-1-2-1-12"/><path fill="#D8B3B2" d="M302 163h11c.125 6.75.125 6.75-1 9l-2.583.028q-4.767.067-9.532.18-2.059.042-4.118.063c-1.978.022-3.957.07-5.935.12l-3.602.063c-3.903.66-5.573 1.624-8.23 4.546-.773 2.782-.773 2.782-.707 5.86l-.088 3.378-.017 3.512-.077 3.559A590 590 0 0 0 277 202l5-1 .076-2.004q.175-4.467.361-8.934l.12-3.154.127-2.998.11-2.777C283 179 283 179 284 178a133 133 0 0 1 6.047-.246l3.75-.1q3.93-.09 7.86-.172l3.765-.103 3.456-.076c3.127-.304 5.357-.819 8.122-2.303 1.041-2.856 1.041-2.856 1.313-6.125l.425-3.32L319 163c3.625-.058 7.25-.094 10.875-.125 1.033-.017 2.065-.034 3.129-.05l2.988-.02 2.761-.032C341 163 341 163 343 165l-3 1v-2l-2.957.219-3.856.281-3.832.281A98 98 0 0 1 323 165l-.516 2.3-.734 3.012-.703 2.989c-1.227 3.163-2.072 4.114-5.047 5.699-5.456 1.438-11.145 1.148-16.75 1.125l-2.902.012-2.77-.004-2.518-.004C289 180 289 180 287 179c-1.742 6.736-2.39 13.209-2.754 20.156C284 202 284 202 283 203q-3.5.061-7 0c-2.043-5.844-2.234-10.908-1.937-17.062l.044-2.643c.187-4.171.51-7.407 3.041-10.822 3.27-2.836 5.154-3.46 9.414-3.973l3.38-.469c3.178-.032 4.374.427 7.058 1.969 2.664.515 5.295.73 8 1v-3h6v-4h-9z"/><path fill="#0E68BD" d="M180 97h89c-2 4-2 4-3 5a179 179 0 0 1-7.577.161l-2.405.015q-3.957.021-7.913.027l-5.482.017q-5.756.015-11.513.02c-4.92.006-9.84.03-14.759.058-3.777.019-7.554.024-11.332.026q-2.72.004-5.44.024c-2.538.017-5.076.015-7.613.008l-2.276.028c-3.192-.025-5.375-.208-8.188-1.781C180 99 180 99 180 97"/><path fill="#39BEE0" d="M214 103c2.329-.36 2.329-.36 5.276-.34h3.336l3.615.047 3.69.013c3.903.017 7.805.054 11.708.093q3.96.022 7.922.04 9.726.052 19.453.147v1c-1.823.09-1.823.09-3.684.184l-4.753.254-2.432.119c-3.883-.152-3.883-.152-7.131 1.443-1.682.233-3.371.413-5.062.563l-2.786.253L241 107l-1.062 3.438c-.84 1.933-.84 1.933-1.938 3.562-5.29 1.693-10.592.797-16 0v-2l-3 2c-2.687.125-2.687.125-5 0-1.758-5.957-1.758-5.957-2-8z"/><path fill="#0F67BC" d="M283 98h88l-1 3c-4.266 1.04-8.407 1.148-12.772 1.145l-2.323.01q-3.784.013-7.57.013l-5.27.01q-5.514.009-11.03.007a3858 3858 0 0 0-14.147.031q-5.437.015-10.876.013-2.608 0-5.217.013c-2.427.01-4.854.007-7.282 0-1.08.01-1.08.01-2.182.018-3.673-.023-5.186-.163-8.331-2.26z"/><path fill="#E3713A" d="M225 232h10c-3.503 12.26-7.545 24.461-13 36h-8c.606-5.13 1.726-9.89 3.313-14.812l.668-2.11a175 175 0 0 1 5.222-14.16c.67-1.612 1.245-3.262 1.797-4.918"/><path fill="#E2703B" d="M236 238c4.095.682 7.758 1.94 11.625 3.438l3.414 1.308C254 244 254 244 257 246c.408 2.712.133 5.244 0 8-6.186 3.85-13.574 8-21 8v-10l4-1v-2l-4-1z"/><path fill="#27B1DF" d="M137 87q6.14-.037 12.28-.055 2.09-.008 4.179-.02c2-.013 4.001-.018 6.002-.023l3.65-.016C166 87 166 87 168 88v8c-10.276 3.425-22.295 2.094-33 2z"/><path fill="#D7D5DF" d="M194 340q11.879-.07 23.757-.104 5.514-.014 11.03-.047 5.32-.032 10.64-.039 2.032-.004 4.065-.021c1.893-.015 3.787-.016 5.681-.016l3.27-.014C255 340 255 340 257 342v3h-64z"/><path fill="#1C8EC9" d="m181 130 1 4 1.813-.562C186 133 186 133 189 134c2.246.165 4.496.273 6.746.352l2.045.071q3.323.11 6.647.202l2.29.068c29.37 1.264 29.37 1.264 58.272-2.693h2l2-2c.125 2.875.125 2.875 0 6-2.54 2.54-4.157 2.244-7.62 2.271l-2.378-.012-2.503.01c-2.74.01-5.479.003-8.218-.003l-5.694.005q-5.972.005-11.944-.01c-5.112-.012-10.223-.005-15.334.007q-5.88.009-11.762 0-2.827-.003-5.655.005c-2.631.005-5.263-.003-7.894-.014l-2.377.012c-5.392-.042-5.392-.042-7.621-2.271-.187-2.562-.187-2.562 0-5z"/><path fill="#27B2DE" d="M236 87h33v8c-3.68 2.453-5.474 2.232-9.855 2.195l-2.005-.008c-2.11-.011-4.218-.037-6.327-.062q-2.148-.016-4.295-.027A1932 1932 0 0 1 236 97l1.5-1.812c1.783-2.158 1.783-2.158 1.5-5.188h-2z"/><path fill="#2BB1DA" d="m344.684 123.886 3.539.016 3.818.01 4.022.025q2.016.008 4.033.014 4.952.018 9.904.049.039 2.22.063 4.437l.035 2.497C370 133 370 133 369 134c-2.292.088-4.586.107-6.879.098l-2.08-.005a2051 2051 0 0 1-6.603-.03q-2.234-.008-4.467-.014-5.486-.017-10.971-.049l2-2q.552-3.493 1-7c1-1 1-1 3.684-1.114"/><path fill="#1F1C28" d="M322.243 146.684a534 534 0 0 0 6.753-.045q2.175-.004 4.348-.002l3.943-.01c4.225.424 6.927 1.522 10.713 3.373v2c-2.504.072-4.739.06-7.187-.5-3.554-.632-7.032-.607-10.625-.562l-2.1.013q-2.544.02-5.088.049c-1.522 2.67-1.522 2.67-1 9l15 1v1h-18v-11h-6v11h-70v-1h69v-11l-3 1c-2.333.04-4.667.044-7 0l-1-2c7.085-2.3 13.846-2.337 21.243-2.316"/><path fill="#DDC2C7" d="M226 231h10l1 5 8 2v2l3 1c-2 1-2 1-4.383.223l-2.742-1.16-2.758-1.153L236 238v10l4 1v2l-4 1v10q3.876-1.434 7.75-2.875l2.21-.816c5.211-1.777 5.211-1.777 10.04-4.309.819-3.562.819-3.562 1-7h1c.77 8.007.77 8.007-1.937 11.5-3.997 1.958-7.656 2.308-12.063 2.5l-1 3h-11l1-8c-3.426 1.204-5.533 2.359-8 5 2.323-10.045 6.169-19.46 10-29h-9z"/><path fill="#11120F" d="M95 368h262v1H95z"/><path fill="#0A5CB1" d="m168 116-2 5q-15.517.07-31.033.104-7.205.014-14.41.047-6.954.032-13.908.039-2.652.005-5.305.021c-2.477.015-4.955.017-7.433.016l-2.212.022c-4.011-.016-7.087-.474-10.699-2.249v-1l2.762-.031q12.91-.147 25.82-.308 6.638-.083 13.274-.158 6.41-.072 12.818-.156 2.44-.03 4.881-.056 3.43-.037 6.857-.086c1.3-.015 2.598-.03 3.937-.047 5.616-.243 11.01-1.296 16.651-1.158"/><path fill="#0A5BB1" d="M269 118c-5.171 2.556-9.344 3.427-15.138 3.34l-2.368.002a913 913 0 0 1-7.678-.049q-2.675-.009-5.35-.013c-4.678-.011-9.355-.04-14.032-.074-4.78-.03-9.559-.044-14.338-.06q-14.048-.05-28.096-.146l-1-3q16.768-.231 33.535-.443 7.785-.098 15.571-.205 7.508-.104 15.017-.195 2.87-.036 5.739-.078 4.008-.056 8.016-.1l2.415-.04c5.479-.053 5.479-.053 7.707 1.061"/><path fill="#40B8EE" d="m80 120 87 1-1 2-2.43-.07c-6.858-.11-13.403.198-20.195 1.07-7.667.979-15.19 1.159-22.915 1.014l-2.425-.041-2.144-.055c-2.118.005-2.118.005-4.891 1.082v-2H78z"/><path fill="#3F5FBC" d="M284 242h1c.732 19.268-2.587 32.99-14.754 48.191-10.256 11.048-26.045 17.93-40.926 19.098-9.643.217-19.493-.175-27.32-6.289l2.17.429c7.653 1.407 14.996 1.877 22.768 1.821l3.322.023 3.205-.007 2.863-.007c2.885-.28 5.004-1.168 7.672-2.259h4v-2l6-1v-2h3v-2l1.938-.312L261 295l1-3c4.333-3 4.333-3 7-3l.25-1.687c.989-3.05 2.598-4.965 4.75-7.313h2c2.41-6.888 2.41-6.888 4-14h2c.986-5.123 1.31-10.177 1.563-15.375l.13-2.52q.158-3.053.307-6.105"/><path fill="#177DB8" d="M282 124h1v10c4.427 1.1 8.747 1.135 13.279 1.114h2.485q4.05-.002 8.1-.016l5.628-.005q7.395-.006 14.79-.024 7.552-.014 15.103-.02 14.808-.016 29.615-.049l-2 3c-2.735.302-5.244.41-7.982.388l-2.499.016c-2.734.013-5.468.005-8.203-.006q-2.842.003-5.687.01-5.965.005-11.931-.017c-5.103-.017-10.205-.007-15.307.01-3.917.012-7.833.008-11.749 0q-2.822-.004-5.644.008c-2.63.007-5.257-.004-7.886-.02l-2.367.018c-5.24-.062-5.24-.062-7.734-1.763-1.511-2.458-1.3-4.482-1.199-7.332l.083-3.011z"/><path fill="#595858" d="M108 144h235v1H108z"/><path fill="#B7BFE5" d="M208 186q7.34.141 14.679.317 2.495.058 4.99.105c2.396.046 4.791.104 7.186.164l2.242.035c4.05.115 7.252.593 10.903 2.379v2l2.25.375c2.598.59 4.401 1.415 6.75 2.625l3.125.938C263 196 263 196 265 199l1.938.813c2.969 1.709 3.64 4.148 5.062 7.187l2 1v2h2l1 6-1.687-2.125L273 211l-2.062-2.812c-8.59-10.223-23.429-18.11-36.739-19.475-2.906-.113-5.792-.123-8.699-.088l-2.934-.035c-14.344.058-27.045 5.804-37.566 15.41h-2l-.687 1.625c-2.177 3.939-5.133 7.195-8.313 10.375.563-3.941 1.68-6.75 4-10h2v-2c1.863-1.621 1.863-1.621 4.313-3.437 3.274-2.427 3.274-2.427 6.265-5.18 3.475-3.38 7.733-4.383 12.422-4.383v-2l1.938-.375L207 188z"/><path fill="#4461BB" d="M182 228c1.431 2.862.46 4.338-.437 7.375-3.327 12.727-1.691 24.117 4.437 35.625 7.037 11.384 17.06 18.861 30 22 14.483 1.571 27.412-.754 39-10a141 141 0 0 0 5-5 206 206 0 0 1 5-4l-2 5h-2l-.187 1.875C260 283 260 283 257.438 284.25L255 285v2q-3.434 1.757-6.875 3.5l-1.973 1.012C241.227 294 241.227 294 239 294v2a939 939 0 0 1-11.812-.25l-3.334-.043c-9.225-.272-16.682-2.505-24.854-6.707v-2l-2.2-.656c-3.53-1.694-5.187-3.787-7.613-6.844l-2.394-2.969C185 274 185 274 185 272h-2c-6.551-13.032-7.183-27.257-2.754-41.164C181 229 181 229 182 228"/><path fill="#C25F43" d="M314 151h5c.146 3.395.234 6.79.313 10.188l.126 2.908c.125 7.171.125 7.171-2.834 11.017-3.93 2.847-6.085 3.05-10.925 3.203l-3.809.127-3.996.12-4.02.13q-4.928.16-9.855.307l-.076 2.004q-.175 4.467-.361 8.934l-.12 3.154-.127 2.998-.11 2.777C283 201 283 201 282 202h-5v-25h1v24h3l-.016-2.08q-.029-4.647-.046-9.295l-.026-3.273-.01-3.125-.016-2.889C281 178 281 178 282 176l2.383-.06c3.581-.096 7.162-.205 10.742-.315 1.238-.03 2.475-.062 3.75-.094l3.633-.117 3.332-.095c3.355-.339 6.07-.968 9.16-2.319.902-2.707 1.119-4.238 1.098-7.012l-.008-2.069-.027-2.607L316 153l-1 18h-1z"/><path fill="#1A90CF" d="M118 112h2v2l1.793-.254c4.306-.555 7.963-.978 12.207.254v2h28v1c-4.919.79-9.654 1.155-14.648 1.237l-2.21.04q-3.58.06-7.162.11l-5 .077q-5.22.079-10.442.149c-4.467.06-8.933.134-13.4.212q-5.154.084-10.307.152-2.472.035-4.944.08-3.442.059-6.886.094l-3.96.058C80 119 80 119 78 117l1-3v2l33-1v-1h6z"/><path fill="#64A89E" d="M314 124c4.313.138 8.625.287 12.938.438l3.732.119 3.545.127 3.285.11C340 125 340 125 341 126c.125 3 .125 3 0 6-1.744 1.744-4 1.132-6.322 1.14-.719-.006-1.437-.01-2.178-.015l-2.196-.01c-5.168-.05-10.202-.22-15.304-1.115-1.354-2.709-1.065-5.01-1-8"/><path fill="#71B29A" d="M312 105c6.247-.27 12.309.165 18.5.938l2.14.263c5.097.668 5.097.668 7.36 1.799.043 1.666.04 3.334 0 5l-1 1a68 68 0 0 1-4.562-.437l-2.504-.31L330 113v2a782 782 0 0 1-6.937-.375c-1.288-.07-2.576-.14-3.903-.21L316 114c-1.354-2.709-1.065-5.01-1-8z"/><path fill="#5FBBBA" d="m124 123.75 2.813-.062 2.687-.016 2.469-.028L134 124c2 3 2 3 1.688 5.063C135 131 135 131 134 133c-7.418.094-14.662.174-22-1v-7c3.658-1.83 7.973-1.228 12-1.25"/><path fill="#76A38D" d="M110 105c5.84-.324 10.352.49 15.898 2.344 2.053.755 2.053.755 4.102.656v-2l6 1v7h-16v-2h-2v2h-7c-1.478-2.957-1.06-5.742-1-9"/><path fill="#231117" d="M115.582 146.77h1.972q2.073.006 4.148.024c2.065.018 4.13.02 6.194.02 8.743.024 17.39.445 26.104 1.186v2q-2.093.255-4.187.5l-2.356.281c-2.477.22-4.97.219-7.457.219l-1 11h-1v-11h-6v11l-2-1 1-9-4.453-.148-5.797-.227c-.968-.03-1.936-.062-2.934-.094l-2.832-.117-2.602-.095c-2.51-.336-4.201-1.06-6.382-2.319 3.618-2.412 5.281-2.245 9.582-2.23"/><path fill="#1578B3" d="m167 132 1 3-2 3c-2.781.286-5.34.378-8.122.34l-2.542.002c-2.782-.002-5.563-.026-8.344-.049q-2.887-.009-5.776-.013c-5.073-.011-10.146-.04-15.22-.074-5.174-.03-10.349-.044-15.523-.06Q95.237 138.096 80 138l-1-2 3.117-.018q14.545-.086 29.09-.218c4.984-.044 9.97-.084 14.954-.11q7.217-.04 14.434-.117 2.752-.025 5.505-.035a873 873 0 0 0 7.713-.07l2.298.005c4.465-.08 7.285-.767 10.889-3.437"/><path fill="#D29991" d="M109 163h23l1 9 1 3c3.387 1.388 7.052 1.157 10.664 1.21l3.899.087a819 819 0 0 0 6.116.104c1.974.028 3.948.075 5.923.122l3.572.06L167 177c2.202 3.303 2.24 4.275 2.195 8.105l-.02 2.979-.05 3.103-.027 3.14q-.036 3.836-.098 7.673l4 1c-1.666.043-3.334.04-5 0-1-1-1-1-1.114-3.133l.016-2.777.008-2.7.028-3.452L167 180h-30l-1-3-3-1c-1.168-1.96-1.168-1.96-2.187-4.375l-1.043-2.398C129 167 129 167 129 164h-20z"/><path fill="#55B3B3" d="M214 87c3.646-.029 7.292-.047 10.938-.062l3.154-.026 2.998-.01 2.777-.016C236 87 236 87 237 88c.04 2 .043 4 0 6-4.749 1.216-9.385 1.148-14.25 1.125l-2.508.012c-6.115-.01-6.115-.01-7.242-1.137q.43-3.51 1-7"/><path fill="#6DDEEF" d="M80 83h86l1 3-87-1z"/><path fill="#6DA290" d="m322.75 87.813 3.172-.043c3.099.232 5.28.92 8.078 2.23v-2l5 1 1 5h-2v2c-3.458.058-6.916.094-10.375.125l-2.984.05-2.852.02-2.634.032C317 96 317 96 315 94c.74-6.071 1.852-6.152 7.75-6.187"/><path fill="#3F60BA" d="M168 228h1q.061 3.5 0 7l-1 1c-.792 9.768-.907 20.589 2 30l.625 2.086c1.52 4.51 3.728 8.312 6.387 12.25C178 282 178 282 178 284h2l.75 2.375c1.495 3.139 2.147 3.283 5.25 4.625q1.9 1.212 3.75 2.5l1.86 1.281L193 296v2l7 2-1 3c-14.184-6.818-23.747-17.758-30-32-.396-.847-.791-1.694-1.2-2.566-2.701-6.666-3.184-12.951-3.238-20.059l-.03-2.638c.084-6.32 1.375-11.785 3.468-17.737"/><path fill="#93AD7C" d="M222 106c2.125-.054 4.25-.093 6.375-.125l3.586-.07C235 106 235 106 237 108c-.375 3.625-.375 3.625-1 7l-14-1v-2l-3 2c-2.687.125-2.687.125-5 0l-1-6c3.378-.845 5.675-1.108 9 0z"/><path fill="#1C1C20" d="M364 165h1v166h-1z"/><path fill="#C35030" d="M132 151h6v23c3.682.831 7.187 1.181 10.957 1.316l3.37.127 3.486.12 3.544.13q4.322.159 8.643.307l-1 2q-6.086-.141-12.17-.317-2.07-.058-4.138-.105a880 880 0 0 1-5.958-.164l-3.618-.095c-2.976-.305-4.667-.65-7.116-2.319-2.17-3.254-2.24-4.134-2.195-7.887l.02-2.842.05-2.958.027-2.995q.036-3.66.098-7.318"/><path fill="#BFA3AC" d="M203 163h20v16h5v-16h26v1l-1.912.076q-4.263.175-8.525.362l-3.01.119-2.862.127-2.65.11c-2.034-.012-2.034-.012-3.041 1.206-1.113 6.058-1.113 6.058 0 12-2.67 2.563-3.902 2.993-7.687 3.25C221 181 221 181 220 180a185 185 0 0 1-.062-7.562L220 165l-17-1z"/><path fill="#77B89E" d="M112 87a1420 1420 0 0 1 6.813-.062l3.832-.036C126 87 126 87 129 88l2.563-.062C134 88 134 88 136 90v4c-5.05 1.036-9.874 1.103-15 1l-1-5h-2l-1 5h-5z"/><path fill="#313032" d="M85 171h1v154h-1z"/><path fill="#57AFB1" d="M216.25 122.875c2.703.123 5.114.532 7.75 1.125 3.981.838 7.97 1.447 12 2v7h-6v-2l-8 1v-6h-3l.625 1.875L220 130l-2 2c-2.625-.375-2.625-.375-5-1q-.061-3.5 0-7c1-1 1-1 3.25-1.125"/><path fill="#D5D3DA" d="m263.684 339.886 3.539.016 3.818.01 4.022.025q2.016.008 4.033.014 4.952.018 9.904.049l1 5h-31c1.242-4.968 1.242-4.968 4.684-5.114"/><path fill="#188ECE" d="M267 105h2v12c-3.207 1.603-6.692 1.13-10.213 1.114h-2.573c-2.813 0-5.627-.009-8.44-.016l-5.844-.005q-7.699-.006-15.397-.024-7.853-.014-15.705-.02-15.414-.016-30.828-.049v-6l1.188 1.438c3.259 2.809 7.368 2.687 11.525 2.691l2.761.01 2.967-.006 3.117.004q5.002.001 10.005-.012l3.413-.004c13.367-.017 26.727-.088 40.087-.558l3.43-.12c4.595.225 4.595.225 8.507-1.443.072-1.52.084-3.042.063-4.562l-.028-2.504z"/><path fill="#CFCDD4" d="M128 340h28l1 5h-30z"/><path fill="#E7E3EB" d="M294 340h28l1 5h-30z"/><path fill="#D8D5DD" d="M161 340h28l1 5h-30z"/><path fill="#20A2D9" d="m212 90 2 4h22l1-4h2l1 4-3 2q6.112.037 12.225.055 2.079.008 4.159.02c1.993.013 3.986.018 5.98.023l3.633.016c3.055.024 3.055.024 6.003-1.114l-1 3h-57z"/><path fill="#1B92CA" d="m166 122 2 1c.081 1.437.14 2.874.188 4.313l.105 2.425C168 132 168 132 166.676 133.73c-3.825 2.898-8.078 2.405-12.636 2.384h-2.454c-2.679 0-5.357-.009-8.035-.016l-5.57-.005q-7.332-.006-14.663-.024-7.48-.014-14.96-.02Q93.678 136.033 79 136v-1l2.8-.031q13.088-.147 26.174-.308 6.728-.084 13.454-.158 6.498-.072 12.994-.156 2.475-.03 4.948-.056 3.476-.037 6.95-.086c1.317-.015 2.634-.03 3.99-.047 3.64-.156 7.111-.475 10.69-1.158 1.906-2.34 2.03-4.193 2.5-7.187L164 123z"/><path fill="#24A3D7" d="M368 87h2q.253 2.156.5 4.313l.281 2.425C371 96 371 96 371 99l-89-1v-2h33l1-2 1 1c3.312.06 6.61.02 9.922-.04 3.835-.041 7.352.101 11.078 1.04v-2l2 1v1h29z"/><path fill="#C1ACB9" d="M319 163c3.625-.058 7.25-.094 10.875-.125 1.033-.017 2.065-.034 3.129-.05l2.988-.02 2.761-.032C341 163 341 163 343 165l-3 1v-2l-2.957.219-3.856.281-3.832.281A98 98 0 0 1 323 165l-.516 2.3-.734 3.012-.703 2.989c-1.227 3.163-2.072 4.114-5.047 5.699-5.456 1.438-11.145 1.148-16.75 1.125l-2.902.012-2.77-.004-2.518-.004C289 180 289 180 287 179l-2 9h-1v-10l2.491-.06c3.732-.095 7.464-.205 11.197-.315 1.293-.03 2.587-.062 3.92-.094l3.779-.117 3.475-.095c3.127-.318 5.372-.835 8.138-2.319 1.041-2.856 1.041-2.856 1.313-6.125l.425-3.32z"/><path fill="#46C7E5" d="m181 84 88 1v2c-4.444 1.13-8.733 1.062-13.279.93l-2.485-.059c-2.7-.065-5.4-.138-8.1-.21q-2.813-.072-5.628-.14-7.395-.183-14.79-.38-7.552-.194-15.103-.381Q194.807 86.389 180 86z"/><path fill="#CA5230" d="M223 151h5v28h-5z"/><path fill="#3C3A44" d="m192 343 1 2 62 1v2h-64z"/><path fill="#E3BEC0" d="m213 237 2 1c.414 2.285.414 2.285.625 5.063l.227 2.785L216 248l2-1c.687-2.118.687-2.118 1.125-4.562l.508-2.504L220 238h3c-1.023 7.983-4.026 15.27-7.133 22.64-.896 2.44-1.423 4.803-1.867 7.36l-4-2v-3l-2-1 5 1v-11l-5-1v-2l5-1z"/><path fill="#D2A7A2" d="M138 163h9v1l-7 1 1 3c2.813 1.083 5.43 1.089 8.414.992l2.544-.056 2.667-.061c7.234-.099 13.645.15 20.375 3.125 1.394 5.97.887 11.81.563 17.875l-.159 3.242Q175.21 197.06 175 201h-1l-.076-2.048q-.176-4.601-.362-9.202l-.119-3.223-.127-3.105-.11-2.857c-.19-2.354-.352-4.362-1.206-6.565-3.429-1.143-6.24-1.21-9.855-1.316l-2.005-.063q-3.164-.097-6.327-.184l-4.295-.13q-5.259-.16-10.518-.307c-1.478-2.957-1.06-5.742-1-9"/><path fill="#239BCF" d="m286 132 1 2 30 1-1-3q4.094-.04 8.188-.062l2.33-.026 2.275-.01 2.079-.016c2.128.114 2.128.114 4.427.618 3.419.628 6.644.571 10.119.523l4.299-.037q3.368-.037 6.735-.086c2.176-.03 4.352-.048 6.528-.064l3.935-.051C370 133 370 133 372 135c-22.956.55-45.911 1.099-68.875 1.125l-2.326.008q-3.207.007-6.416 0l-3.613-.004C288 136 288 136 286 135z"/><path fill="#BEC0E0" d="M254 302c-.266 1.902-.266 1.902-1 4-2.746 1.606-5.936 2.195-9 3l-2.89.852c-9.106 2.448-17.769 2.45-27.11 2.148v-3l-3-1c2.71-1.355 4.047-.613 7 0 13.257.974 24.014-6 36-6"/><path fill="#BDC3E4" d="m285 234 2 1c.088 4.333.14 8.666.188 13l.076 3.7c.056 6.907-.362 12.023-3.264 18.3-.51 1.58-1.013 3.163-1.5 4.75-1.072 3.277-2.298 5.57-4.5 8.25l-1 2.563c-1.035 2.521-1.76 3.886-4 5.437-2.102-.43-2.102-.43-4-1l1.355-1.617C277.18 279.972 281.284 271.46 284 261l.53-1.8c.554-2.595.582-4.969.568-7.622l-.01-3.105-.026-3.223-.013-3.27q-.018-3.99-.049-7.98"/><path fill="#1667C2" d="M372 117c-2.56 2.56-4.218 2.236-7.707 2.249l-2.415-.022h-2.542c-2.782 0-5.563-.016-8.344-.032l-5.776-.008c-5.073-.008-10.146-.028-15.22-.05-5.174-.02-10.349-.03-15.523-.04-10.158-.02-20.315-.055-30.473-.097v-1l2.295-.031q10.851-.15 21.702-.308 5.576-.083 11.15-.158 6.45-.088 12.9-.187c.699-.01 1.398-.02 2.118-.032 9.367-.146 18.717-.41 28.065-1.045 3.443-.218 6.48-.399 9.77.761"/><path fill="#1580CB" d="m167 98-1 3-3.01-.007q-14.038-.03-28.075-.045-7.216-.007-14.434-.023-6.963-.016-13.927-.02-2.658-.003-5.315-.01-3.72-.01-7.441-.009l-2.223-.01c-2.762.005-5.217.016-7.875.819L82 102c-1.75-1.437-1.75-1.437-3-3a163869 163869 0 0 1 43.272-.573l18.305-.242c8.808-.118 17.614-.223 26.423-.185"/><path fill="#DB572A" d="M316 152h1q.08 4.375.125 8.75l.05 2.5.02 2.422.032 2.222c-.279 2.586-.676 3.996-2.227 6.106-4.074 1.836-7.623 2.241-12.055 2.195l-3.36-.02-3.46-.05-3.531-.027q-4.298-.036-8.594-.098v-1l11-1v-1h18v-2h2l-.035-3.902q-.015-2.518-.027-5.036l-.026-2.576-.01-2.45-.016-2.27C315 153 315 153 316 152"/><path fill="#2DA1D2" d="m212 126 2 1v4l5-1v-4h3v6l8-1v2c2.97-.342 2.97-.342 6-1l1-2h2l-1 5c-3.25.197-6.5.381-9.75.563l-2.79.17-2.694.146-2.476.143c-2.335-.022-4.106-.191-6.29-1.022-2.29-3.435-2.178-4.985-2-9"/><path fill="#1574B5" d="M180 135h4v2h80v-2h5l-2 3c-2.74.302-5.255.41-7.998.388l-2.503.016c-2.74.013-5.478.005-8.218-.006q-2.847.003-5.694.01-5.972.005-11.944-.017c-5.112-.017-10.223-.007-15.334.01-3.92.012-7.841.008-11.762 0q-2.827-.004-5.655.008c-2.632.007-5.262-.004-7.894-.02l-2.377.018c-2.167-.026-2.167-.026-5.621-.407z"/><path fill="#646465" d="m323 342 1 3q6.3-.141 12.598-.317 2.14-.058 4.283-.105c2.056-.046 4.11-.104 6.166-.164l3.745-.095c2.975-.296 4.701-.76 7.208-2.319l6 10c-5.875-1.875-5.875-1.875-7-3a157 157 0 0 0-6-.5c-5.889-.389-5.889-.389-7-1.5a83 83 0 0 0-4.91-.098l-2.998.01-3.154.026-3.167.013q-3.885.018-7.771.049z"/><path fill="#ED703A" d="M252 250h4v3h-4v2q-2.934 1.256-5.875 2.5l-3.305 1.406C240 260 240 260 238 260c-.366-3.292-.322-4.586 1.75-7.25 3.965-3.084 7.331-2.852 12.25-2.75"/><path fill="#239ED7" d="M222 112v2l1.723-.07c5.203-.122 9.35.393 14.277 2.07v1h-50v-1l26-1v-1c5.75-2 5.75-2 8-2"/><path fill="#524F54" d="m93 345 2.496.965c3.882 1.147 7.553 1.444 11.567 1.598 4.39.191 8.643.424 12.937 1.437v1l-3.875.438c-2.382.268-3.97.484-6.125 1.562a68 68 0 0 1-4.57-.121l-2.715-.147-2.84-.17-2.863-.158Q93.505 351.21 90 351c.573-2.867.861-3.861 3-6"/><path fill="#DCA19E" d="M226 231h10l1 5 8 2v2l3 1c-2 1-2 1-4.383.223l-2.742-1.16-2.758-1.153L236 238v10l-5-2-1 4c-1-2-1-2 .215-5.695q.849-2.22 1.722-4.43l.881-2.285Q233.9 234.792 235 232h-9z"/><path fill="#56ACAE" d="m314 124 16 1v1h-6l1 5 5 1v1q-3.72-.171-7.437-.375c-.708-.03-1.415-.062-2.143-.094-1.812-.104-3.618-.31-5.42-.531-1-2-1-2-1-8"/><path fill="#C0ABB7" d="M109 163h23l1 9c.665 3.09.665 3.09 2.95 4.148 4.274 1.194 8.443 1.319 12.863 1.477l2.677.117c2.17.094 4.34.177 6.51.258-2 2-2 2-3.971 2.227-.786-.01-1.571-.02-2.38-.032l-2.579-.02-2.695-.05-2.719-.027A843 843 0 0 1 137 180l-1-3-3-1c-1.168-1.96-1.168-1.96-2.187-4.375l-1.043-2.398C129 167 129 167 129 164h-20z"/><path fill="#E3632E" d="M168 174c3 1 3 1 4.175 2.737.96 2.635 1.053 4.665 1.02 7.466l-.02 2.969-.05 3.078-.027 3.125A1095 1095 0 0 1 173 201h-3l-.076-1.712q-.176-3.832-.362-7.663l-.119-2.695-.127-2.578-.11-2.38c-.097-2.047-.097-2.047-1.206-3.972-.04-2-.043-4 0-6"/><path fill="#236FA3" d="M285 139h85v1h-85z"/><path fill="#2973A7" d="M182 139h85v1h-85z"/><path fill="#5DACAE" d="M110 105c8.571-.286 8.571-.286 12 2l-2 5h-2v2h-7c-1.478-2.957-1.06-5.742-1-9"/><path fill="#6FDAE8" d="M285 81h85v1h-85z"/><path fill="#6DDBE4" d="M182 81h85v1h-85z"/><path fill="#236FA1" d="M81 139h84v1H81z"/><path fill="#71DCE5" d="M81 81h84v1H81z"/><path fill="#D4ADAC" d="M257 247h1c.77 8.007.77 8.007-1.937 11.5-3.997 1.958-7.656 2.308-12.063 2.5l-1 3h-8v-12h1v10q3.876-1.434 7.75-2.875l2.21-.816c5.211-1.777 5.211-1.777 10.04-4.309.819-3.562.819-3.562 1-7"/><path fill="#269ECF" d="M118 112h2v2l1.793-.254c4.306-.555 7.963-.978 12.207.254v2h15v1q-7.421.111-14.844.165a786 786 0 0 0-5.052.061c-2.417.037-4.834.054-7.252.067-.756.015-1.511.03-2.29.047-2.122 0-2.122 0-5.562-.34l-2-3h6z"/><path fill="#120F1A" d="m212.531 147.902 2.656.005c2.771.005 5.542.018 8.313.03q2.835.008 5.672.014 6.915.017 13.828.049v1c-15.663.781-31.329 1.42-47 2l-1-2c5.892-.855 11.583-1.134 17.531-1.098"/><path fill="#5A5B5F" d="M124.063 145.75q2.322.03 4.646.055c3.764.043 7.527.112 11.291.195v1l-2.687.012q-5.005.044-10.008.14-2.152.036-4.306.044c-10.18.046-18.513.925-26.436 7.972L95 157.188l-1.625 2.042L92 161l-2 2c.537-3.86 1.462-6.107 4-9.062l1.625-1.973c8.55-7.074 17.914-6.453 28.438-6.215"/><path fill="#5C595F" d="m292 342 1 3 3 1c-5.755 2.494-11.23 2.228-17.375 2.125l-3.098-.027q-3.763-.036-7.527-.098v-3h24z"/><path fill="#E25F2F" d="m136 172 31 1v2c-4.801 1.227-9.517 1.184-14.437 1.188l-2.526.037c-4.715.01-8.659-.247-13.037-2.225z"/><path fill="#BBC0E8" d="m172 215 2 2-1.242 2.563-1.633 3.437-1.617 3.375c-3.084 7.415-3.856 14.183-4.133 22.125l-.117 2.781q-.14 3.36-.258 6.719c-2.454-3.68-2.383-6.546-2.375-10.812l-.004-2.27c.138-7.414 1.897-13.926 4.379-20.918h2l-1-3 2-1a78 78 0 0 0 2-5"/><path fill="#3ABCDF" d="M80 120h6l-1 2c1.171-.01 2.342-.02 3.548-.032 4.335-.036 8.67-.059 13.005-.078q2.817-.015 5.634-.04c2.695-.025 5.39-.036 8.086-.045l2.554-.032c2.06 0 4.118.104 6.173.227l2 2c-1.247.09-1.247.09-2.52.184l-3.293.254c-1.078.08-2.157.162-3.269.246-2.978.218-2.978.218-5.918 1.316v-2H78z"/><path fill="#302E30" d="m363 354 1 7-2 1-1-3h-14l-1-2c4.667-4.472 10.993-4.69 17-3"/><path fill="#21212C" d="m116.074 146.805 2.072.008c2.181.011 4.361.037 6.541.062q2.22.016 4.44.027 5.437.035 10.873.098v1l-10 1v3c-3.25-.11-6.5-.24-9.75-.375l-2.79-.094-2.694-.117-2.476-.095c-2.458-.342-4.148-1.093-6.29-2.319 3.725-2.484 5.63-2.232 10.074-2.195"/><path fill="#38BEE7" d="M228 103h41v1c-1.823.09-1.823.09-3.684.184l-4.753.254-2.432.119c-3.883-.152-3.883-.152-7.131 1.443-2.35.235-4.706.414-7.062.563l-3.91.253L237 107v-2h-9z"/><path fill="#6AAAA1" d="M222 106c2.125-.054 4.25-.093 6.375-.125l3.586-.07C235 106 235 106 237 108c-.375 3.625-.375 3.625-1 7l-8-1-1-6h-5z"/><path fill="#CECBD2" d="M294 340h2v2h16v2h11v1h-30z"/><path fill="#529B9E" d="M110 90h2v5l5-1 1-4h2l1 4h15l-1 4a799 799 0 0 1-6.812-.375c-1.265-.07-2.53-.14-3.833-.21C121 97 121 97 118 95v2c-2.875.188-2.875.188-6 0-2-3-2-3-2-7"/><path fill="#B3BBE1" d="M165 259c1.87 2.806 2.905 5.385 4.005 8.548 2.226 6.393 4.373 11.9 8.893 17.07C179 286 179 286 179 288l-3 1-.516-1.898-.734-2.477-.703-2.46c-1.288-2.663-2.442-2.946-5.047-4.165-.75-3.125-.75-3.125-1-6h-2c-1.63-4.791-2.206-8.056-1-13"/><path fill="#C8A6AE" d="M302 163h11c.125 6.75.125 6.75-1 9h-28v-1h21v-3h6v-4h-9z"/><path fill="#29A0CE" d="M112 132c4.833-.083 9.237.047 14 1v2H78v-1h34z"/><path fill="#3EBFE4" d="M215 122h19v2l5 2v4h-2l-1 2v-6c-1.578.03-1.578.03-3.187.063-3.17-.052-5.744-.417-8.813-1.063a99 99 0 0 0-5 0v-2z"/><path fill="#26A1D7" d="M314 108c2 4 2 4 2 6l3.625-.062c3.555-.007 6.88.363 10.375 1.062v-2l8 1c-2.582 2.582-4.517 2.92-8.106 3.114l-2.222-.016-2.422-.01-2.5-.025-2.547-.014q-3.101-.02-6.203-.049z"/><path fill="#6A676D" d="m126 342 .313 1.938L127 346l3 1-1.82-.016q-4.059-.029-8.118-.046l-2.865-.026-2.724-.01-2.524-.016c-1.954-.102-1.954-.102-2.949 1.114-1.955.125-3.916.176-5.875.188l-3.242.042C97 348 97 348 94 346c3.681-2.454 5.27-2.167 9.637-1.977l3.935.157 4.115.195q2.076.087 4.15.172 5.083.213 10.163.453z"/><path fill="#479BA9" d="m212 90 2 4h22l1-4h2l1 4c-2.615 2.568-3.945 2.996-7.672 3.293q-2.04-.03-4.078-.106l-2.113-.04A395 395 0 0 1 221 97v-2l-9 2z"/><path fill="#26A3D8" d="m118 95 3 1c2.226.225 4.456.408 6.688.563l3.574.253L134 97v1H78c4.221-2.11 6.125-2.246 10.742-2.23l3.98.005 2.068.02c2.071.017 4.142.02 6.214.02 5.792.025 11.293.095 16.996 1.185z"/><path fill="#37C0E9" d="M186 103h27c-3 3-3 3-6.766 3.363q-2.243-.003-4.484-.05l-2.238.01c-4.852-.048-8.908-.794-13.512-2.323z"/><path fill="#B6AEC0" d="M203 163h19l1 18-3-1v-15l-17-1z"/><path fill="#D1673E" d="m256 250 1 4c-6.186 3.85-13.574 8-21 8v-8l4-1-2 7 2.555-1.094 3.32-1.406 3.305-1.406C250 255 250 255 252 255v-2h4z"/><path fill="#1A89C2" d="M268 130h1v5h-5v2h-24v-1l1.712-.152c2.556-.232 5.11-.477 7.663-.723l2.695-.238 2.578-.254 2.38-.222c2.196-.27 2.196-.27 3.972-2.411 3.125.375 3.125.375 6 1z"/><path fill="#C8B5BF" d="M138 163h9v1l-7 1 1 3c2.876 1.114 5.606 1.096 8.66 1.027l2.654-.037q2.754-.053 5.508-.117l2.65-.033 2.415-.051C165 169 165 169 168 171q-6.168.037-12.335.055-2.1.008-4.2.02c-2.007.013-4.016.018-6.024.023l-3.665.016C139 171 139 171 138 170q-.061-3.5 0-7"/><path fill="#5A585D" d="M161 345h25l-1 3-3.625-.562c-6.488-.748-12.897-.037-19.375.562z"/><path fill="#B3B9DD" d="M254 302c-.262 1.898-.262 1.898-1 4-6.008 3.568-14.215 4.024-21 5l1-3a72 72 0 0 1 7.313-2.062C244.72 304.893 249.669 302 254 302"/><path fill="#5670C0" d="M168 228h1q.061 3.5 0 7l-1 1c-.157 1.5-.25 3.008-.316 4.516l-.127 2.793-.12 2.941-.13 2.895c-.188 4.29-.33 8.56-.307 12.855-2.859-4.289-2.33-8.018-2.312-13.062l-.05-2.74c-.004-6.525 1.167-12.064 3.362-18.198"/><path fill="#31151D" d="M313 149c2.875-.125 2.875-.125 6 0 3.158 3.158 2.625 6.626 3 11l15 1v1h-18v-11h-6z"/><path fill="#E5E3EC" d="M131 340h25v2c-3.085 1.028-4.897 1.046-8.105.879l-2.979-.147-3.103-.17-3.14-.158q-3.836-.195-7.673-.404z"/><path fill="#0D6CB5" d="m168 116-2 5h-22v-1l11-1v-2c4.386-.702 8.558-1.108 13-1"/><path fill="#471F1F" d="m226.688 149.438 2.449.308L231 150l-1 2c-.07 1.874-.084 3.75-.062 5.625l.027 3.04L230 163h-2v-12h-5v12l-2-1v-11l-2-1c3.095-1.032 4.526-.975 7.688-.562"/><path fill="#CE6C50" d="M212 252h1v11a149 149 0 0 1-18-7v-1c5.966.508 10.638 2.386 16 5z"/><path fill="#DEBBC0" d="M189 247h2v7l2.875.688c5.021 1.412 9.53 3.89 14.125 6.312-4.588 1.533-6.78.03-11-2v-2l-3.375-.375C190 256 190 256 188 254c-.187-3.062-.187-3.062 0-6z"/><path fill="#188BCC" d="M282 106h2c1.044 3.133.934 3.99 0 7 2.332 1.206 4.496 2.165 7 3v2h-8c-1.262-2.525-1.099-4.312-1.062-7.125l.027-2.758z"/><path fill="#31A1C8" d="m315 94 2 1c3.329.06 6.642.021 9.97-.04 3.82-.041 7.319.107 11.03 1.04v-2l2 1-1 3c-7.737.122-15.307-.152-23-1z"/><path fill="#232128" d="M94 336c4.657 2.643 4.657 2.643 6.563 4.625 1.735 1.66 3.102 1.972 5.437 2.375v2h-9c-2-4-2-4-2-6z"/><path fill="#395BC0" d="m202 303 1.852.402c10.627 2.051 21.355 2.244 32.148 2.598v1c-25.189 2.02-25.189 2.02-34-3z"/><path fill="#1782CB" d="m180 112 1.188 1.438c3.365 2.901 7.823 2.703 12.113 2.878l2.959.127 3.053.12 3.11.13q3.788.159 7.577.307v1h-30z"/><path fill="#9CC77E" d="M123.563 106.938 126 107c1.125 4.75 1.125 4.75 0 7h-6c-.043-2-.04-4 0-6 1-1 1-1 3.563-1.062"/><path fill="#AFB6E0" d="m208 186 24 1v1l-3.55.148c-8.624.398-17.002.935-25.45 2.852v-2l1.938-.375L207 188z"/><path fill="#BBB564" d="m334 88 5 1 1 5-6 1-2-4z"/><path fill="#E07947" d="M247 242q1.938.717 3.875 1.438l2.18.808C255 245 255 245 257 246v4l-5 2v-2h-2l1-4-4-2z"/><path fill="#ECCCC7" d="M211 237c-2.035 2.035-3.294 2.67-5.914 3.727l-2.305.937-2.406.961-2.43.984q-2.97 1.202-5.945 2.391v-3h4v-3l2.25-.375c2.697-.48 2.697-.48 4.688-1.687 2.748-1.25 5.08-1.074 8.062-.938"/><path fill="#3653B8" d="m222.25 187.938 2.258.013q2.745.02 5.492.049v2l-20 1v-2c4.09-1.15 8.032-1.11 12.25-1.062"/><path fill="#4ABAEF" d="M370 120v3h-18v-2q3.093-.254 6.188-.5l3.48-.281c2.793-.184 5.535-.261 8.332-.219"/><path fill="#D16D46" d="M211 237h2v11c-5.625 3-5.625 3-9 3v-2c4.385-3 4.385-3 7-3l-.562-3.937c-.317-2.215-.317-2.215-.438-4.063z"/><path fill="#5C9D9C" d="m212 126 2 1v4l5-1v-4h3v6l6-1v2q-3.72.04-7.437.063l-2.143.025c-1.807.009-3.614-.036-5.42-.088-1-1-1-1-1.062-4.062z"/><path fill="#34BDE7" d="M294 122c3.292-.058 6.583-.094 9.875-.125.937-.017 1.874-.034 2.84-.05l2.715-.02 2.507-.032C314 122 314 122 316 124c-3.995 1.391-7.98.958-12.125.688l-2.207-.108c-5.424-.336-5.424-.336-7.668-2.58"/><path fill="#C4B464" d="m236 89 1 5c-4.75 1.125-4.75 1.125-7 0v-5c2.49-1.245 3.41-.777 6 0"/><path fill="#C4B361" d="M214 88h4v2h2v4q-2.988.57-6 1c-1-1-1-1-1.125-3.5C213 89 213 89 214 88"/><path fill="#6F6E74" d="m323 342 1 3 31-1v2l-33 1z"/><path fill="#1A191C" d="m358 334 3 1c-1.305 3.914-2.628 6.54-6 9-3.75.25-3.75.25-7 0l1.938-.312L352 343l1-3a181 181 0 0 1 4-4z"/><path fill="#C5CD57" d="M223 107q2.514.428 5 1v6h-6c-.043-2-.04-4 0-6z"/><path fill="#CAD35F" d="M326 88c2.125.375 2.125.375 4 1l1 5-6 1c-.625-2.375-.625-2.375-1-5z"/><path fill="#B3B171" d="M135 126c.625 1.875.625 1.875 1 4l-2 2c-2.625-.375-2.625-.375-5-1l-1-4c2.463-1.231 4.28-1.072 7-1"/><path fill="#B7C2E0" d="m179 288 1.285 1.137c3.12 2.723 6.255 5.304 9.653 7.676L193 299v1h-7v-4h-2l-1-2-3-1z"/><path fill="#BAC9E4" d="M271 244h1c.349 7.63.002 13.924-3 21l-2-1 .781-5.86c.287-2.445.287-2.445.219-6.14h2z"/><path fill="#AFBCE3" d="m184 201 3 1-1.875.75c-2.583 1.52-2.86 2.572-4.125 5.25a79 79 0 0 1-7 8c.563-3.941 1.68-6.75 4-10h2v-2c1.813-1.687 1.813-1.687 4-3"/><path fill="#C9D35D" d="M121 88q2.514.428 5 1v5a88 88 0 0 1-5 1c-1-1-1-1-1.125-3.5C120 89 120 89 121 88"/><path fill="#CCD55D" d="M223 88q2.514.428 5 1v5a88 88 0 0 1-5 1c-1-1-1-1-1.125-3.5C222 89 222 89 223 88"/><path fill="#5C5A5F" d="m99.668 347.121 2.705.147 2.814.17 2.85.158q3.482.195 6.963.404v1c-7.691.752-15.272 1.137-23 1v-2c2.979-.993 4.592-1.055 7.668-.879"/><path fill="#B9C2E1" d="M265 295c-.542 3.791-1.993 5.661-5 8-2.75.25-2.75.25-5 0l-1-2a783 783 0 0 1 4.375-3l2.46-1.687C263 295 263 295 265 295"/><path fill="#D0C5D4" d="M194 257h3v2l2.563.313c3.851.77 6.878 2.05 10.437 3.687l-1 2a493 493 0 0 1-5.812-1.312l-3.27-.739c-2.87-.933-4.156-1.544-5.918-3.949z"/><path fill="#D6B8BA" d="M257 247h1c.294 3.053.415 5.955 0 9-3.185 3.748-6.189 4.552-11 5l1-2h2v-2l2.938-1.062c3.456-1.688 3.456-1.688 3.937-5.625z"/><path fill="#4461C0" d="M197 195v2l-4 1-1 6h-2v-2l-1.875 1.5C186 205 186 205 184 205v2l-2-1c10.353-11 10.353-11 15-11"/><path fill="#ED7236" d="M227 233h6l-2 9h-2v-4h-2z"/><path fill="#1C1B28" d="M141 148h13v2c-9.41 1.148-9.41 1.148-14 1z"/><path fill="#CDB152" d="M316 126h6v6h-6z"/><path fill="#37BDEA" d="M234 122h19c-3.794 1.897-4.704 2.21-8.625 2-2.297-.167-2.297-.167-4.375 0l-2 2-4-2z"/><path fill="#CAAF5E" d="m339 108-1 5-6-1v-4c2.667-1.333 4.167-.671 7 0"/><path fill="#4BBBCB" d="M315 86c7-.286 12.978-.015 19 4l-2.195-.219C323.204 88.42 323.204 88.42 315 90z"/><path fill="#515050" d="M348 348c6.552-.535 10.71-.078 16 4 .938 2.75.938 2.75 1 5l-2-1v-2h-3v-3l-12-2z"/><path fill="#DDDCE1" d="M316 340h6l1 4h-11v-2h4z"/><path fill="#D0D24F" d="M222 126h6c.043 1.666.04 3.334 0 5-1 1-1 1-3.562 1.063L222 132z"/><path fill="#D3D156" d="M324 126h6v6c-1.666.043-3.334.04-5 0-1-1-1-1-1.062-3.562z"/><path fill="#CBB259" d="M214 126h5c.625 1.875.625 1.875 1 4l-2 2c-2.625-.375-2.625-.375-5-1z"/><path fill="#D3D053" d="M120 126h6v6c-1.666.043-3.334.04-5 0-1-1-1-1-1.062-3.562z"/><path fill="#309DC4" d="M316 132c4.833-.083 9.237.047 14 1-2.622 2.622-4.35 2.642-8 3-2.875-.437-2.875-.437-5-1z"/><path fill="#D1AF4E" d="M112 126h5a88 88 0 0 1 1 5c-1 1-1 1-3.562 1.063L112 132z"/><path fill="#2CB3E2" d="m267 120 2 3-3.187-.062c-3.605-.059-3.605-.059-6.25.562-3.559.694-6.94.561-10.563.5 5.185-2.798 12.078-4.897 18-4"/><path fill="#ADB4DD" d="M193 300c5.449 1.72 10.712 3.847 16 6-1.875 1.063-1.875 1.063-4 2l-2-1v-2l-3.25-.375c-3.129-.521-5.085-1.026-7.75-2.625z"/><path fill="#CAB1C3" d="M284 178h11l-1 2-7-1-2 9h-1z"/><path fill="#CEBCC8" d="M297 170v1c-1.32.09-1.32.09-2.668.184l-3.52.254-3.48.246c-2.848.27-5.544.691-8.332 1.316l1-3c11.522-2.665 11.522-2.665 17 0"/><path fill="#4F959A" d="M118 128h2l1 3 5 1 2-4 2 3c2.05 1.192 2.05 1.192 4 2-2.27.054-4.542.093-6.812.125l-3.833.07C120 133 120 133 117 131z"/><path fill="#D5AF53" d="M230 126h6v6l-5-1z"/><path fill="#58B5BB" d="M231 122h3v2l5 2v4h-2l-1 2v-6h-6z"/><path fill="#CDCC52" d="M324 108h6v6l-5-1z"/><path fill="#1775BB" d="M345 99h26l-3 3-3-1a95 95 0 0 0-4.668-.316l-2.705-.127-2.815-.12-2.85-.13q-3.48-.159-6.962-.307z"/><path fill="#CCB057" d="m134 90 1 4c-2.375.625-2.375.625-5 1l-2-2v-3c2.49-1.245 3.41-.777 6 0"/><path fill="#CFB057" d="M113 89q2.514.428 5 1l-1 5h-5a100 100 0 0 1 0-5z"/><path fill="#CEB255" d="M333 126h5l1 5a88 88 0 0 1-5 1c-1-1-1-1-1.062-3.562z"/><path fill="#C9AE53" d="M230 108a100 100 0 0 1 5 0c1 1 1 1 1.063 3.563L236 114l-5-1z"/><path fill="#35AED0" d="M368 105h4v11h-3c-.125-7.75-.125-7.75 1-10z"/><path fill="#EACFD1" d="M236 229v2l-2.117.113-2.758.2-2.742.175c-2.745.3-2.745.3-4.383 3.512v-5c4.412-1.47 7.483-2.369 12-1"/><path fill="#1A90CF" d="M168 108v8l-5 1-1-2h2l-.187-2.375L164 110c3-2 3-2 4-2"/><path fill="#D7B358" d="m118 108-1 5h-5v-5c2.49-1.245 3.41-.777 6 0"/><path fill="#409AB9" d="M126 94h10l-1 4-14-1v-1h5z"/><path fill="#5065B8" d="M184 270c4.766 4.575 9.333 9.499 13 15-2.968-.34-3.973-.973-6.105-3.145l-2.083-2.668-2.105-2.644c-1.547-2.305-2.284-3.837-2.707-6.543"/><path fill="#37BCE2" d="m128 122 19 1v1q-3.061.294-6.125.563l-3.445.316c-3.319.117-6.186-.213-9.43-.879z"/><path fill="#1983BF" d="M372 117c-2 2-2 2-4.247 2.135l-2.76-.158-2.99-.157-3.128-.195-3.152-.172Q351.86 118.24 348 118v-1c3.25-.197 6.5-.381 9.75-.562l2.79-.17 2.694-.147 2.476-.143c2.269.022 4.123.376 6.29 1.022"/><path fill="#41B0C7" d="M231 105c3.947-.18 6.598-.094 10 2l-3 7h-2v-6l-5-1z"/><path fill="#CE7353" d="m215 261 2 4 6-1-1 4h-8z"/><path fill="#C7C5DF" d="M228 184h4v3h-18c2-2 2-2 4.82-2.195l3.305.07 3.32.055L228 185z"/><path fill="#D9B24F" d="M316 108h6l-1 5h-5z"/><path fill="#47BAC7" d="m134 105-4 1v2c-3.623 1.208-4.641.543-8-1v-2c4.553-2.483 7.225-1.685 12 0"/><path fill="#DB7C5B" d="M221 244c1.597 3.194.723 5.553 0 9-1.183 2.755-2.539 5.383-4 8-1.056-3.182-.975-4.857.313-7.937l.851-2.09L219 249l1.188-3z"/><path fill="#D5B456" d="M129 108h6l-1 5-5-1z"/><path fill="#191824" d="M308.188 147.938 312 148v2c-3.473 1.158-6.36 1.069-10 1l-1-2c2.75-.917 4.36-1.109 7.188-1.062"/><path fill="#5B9694" d="M322 109h2l.75 1.875c1.26 2.584 1.26 2.584 5.25 4.125l-14-1v-1l5-1z"/><path fill="#D3AE49" d="m317 90 5 1v3l-6 1z"/><path fill="#5068BE" d="M237 293v2c-5.869 1.148-11.089.773-17 0v-1q3.406-.251 6.813-.5l3.832-.281A98 98 0 0 1 237 293"/><path fill="#E9C6CA" d="M220 238h3c-.543 4.565-1.795 7.973-4 12-1.099-3.297-.871-4.405-.062-7.687l.59-2.45z"/><path fill="#BECAED" d="M187 222c1.245 2.49.777 3.41 0 6h-2v4h-2l-1 3-1-2c1.215-2.602 1.215-2.602 2.938-5.625l1.714-3.04z"/><path fill="#CE4E27" d="m133 152 4 1v7h-2c-2.152-3.228-2.2-4.284-2-8"/><path fill="#4267BE" d="m267 223 .875 1.938c.953 2.214.953 2.214 3.125 3.062v7c-2-1-2-1-2.852-3.285l-.773-2.778c-.26-.919-.52-1.838-.79-2.785L266 224z"/><path fill="#49BACF" d="m333 103 1 2h4v2c-8.571.286-8.571.286-12-2z"/><path fill="#5EBCB9" d="M112 87h10l-2 3c-1.945.293-1.945.293-4.125.188L112 90z"/><path fill="#32303A" d="M160 357v1c-5.285 1.674-5.285 1.674-8 2-2.5-1.375-2.5-1.375-4-3 4.302-1.434 7.609-.78 12 0"/><path fill="#DF6B37" d="m193 248 .125 1.875L194 252c2.996 1.305 2.996 1.305 6 2v1h-7c-1.044-3.133-.934-3.99 0-7"/><path fill="#D96637" d="M230 242c1.136 3.41.867 4.003-.437 7.188l-.872 2.167L228 253h-1c-1.352-5.408-1.352-5.408.375-8.312A199 199 0 0 1 230 242"/><path fill="#DA8360" d="M225 232c2 3 2 3 1.875 4.938C226 239 226 239 222 243z"/><path fill="#2DB8DD" d="M208 123h6c-.75 1.938-.75 1.938-2 4-2.125.75-2.125.75-4 1z"/><path fill="#DAD543" d="m123 108 3 1v4h-5v-4z"/><path fill="#2CA0D0" d="M221 95v2l3 1h-12l1-2c2.699-.574 5.238-1 8-1"/><path fill="#3FB5CE" d="M126 87h11v7l-.937-1.937c-.898-2-.898-2-2.063-3.063q-3.5-.061-7 0z"/><path fill="#6F6D73" d="M96 344c2.602.023 2.602.023 5.625.375l3.04.336L107 345v1c-1.6.39-3.206.762-4.812 1.125l-2.708.633C97 348 97 348 94 346z"/><path fill="#272628" d="m88 328 4 1v5l-3 1z"/><path fill="#E0B6BC" d="M235 242v6l-4-2-1 4-1-2c3.073-6 3.073-6 6-6"/><path fill="#E9C3B7" d="m237 237 8 1v2l3 1-2 1c-2.164-.777-2.164-.777-4.625-1.937l-2.477-1.153L237 238z"/><path fill="#5672C2" d="M248 207c4.671 1.557 8.087 4.084 12 7l-2 2a1716 1716 0 0 1-3.312-2.812l-1.864-1.583A88 88 0 0 1 248 207"/><path fill="#C6CDE5" d="M240 205c3.344.557 6.033 1.352 9 3-3.325 1.108-5.622.845-9 0z"/><path fill="#1B1829" d="M206 149c-2 2-2 2-3.945 2.195L196 151l-1-2c7.625-1.125 7.625-1.125 11 0"/><path fill="#3498B8" d="M118 112h2v2h6v1c-5.021.78-8.977 1.13-14 0v-1h6z"/><path fill="#345DC8" d="M220 295h10l-1 2c-2.927.95-4.428 1.232-7.312.063L220 296z"/><path fill="#1E7FBA" d="m167 132 1 3c-3.204 2.136-4.02 2.231-7.687 2.125l-2.45-.055L156 137v-1l1.898-.367 2.477-.508 2.46-.492c2.352-.5 2.352-.5 4.165-2.633"/><path fill="#B1B9E3" d="m172 215 2 2-4 9-2-4 2-2c.707-1.65 1.38-3.316 2-5"/><path fill="#365ABF" d="M208 191v2c-2.906 1.257-4.796 2-8 2v-2c3.088-1.765 4.233-2 8-2"/><path fill="#D7AD48" d="M128 127h5v4l-5-1z"/><path fill="#1F95D1" d="m166 122 2 2c-2.75 5.875-2.75 5.875-5 7 .586-6.152.586-6.152 1-8z"/><path fill="#2D9DC3" d="m330 113 8 1c-2.565 2.565-4.477 2.54-8 3z"/><path fill="#3B95AE" d="M222 112v2h6v1h-14v-1c5.75-2 5.75-2 8-2"/><path fill="#DCAF47" d="M214 109h5l-1 4h-4z"/><path fill="#4EB7C3" d="m221 104 1 4-8-1v-2c4.75-1 4.75-1 7-1"/><path fill="#2EB4E5" d="m284 102 2.188.438L289 103l5 1v1h-10z"/><path fill="#616066" d="m323 342 1 3h10v1l-12 1z"/><path fill="#D6C8D6" d="M276 203c3.375-.125 3.375-.125 7 0l2 2c-2.25.688-2.25.688-5 1-2.312-1.437-2.312-1.437-4-3"/><path fill="#54C0E8" d="M365 120h5v3h-6z"/><path fill="#35A1C4" d="M314 108c2 3.75 2 3.75 2 6h5c-2.647 1.46-3.894 2-7 2z"/><path fill="#4AB7C6" d="m316 105 10 1-2 3-3-1v-2l-5 1z"/><path fill="#51C7E9" d="m371 103.438 1 1.562c-7.429.286-7.429.286-11-2 7.508-1.354 7.508-1.354 10 .438"/><path fill="#1EABDB" d="M183 90c1 3 1 3 1 6l-4 1v-6z"/><path fill="#AEB8E3" d="M284 261h1c.25 7.625.25 7.625-2 11l-2-1z"/><path fill="#C3C7EA" d="M207 206c0 2 0 2-1.875 4.125C203 212 203 212 201 212l-1-3c4.75-3 4.75-3 7-3"/><path fill="#C2BFCF" d="m108 164 3 1a105 105 0 0 1-4 5h-2c.573-2.867.861-3.861 3-6"/><path fill="#4D4D52" d="m93 155 3 1-5 7-1-4c1.438-2.25 1.438-2.25 3-4"/><path fill="#156EA9" d="M264 135h5l-2 3c-1.945.293-1.945.293-4.125.188L259 138v-1h5z"/><path fill="#38A0DF" d="m267 120 2 3-10-1c3.208-2.139 4.277-2.477 8-2"/><path fill="#2391C7" d="m78 114 1 2h7v2c-2.875.625-2.875.625-6 1l-2-2z"/><path fill="#1272BA" d="M79 99h9c-1.687 1.625-1.687 1.625-4 3-2.75-.812-2.75-.812-5-2z"/><path fill="#1B92CD" d="M270 103h1v15h-1z"/><path fill="#1D88C2" d="M270 122h1v14h-1z"/><path fill="#2A84B9" d="M178 122h1v14h-1z"/><path fill="#27ABD9" d="M270 85h1v14h-1z"/><path fill="#39A2CE" d="M178 85h1v14h-1z"/><path fill="#49AAC4" d="M373 104h1v13h-1z"/><path fill="#248BC4" d="M178 104h1v13h-1z"/><path fill="#4CA5C4" d="M76 104h1v13h-1z"/><path fill="#49A8C3" d="M373 123h1v12h-1z"/><path fill="#317FB1" d="M280 123h1v12h-1z"/><path fill="#4AA5C1" d="M76 123h1v12h-1z"/><path fill="#3180A9" d="M169 123h1v12h-1z"/><path fill="#3789B7" d="M169 104h1v12h-1z"/><path fill="#48AAC6" d="M373 86h1v12h-1z"/><path fill="#4EA7C4" d="M76 86h1v12h-1z"/><path fill="#48A1C8" d="M280 86h1v12h-1z"/><path fill="#469FC4" d="M169 86h1v12h-1z"/><path fill="#2F84B7" d="M280 105h1v11h-1z"/><path fill="#282828" d="M86 327h1v5h-1z"/><path fill="#3A393A" d="m86 165 1 4Z"/><path fill="#635F5E" d="m344 145 3 1Z"/><path fill="#5C5C5C" d="m104 145 3 1Z"/><path fill="#1A1912" d="m359 366 2 1Z"/><path fill="#2E2E2A" d="m91 366 2 1Z"/><path fill="#717171" d="m360 345 2 1Z"/><path fill="#504F52" d="m93 343 2 1Z"/><path fill="#5E5E62" d="m98 148 2 1Z"/><path fill="#5A5A5C" d="m349 147 2 1Z"/><path fill="#5A595C" d="m100 147 2 1Z"/><path fill="#646464" d="m347 146 2 1Z"/><path fill="#5F5F61" d="m102 146 2 1Z"/></svg>