<svg xmlns="http://www.w3.org/2000/svg" width="260" height="256"><path fill="#7517B9" d="M159.188 33.688c11.085 9.295 16.88 22.08 18.481 36.31 1.18 13.84-2.766 27.245-11.735 37.912-10.886 11.765-23.403 18.04-39.461 19.055-15.777.16-28.27-5.429-39.735-16.063-9.499-9.97-14.576-22.791-14.797-36.55.793-15.558 5.988-28.344 17.422-39.13 20.54-17.314 48.53-17.466 69.825-1.535m-52.844 13.71c-3.797 3.815-5.35 7.233-5.578 12.606 1.145 14.64 7.096 33.413 17.984 43.559 4.975 3.178 9.439 3.2 15.25 2.437 13.015-4.759 19.99-12.595 26.938-24.25 2.188-7.723 2.386-15.861-1-23.25C155.072 50.218 147.915 46.159 139 43c-10.85-2.685-23.6-3.248-32.656 4.398"/><path fill="#6F14B7" d="M212.406 126.973c12.078 9.44 20.19 21.652 22.594 37.027 1.426 16.183-3.424 30.275-13.762 42.676-3.657 3.798-7.736 6.613-12.238 9.324l-1.957 1.21c-11.773 6.594-25.808 7.417-38.668 4.165-13.75-4.013-24.486-12.19-31.871-24.492-2.331-4.468-4.051-9.063-5.504-13.883l-.582-1.82c-2.666-13.904.223-28.03 7.898-39.84 8.706-12.099 19.536-19.378 34.07-22.922 14.18-2.268 28.15.298 40.02 8.555m-47.281 16.84c-6.736 10.103-4.256 21.745-2.043 33.015 1.853 8.774 4.02 17.868 10.98 23.984 5.394 3.306 11.742 2.932 17.723 1.54 10.952-3.605 20.402-11.373 26.38-21.282 3.01-6.78 2.997-15.302.773-22.32-4.438-9.902-13.363-15.672-23.125-19.625-9.683-2.894-23.394-3.299-30.688 4.688"/><path fill="#7014B8" d="M99.625 126.246c12.088 8.927 20.1 19.903 23.375 34.754 1.563 17.733-2.25 31.84-13.687 45.688-8.83 9.5-21.46 15.672-34.442 16.515-15.436.21-29.838-3.81-41.39-14.621-9.96-10.643-15.379-23.68-15.794-38.332.558-12.611 4.914-24.758 13.313-34.25l1.809-2.055c17.29-18.439 45.613-21.614 66.816-7.699M51 145c-4.873 8.681-3.191 17.758-.75 26.938l.694 2.663c2.766 10.378 5.684 20.966 14.931 27.399 8.081 2.586 14.661.498 22.125-3 9.11-4.952 16.876-12.904 20-23 .996-9.171.71-17.396-5-25-7.258-8.017-16.532-12.496-27.3-13.223-9.03-.223-18.211.162-24.7 7.223"/><path fill="#9422C6" d="M215 129c10.795 8.874 17.828 21.107 20 35 .776 8.804-.45 16.574-3 25h-1c-.196-4.711.299-8.47 1.555-13 .679-3.05.575-5.887.445-9l-.367 2.379c-1.906 11.948-1.906 11.948-3.633 16.621l-3 2-3-1-2 2-3-1 2-8-3 3 1-3.25c2.024-8.214 2.283-17.242-2-24.75-5.604-8.674-15.14-13.652-25-16-3.37-.319-6.682-.29-10.062-.187l-2.624.04c-2.105.035-4.21.09-6.314.147 3.457-3.457 8.423-2.654 13.125-2.875l3.094-.219c7.785-.38 12.86.91 18.922 5.832 2.592 1.76 4.517 1.56 7.609 1.45l2.984-.083L220 143v-3l-4-1v-2l-2-2-2 1v-3l-1.875-.812C208 131 208 131 206 128c-3.676-1.192-6.292-.856-10 0h-4l-1-5q-2.625-.253-5.25-.5l-2.953-.281c-2.26-.177-4.53-.219-6.797-.219l1 3q-2.123.294-4.25.563l-2.39.316c-2.36.121-2.36.121-4.52-.461L164 125c-2.773 2.219-3.869 3.606-5 7h-2l1 3-2.875-.625L152 134l-2 2-1-2c-3.029 1.044-3.899 1.811-5.437 4.688L142 142c-1.552 2.466-3.201 4.694-5 7h-2c3.285-11.334 12.644-19.917 22.766-25.535 18.941-9.074 40.481-7.56 57.234 5.535"/><path fill="#962DC6" d="M102 128c10.94 8.482 18 19.398 21 33 1.341 15.214-.779 28.433-10 41l-2 1c.506-2.169 1-4 2-6h-2l.5-3.375c.546-3.345.546-3.345.5-5.625l-3-1-1-3 3-4-1-3-4 6-1-2 .91-2.176c2.428-6.29 2.096-14.384.215-20.816C102.233 149.583 95.614 144.239 87 141c-6.145-1.865-11.602-2.253-18-2.125l-2.637.027c-2.12.024-4.242.06-6.363.098 4.186-4.186 9.83-3.22 15.375-3.25l2.867-.062c8.922-.05 8.922-.05 12.758 3.312v2l2.188-.062c6.754.15 6.754.15 9.624 2.625L104 145c.954-2.576 1.02-3.917.375-6.625-1.732-2.992-3.126-3.4-6.375-4.375l-2-1v-5l-15-2-1-3-8-1v-1H55c13.3-8.867 35.436-1.54 47 7"/><path fill="#9521C6" d="M102 128c6.916 5.362 12.278 10.996 16 19v2l-7-1 .063 2.875C111 154 111 154 110 156c-2.25.375-2.25.375-5 0-.968-1.402-1.925-2.815-2.793-4.281C97.102 144.449 87.389 140.797 79 139a78 78 0 0 0-4.547-.098l-2.558.01-2.645.025-2.691.014q-3.28.018-6.559.049c4.186-4.186 9.83-3.22 15.375-3.25l2.867-.062c8.922-.05 8.922-.05 12.758 3.312v2l2.188-.062c6.754.15 6.754.15 9.624 2.625L104 145c.954-2.576 1.02-3.917.375-6.625-1.732-2.992-3.126-3.4-6.375-4.375l-2-1v-5l-15-2-1-3-8-1v-1H55c13.3-8.867 35.436-1.54 47 7"/><path fill="#9F58C1" d="M156.809 31.996C163.8 37.401 163.8 37.401 165 41c-4.75-.875-4.75-.875-7-2v-2h-2v-4a868 868 0 0 0-6.312-1.062l-3.551-.598c-3.162-.563-3.162-.563-6.137.66v-2h-4l-1 2c-1-1-1-1-1.062-3.562L134 26c-8.112-.312-15.54-.572-23 3l-1 1c-1.666.04-3.334.043-5 0l-1 2-1.937-.562L100 31a51 51 0 0 0-2.312 2.5C96 35 96 35 94.118 35.297c-3.054 1.014-3.928 2.802-5.68 5.453-.58.861-1.158 1.722-1.754 2.61a115 115 0 0 0-3.274 5.468L82 51h-2l-1 5h-2l-2 7c-1.255-3.841-.485-5.885 1.248-9.534l1.064-2.091 1.097-2.158c7.012-13.14 18.19-20.573 31.95-25.455 16.06-4.633 32.934-1.371 46.45 8.234"/><path fill="#9F4DC7" d="M150 43c4.875 2.75 4.875 2.75 6 5l3 1a252 252 0 0 1 3 7l2 1v2l2 1c.659 22.61.659 22.61-5.5 30-2.5 2-2.5 2-5.5 3l-.937 2.375c-1.215 3-2.314 3.993-5.063 5.625h-2l-1 3c-6.49 5.408-14.02 4.37-22 4l-1-2 1.984-.008c10.05-.426 18.49-4.332 26.016-10.992 7.1-8.651 10.695-16.175 10.406-27.488-.717-6.199-2.8-10.991-7.308-15.352-3.748-2.942-7.75-5.203-12.098-7.16 3.053-.981 4.947-.981 8 0z"/><path fill="#832DBB" d="m209 125-2 1a355 355 0 0 1-4-2c-2.289-.412-2.289-.412-4.625-.562-4.18-.34-4.18-.34-6.375-1.438a215 215 0 0 0-8.125-.062l-2.285.013q-2.795.02-5.59.049l1 3q-2.123.294-4.25.563l-2.39.316c-2.36.121-2.36.121-4.52-.461L164 125c-2.773 2.219-3.869 3.606-5 7h-2l1 3-2.875-.625L152 134l-2 2-1-2c-3.029 1.044-3.899 1.811-5.437 4.688L142 142c-1.552 2.466-3.201 4.694-5 7h-2c3.285-11.334 12.644-19.917 22.766-25.535 16.143-7.733 35.779-8.49 51.234 1.535"/><path fill="#6019A1" d="m230 189 1 3c-6.415 12.69-16.555 22.95-30 28-9.932 3.036-19.784 4.295-30 2v-2l-2-1 1.772-.076q3.99-.176 7.978-.362l2.79-.119 2.694-.127 2.476-.11c2.198-.198 4.164-.633 6.29-1.206a190 190 0 0 1 4.125-.375L201 216l2-3c2.164-.512 2.164-.512 4.625-.687l2.477-.2L212 212l1-3h3l1-3h3l-1-3a91 91 0 0 1 4-4h2l.25-2.75c.842-3.65 1.929-4.884 4.75-7.25"/><path fill="#B576CE" d="M165 41c8.295 6.873 11.557 18.253 12.75 28.625.748 11.11-1.46 21.542-6.75 31.375l-2 1c1.045-3.214 2.118-6.25 3.563-9.312 2.625-6.75 2.201-14.541 2.437-21.688h-2l-1-6-3 2c-.625-1.812-.625-1.812-1-4l2-3c-.232-5.04-.232-5.04-3-9-.633-2.383-.633-2.383-1.125-5.125l-.508-2.758z"/><path fill="#AA5CCC" d="M102 128c2.427 1.924 4.71 3.91 7 6-2.78 0-5.425-.213-8.187-.5l-2.731-.281L96 133v-5l-15-2-1-3-8-1v-1H55c13.369-8.912 35.342-1.448 47 7"/><path fill="#8F5FB9" d="m60 139-1.687 1.188C53.534 143.933 50.286 146.923 49 153c-.5 6.63.553 12.55 2.25 18.938l.685 2.656c1.59 6.01 3.496 11.74 6.065 17.406a659 659 0 0 1 2 5l-3-1c-.687-2.062-.687-2.062-1-4h-3v-5h-2v-8h-2a384 384 0 0 1-1.562-5.187l-.88-2.918c-.597-3.095-.267-4.862.442-7.895q.027-2.97-.062-5.937c-.05-4.437.231-7.944 2.062-12.063l-3 1v-2h5l.375-1.937L52 140c2.709-1.354 5.01-1.065 8-1"/><path fill="#8C27B9" d="M120 24c17.616-.61 30.34 1.657 43.867 13.656C165 39 165 39 165 41c-4.75-.875-4.75-.875-7-2v-2h-2v-4a868 868 0 0 0-6.312-1.062l-3.551-.598c-3.162-.563-3.162-.563-6.137.66v-2h-4l-1 2c-1-1-1-1-1.062-3.562L134 26l-2.3.07-3.012.055-2.989.07C123 26 123 26 120 24"/><path fill="#8629BC" d="M118 153c4.203 4.203 4.132 11.544 4.25 17.25-.287 11.272-1.45 21.407-8.25 30.75l-3 2c.506-2.169 1-4 2-6h-2c.596-4.869 1.57-9.328 3-14h2v3h2c1.255-10.985 1.752-22.047 0-33"/><path fill="#7015B0" d="M104 183c.688 1.75.688 1.75 1 4-1.312 2.25-1.312 2.25-3 4h-2v4c-3.214 3-3.214 3-6 3l-2 7c-3.325 1.108-5.622.845-9 0v-1l-3.21.07q-2.083.029-4.165.055l-2.117.05c-1.837.018-3.674-.072-5.508-.175l-2-2 2.02.14c10.388.407 18.447-2.27 26.421-8.968C96 192 96 192 98 192l.75-1.687c1.466-2.713 3.28-4.949 5.25-7.313"/><path fill="#895DB5" d="M134 149c.956 3.101.975 5.42.563 8.625-.548 5.263-.68 10.465-.688 15.75l-.013 2.342c.01 3.895.183 7.48 1.138 11.283h2l.586 6.152L138 195l2 1c.625 3.063.625 3.063 1 6-3.117-2.838-4.921-5.402-6.625-9.25l-1.227-2.703c-2.409-6.392-3.536-12.407-3.523-19.234l-.004-2.21c.135-7.012 1.83-13.06 4.379-19.603"/><path fill="#7A44B3" d="M23 152h1c.083 3.898-.028 7.628-.5 11.5-.595 4.982-1.107 9.678.5 14.5q.526 3.495 1 7 .49 3.002 1 6l-2-1v-3l-4-1c-2.134-10.194-3.266-19.888 0-30 1.512-2.293 1.512-2.293 3-4"/><path fill="#B171CB" d="m209 125-2 1a355 355 0 0 1-4-2c-2.289-.412-2.289-.412-4.625-.562-4.18-.34-4.18-.34-6.375-1.438-2.678-.1-5.323-.142-8-.125l-2.33.015c-10.7-.252-10.7-.252-20.545 3.235C158 127 158 127 155.805 126.617L154 126c17.423-9.375 37.34-12.455 55-1"/><path fill="#631DA2" d="M84 46c.553 2.076 1 3.844 1 6l-3 1c-2.505 4.99-3.315 10.52-4 16l-1 1c-.498 5.5.226 9.789 2 15 .167 2.693.093 5.298 0 8l-2 1c-2.706-7.024-3.326-13.8-3.375-21.25l-.041-2.58c.038-5.454.804-9.354 3.416-14.17l2-1c.652-2.025.652-2.025 1-4h2z"/><path fill="#8C40BD" d="m52 121 2 1-8 5 1 2-2.375 1.813c-2.77 2.098-2.77 2.098-4.625 5.187l-2.062 1c-2.291.897-2.291.897-2.938 4l-3 1-1-3-3 2c3.842-8.844 12.66-14.785 21-19zm-22 21 2 1-2 1z"/><path fill="#8E64BD" d="M73 64h1l.113 3.84q.099 2.55.2 5.097l.068 2.518c.255 5.952 1.45 11 3.619 16.545l2-1 .375 2.438L81 96l2 1c.407 2.322.744 4.657 1 7h2l1 2c2.017 1.134 2.017 1.134 4 2l-1 2-2-1-1 2c-8.984-9.411-14.9-21.776-15.018-34.984.13-4.03.514-8.018 1.018-12.016"/><path fill="#9867C0" d="m158 85 1 3a149 149 0 0 1-4 5l-1 2.625c-1.187 2.818-2.397 3.83-5 5.375h-2l-1 3c-6.49 5.408-14.02 4.37-22 4l-1-2 1.984-.008C135.01 105.567 143.512 101.68 151 95c2.046-2.547 2.046-2.547 3.813-5.25l1.832-2.703z"/><path fill="#BF95D9" d="m172 140-2.812 1.688c-4.309 3.125-6.127 6.178-7.188 11.312-1.232 13.336 2.532 27.236 6 40l-2-1v-3h-2c-2.878-7.384-3.717-14.104-4-22l-.083-1.985C159.252 147.4 159.252 147.4 163 141c3.661-2.06 5.018-2.327 9-1"/><path fill="#A760C9" d="M212 145v2h2l-1 4-1.652-1.39c-7.392-6.015-15.122-10.774-24.895-10.708l-2.558.01-2.645.025-2.691.014q-3.28.018-6.559.049c2.35-2.35 2.94-2.287 6.14-2.45l2.497-.13 2.613-.107 2.566-.143c10.712-.508 17.766 2.264 26.184 8.83"/><path fill="#AA62CB" d="M124.938 37.75c1.184.015 2.369.03 3.59.047 3.227.189 6.298.602 9.472 1.203v2c1.96 1.637 1.96 1.637 4 3l-3.332-.508c-12.146-1.724-22.552-2.259-33.043 5.196L104 50l-1-4c6.625-3 6.625-3 10-3v-2c3.956-3.081 7.009-3.357 11.938-3.25"/><path fill="#8E50B2" d="m230 189 1 3c-5.284 10.453-12.334 17.644-22 24l-3 2h-3v-3l6-1v-2h3l1-3h3l1-3h3l-1-3a91 91 0 0 1 4-4h2l.25-2.75c.842-3.65 1.929-4.884 4.75-7.25"/><path fill="#831AC0" d="M172.563 79.938 175 80c.32 6.197-.578 10.705-2.875 16.438l-.816 2.177c-2.031 5.246-2.031 5.246-4.309 6.385-.18-3.947-.094-6.598 2-10h2v-3l-3-1q.21-2.47.438-4.937c.08-.917.162-1.834.246-2.778.446-3.224.584-3.267 3.879-3.347"/><path fill="#8832B2" d="m64.082 119.902 2.822.01 2.909.025 2.966.014q3.61.018 7.221.049v1l-16 1v4h-3l-1 2v-2c-6.28-.25-6.28-.25-12 2l-3-1a400 400 0 0 1 4.188-2.937l2.355-1.653c4.027-2.311 7.962-2.536 12.539-2.508"/><path fill="#5813A1" d="M64 216v3l2.633-.254 3.492-.309 3.445-.316c3.319-.117 6.186.213 9.43.879v-2h6c-2 3-2 3-4.504 3.73C73.148 222.426 65.718 222.488 55 218v-1c3.153-.7 5.727-1 9-1"/><path fill="#B387CF" d="m216 183 1 2c-3.757 4.46-7.422 8.365-12 12l-1 3h-2v2c-5.306 2.173-10.05 2.334-15.687 2.313l-2.588.048-2.487.002-2.248.01c-2.496-.468-3.389-1.458-4.99-3.373l1.875.5c9.75 1.56 18.118.284 26.574-5.043 5.223-3.875 9.474-8.41 13.551-13.457"/><path fill="#8559B3" d="m46 213 9 3v2c7.245 2.275 14.45 4.406 22.02 2.488 2.986-.736 5.92-.547 8.98-.488-7.081 4.72-17.197 3.773-25.3 2.469-6.049-1.414-11.281-3.447-16.7-6.469l2-1z"/><path fill="#AE68CB" d="m75.375 135.75 2.867-.062c8.922-.05 8.922-.05 12.758 3.312v2h5l2 5a1006 1006 0 0 1-7.535-3.035l-2.528-1.028-2.535-1.035c-3.743-1.406-6.945-2.027-10.949-2l-2.558.01-2.645.025-2.691.014q-3.28.018-6.559.049c4.186-4.186 9.83-3.22 15.375-3.25"/><path fill="#935CBB" d="m92 33 2 1-2.062 2.313c-3.262 3.867-5.785 8.165-8.387 12.492L82 51h-2l-1 5h-2l-2 7c-1.256-3.842-.485-5.886 1.25-9.535l1.063-2.09 1.074-2.145C81.875 42.627 86.306 37.854 92 33"/><path fill="#8525B5" d="M232 162h1c2.055 8.345.91 18.897-2 27-2.062 2.938-2.062 2.938-4 5l-1 2-2 1-2-3 1-3h3l.406-1.746c.574-2.177 1.285-4.217 2.094-6.316 1.852-4.824 2.729-8.93 3.063-14.125l.253-3.856z"/><path fill="#915FBD" d="M103 73c2 2.999 3.032 5.621 4.25 9 2.814 7.465 6.325 14.363 10.75 21-2.937-.75-2.937-.75-6-2-.875-2.125-.875-2.125-1-4h-2c-2.094-3.402-2.18-6.053-2-10h-2q-.506-2.373-1-4.75l-.562-2.672C103 77 103 77 103 73"/><path fill="#885EBA" d="M141 202h2l2.188 2.813c2.759 3.459 5.633 4.695 9.812 6.187 5.38 1.956 7.676 4.41 11 9-10.17-2.668-18.883-8.352-25-17z"/><path fill="#6015AB" d="M114 104c2.877.32 5.325.644 7.902 2.004 2.357 1.119 4.258 1.393 6.848 1.621l2.422.227L133 108c-1 2-1 2-3.25 3.125-2.766.88-4.87 1.04-7.75.875l-1-2-3 1v-4l-5 1c0-3 0-3 1-4"/><path fill="#A76EC8" d="m60 139-1.687 1.188C53.534 143.933 50.286 146.923 49 153c-.435 6.06.237 11.992 1 18l-2-1c-1.767-7.95-2.349-17.466 1-25l-3 1v-2h5l.375-1.937L52 140c2.709-1.354 5.01-1.065 8-1"/><path fill="#9F64C2" d="M104 183c.688 1.75.688 1.75 1 4-1.312 2.25-1.312 2.25-3 4h-2v4c-3.296 3.708-7.323 3.61-12 4 2.51-2.6 4.986-4.99 8-7h2l.75-1.687c1.466-2.713 3.28-4.949 5.25-7.313"/><path fill="#862BB1" d="M118 153c4.245 4.245 4.134 11.684 4.25 17.438-.097 5.647-1.057 11.053-2.25 16.562l-2-1 .219-1.914c1.075-10.365 1.432-20.768-.219-31.086"/><path fill="#7B4EB0" d="M94 108v3c2.59 2.94 4.254 4.751 8 6v2l1.938.313L106 120l1 3c-7.196-1.28-12.448-5.39-18-10l-1-2 3 1z"/><path fill="#7D1DB7" d="M110 173h1l1 8h-2c-1.29 2.395-2.165 4.56-2.937 7.188L106 191l-3 1a90 90 0 0 0-2 4l-2 1c.45-4.94 1.515-6.618 5-10a110 110 0 0 0 3-7q.837-1.972 1.688-3.937z"/><path fill="#6B21AC" d="M170 200c4.75 1.875 4.75 1.875 7 3 1.378.095 2.76.13 4.14.133l2.497.004 2.613-.012 2.566.012c4.508-.007 8.748-.224 13.184-1.137-3.267 3.267-6.873 3.912-11.402 4.266-12.626-.056-12.626-.056-17.598-2.266-1.937-2.125-1.937-2.125-3-4"/><path fill="#6C26A3" d="M99 52h2l-.14 2.316c-.274 8.111.924 14.698 3.265 22.371.784 2.967 1.06 5.273.875 8.313h-2c-3.384-11.226-4.522-21.291-4-33"/><path fill="#8D30B2" d="M165 41c7.31 6.925 8.788 14.3 10 24-4.403-6.605-10-15.817-10-24"/><path fill="#AF66CA" d="M147 27c4.038 1.427 7.221 3.369 10.688 5.875l2.886 2.055c2.308 1.97 3.355 3.276 4.426 6.07-4.75-.875-4.75-.875-7-2v-2h-2v-4l-8-2z"/><path fill="#7542B2" d="M33 202c2.954.317 3.959.958 6.063 3.125 2.17 3.22 3.522 6.267 4.937 9.875-4.98-1.51-8.243-4.557-12-8l1-2 2 2v-2l-2-1z"/><path fill="#951FC9" d="M186 121c5.017-.309 8.693.733 13.375 2.5l1.941.723c1.565.583 3.125 1.179 4.684 1.777-4.618 1.208-9.217 2-14 2l-1-5-5-1z"/><path fill="#B579CF" d="M219 159c3.741 4.355 3.883 8.422 4 14-.437 3.125-.437 3.125-1 5h-2l-2 5-1-2 .93-2.602c1.283-4.074 1.294-7.543 1.195-11.773l-.027-2.23c-.024-1.799-.06-3.597-.098-5.395"/><path fill="#6220A2" d="m62 202 2.477.496c4.01.574 7.855.614 11.898.566l2.23-.013q2.698-.02 5.395-.049l-1 2c-7.835 2.523-13.288 1.314-21-1z"/><path fill="#B678D1" d="M107 158c3.447 3.447 3.948 8.389 4.043 13.16-.417 5.032-2.044 7.97-5.043 11.84l-1-2 .93-2.043c1.493-4.125 1.284-7.923 1.195-12.27l-.027-2.533c-.024-2.051-.06-4.103-.098-6.154"/><path fill="#8257B1" d="M133 182c2 2 2 2 2 5h2l.586 6.152L138 195l2 1c.625 3.063.625 3.063 1 6-3.163-2.879-5.03-5.555-6.812-9.437l-1.333-2.81c-.95-3.059-.753-4.717.145-7.753"/><path fill="#A375C6" d="M161 171h2q.97 4.093 1.938 8.188l.552 2.33c.901 3.816 1.776 7.629 2.51 11.482l-2-1v-3h-2c-2.48-6.243-3.32-11.283-3-18"/><path fill="#661CA5" d="M141 142v7l-3 2c-1.182 3.388-1.182 3.388-2 7l-.625 2.438L135 162h-1a535 535 0 0 1-.062-4.25l-.036-2.39c.094-2.267.466-4.189 1.098-6.36h2l.875-2.375C139 144 139 144 141 142"/><path fill="#8722B4" d="m65.984 134.902 2.832.01 2.934.025 2.98.014q3.636.018 7.27.049l-1 2-3.184-.105c-7.915-.181-14.41-.07-21.816 3.105l1-4c3.068-.897 5.793-1.117 8.984-1.098"/><path fill="#804BB1" d="M169 219c7.126-.354 12.47.043 19 3v1q-2.844.039-5.687.063l-3.2.035c-2.837-.09-5.357-.449-8.113-1.098v-2z"/><path fill="#51159A" d="M140 197c8.508 4.937 8.508 4.937 10.563 9.375L151 209c-3.786-.54-5.554-2.117-8-5v-2h-2z"/><path fill="#B184CF" d="m148 130 2 1-2.875 2.688c-2.654 2.648-3.831 4.776-5.125 8.312-1.512 2.45-3.073 4.856-5 7h-2c1.276-4.528 2.934-7.58 5.938-11.187 1.034-1.26 1.034-1.26 2.09-2.543 1.598-1.84 3.218-3.582 4.972-5.27"/><path fill="#9C42C0" d="M150 43c2.5 1.125 2.5 1.125 5 3v6l-13-7c3.702-.925 4.635-1.082 8 0z"/><path fill="#B484D0" d="m158 85 1 3a149 149 0 0 1-4 5l-1 2.625c-1.204 2.859-2.268 3.929-5 5.375-2.25-.312-2.25-.312-4-1l2.563-1.875c4.408-3.63 7.33-8.39 10.437-13.125"/><path fill="#572099" d="M28 192c2.125 3.188 2.502 5.265 3 9h2v3l3 1-1 3c-5.692-4.194-5.692-4.194-7-8v-4h-2v-3z"/><path fill="#A054C1" d="m208.25 142.313 2.14 1.363L212 145v2h2l-1 4-1.828-1.426c-.8-.622-1.599-1.245-2.422-1.887l-2.39-1.863A453 453 0 0 0 200 141c3.601-1.338 5.09-.765 8.25 1.313"/><path fill="#AD67CA" d="M109 135c4.008 3.674 6.526 7.143 9 12v2c-1.828-.16-1.828-.16-4-1-1.484-2.434-1.484-2.434-2.75-5.437l-1.297-2.997C109 137 109 137 109 135"/><path fill="#9C1ECB" d="M98 132c3.463.315 5.586.703 8.438 2.75 1.562 2.25 1.562 2.25 1.312 5L107 142a91 91 0 0 1-4-4v-2l-5-2z"/><path fill="#8C2CB4" d="M131 40q2.843-.079 5.688-.125l3.199-.07c3.196.2 5.291.703 8.113 2.195l2 3c-4.6-.46-7.9-.884-12-3-2.325-.387-4.659-.73-7-1z"/><path fill="#9167BD" d="m21 186 3 1 1 3 2 1-1 5h2l2 7c-4.483-3.653-6.854-8.731-9-14z"/><path fill="#893ABD" d="M37.313 134.813 39 136l-3 2-1 3-3 1-1-3-3 2c1.056-2.783 2.005-4.004 4.375-5.875C35 134 35 134 37.313 134.813M30 142l2 1-2 1z"/><path fill="#8646B9" d="m154 114 3 1c-2.744 2.947-5.383 5.192-9 7l-2-1 1-1-2-1v-2c3.058-.544 5.888-1 9-1z"/><path fill="#8339AE" d="M174 84c1.007 3.1 1.008 4.817-.145 7.855l-.802 2.135-.865 2.198-.83 2.232c-2.09 5.446-2.09 5.446-4.358 6.58-.18-3.947-.094-6.598 2-10h2l.375-2.125c.663-3.052 1.597-5.928 2.625-8.875"/><path fill="#AF68C9" d="M221 136c4.47 3.96 7.709 8.446 10 14l-1 2h-2l-1.25-3.062a65 65 0 0 0-3.937-7.75C221 138 221 138 221 136"/><path fill="#9453C1" d="m160 104 7 1c-1.583 4.274-4.506 6.265-8 9 1.875-5.75 1.875-5.75 3-8h-2z"/><path fill="#BE88D4" d="M234 164h1c.386 8.854-.43 16.512-3 25h-1c-.193-4.627.24-8.293 1.488-12.8.933-4.009 1.193-8.105 1.512-12.2"/><path fill="#844AB4" d="M46 165c2 2 2 2 3 5l2 1c.594 2.649.742 5.292 1 8h-3q-.757-2.655-1.5-5.312l-.844-2.989C46 168 46 168 46 165"/><path fill="#891DC5" d="m180 121-4 1 1 3-9 1-1-3c8.429-2.286 8.429-2.286 13-2"/><path fill="#8E1CC6" d="m63 122 1 4h-3l-1 2v-2l-2.875.125C54 126 54 126 52 124c3.877-1.193 6.916-2 11-2"/><path fill="#8955B3" d="M95 213h6c-4.235 3.962-8.547 5.432-14 7 .805-1.953.805-1.953 2-4 3.125-.75 3.125-.75 6-1z"/><path fill="#A164C2" d="m230 189 1 3c-1.434 2.7-1.434 2.7-3.437 5.688l-1.997 3.011L224 203l-1-4h2l.25-2.75c.842-3.65 1.929-4.884 4.75-7.25"/><path fill="#9B4CC0" d="M98 146c4.267.474 6.246 2.883 9 6 1.313 2.313 1.313 2.313 2 4h-4c-2.062-2.75-2.062-2.75-4-6a242 242 0 0 0-3-4"/><path fill="#7B2DAA" d="M163 76h1c.474 5.684-.373 10.41-4 15-2.14.727-2.14.727-4 1l3-7h2z"/><path fill="#9547BF" d="m107 29-2 1-1 2-1.937-.562L100 31l-1 1-3 3-2-1c.932-2.33 1.69-3.759 3.688-5.312 3.288-.978 5.987-.327 9.312.312"/><path fill="#B48BD3" d="M88 199v2c-5.577 3.718-13.412 3.71-20 3l-2-2 2.09.105c5.906.17 10.617-.294 16.133-2.449C86 199 86 199 88 199"/><path fill="#5610A7" d="M133 164h1c.627 5.04 1 9.917 1 15l1 3a100 100 0 0 1 0 5c-2.327-3.49-3.126-5.037-3.098-9.133l.01-2.441.025-2.551.014-2.574q.02-3.15.049-6.301"/><path fill="#7025A0" d="M47 145h2l-.496 2.477c-.574 4.01-.614 7.855-.566 11.898l.013 2.23q.02 2.698.049 5.395c-2-2-2-2-2.243-3.955l.013-2.361.005-2.565.038-2.681.001-2.694c.046-6.604.046-6.604 1.186-7.744"/><path fill="#5D19A2" d="M161 180c2.125 3.188 2.502 5.265 3 9h2l1 7-2-1v-3h-2c-1.591-4.177-2.213-7.532-2-12"/><path fill="#9B3EC1" d="M155 48c1.875.25 1.875.25 4 1 1.313 1.875 1.313 1.875 2 4l-1 3h-3c-2.152-3.228-2.2-4.284-2-8"/><path fill="#9A1ECD" d="M134 26c3.147.7 6.026 1.76 9 3l-1 3h-2v-2h-4l-1 2c-1-1-1-1-1.062-3.562z"/><path fill="#7C4CB0" d="M157 212c4.154 1.939 6.309 4.33 9 8l-9-3z"/><path fill="#931FC4" d="M92.125 135.875 95 136l1 2-1 3h-4v-2l-4-1c2-2 2-2 5.125-2.125"/><path fill="#5B12A8" d="M75 68h1l.402 3.465.535 4.472.264 2.288c.142 3.697.142 3.697 1.799 6.775.04 2 .043 4 0 6-3.735-3.735-3.93-9.152-4.125-14.262 0-2.915.036-5.824.125-8.738"/><path fill="#7D2FAB" d="M220 178c1.34 3.045.899 4.346-.062 7.625-2.324 4.047-3.601 4.186-7.938 5.375l1.496-2.336 1.941-3.039 1.934-3.023c1.598-2.46 1.598-2.46 2.629-4.602"/><path fill="#9A6BC5" d="M134 149c1.097 3.411.942 6.207.563 9.75l-.31 2.984L134 164l-1-2h-2c.48-4.714.968-8.666 3-13"/><path fill="#6321A0" d="M23 152h1c.193 4.824-.243 8.496-2 13l-2-1q.174-2.157.375-4.312c.07-.801.14-1.602.21-2.426C21 155 21 155 23 152"/><path fill="#9F6BC4" d="M27 141c1 2 1 2 .441 4.164l-.878 2.461-.872 2.477L25 152h-2l-1 3-1-2c1.215-2.82 1.215-2.82 2.938-6.125l1.714-3.32z"/><path fill="#9839BC" d="M147 27c1.813 1.563 1.813 1.563 3 3-3.304 1.124-5.05.896-8.25-.437l-2.14-.872L138 28c3.335-2.1 5.26-2.247 9-1"/><path fill="#C79BD9" d="M170 121a483 483 0 0 1-5.75 3.063l-3.234 1.722c-3.042 1.225-4.065 1.468-7.016.215a483 483 0 0 1 5.75-3.062l3.234-1.723c3.042-1.225 4.065-1.468 7.016-.215"/><path fill="#5510A9" d="m84 99 3 1 .375 2.438L88 105l2 1v-2l2 1-1 2-5-1v-2h-2c-.562-1.937-.562-1.937-1-4z"/><path fill="#A775CB" d="m92 33 2 1-3.809 4.492C88.912 40.006 88.912 40.006 88 42a134 134 0 0 1-6 3c1.477-3.452 3.438-5.65 6.125-8.25l2.195-2.14z"/><path fill="#8150B5" d="M167 193h2c1.86 2.592 3.572 5.144 5 8l-7-2z"/><path fill="#995ABC" d="M115 192h3c-1.277 4.993-3.173 7.576-7 11 .783-3.916 2.392-7.364 4-11"/><path fill="#C091D5" d="m52 121 2 1a274 274 0 0 1-4.25 3.063l-2.39 1.722C45 128 45 128 42.702 127.684L41 127q1.903-1.224 3.813-2.437l2.144-1.372C49 122 49 122 52 121"/><path fill="#831ABB" d="m165 82 2 3c-1 3-1 3-4.062 4.688L160 91l1-5h2zm-7 9 2 1-2 1z"/><path fill="#941DC8" d="m171 58 2 2c-.187 2.5-.187 2.5-1 5l-3 2c-.687-1.687-.687-1.687-1-4 1.438-2.75 1.438-2.75 3-5"/><path fill="#BA7CD5" d="M165 41c3.827 3.424 5.723 6.007 7 11h-2c-3.4-3.503-4.55-6.158-5-11"/><path fill="#591B99" d="m170 200 2.137.898c2.866 1.103 5.708 1.94 8.676 2.727.975.26 1.951.52 2.957.79L186 205v1c-11.133-.193-11.133-.193-14.75-3.562z"/><path fill="#A85BC5" d="M231 153c3.266 4.898 3.093 8.32 3 14h-1v-5h-2c-1.125-5.625-1.125-5.625 0-9"/><path fill="#AC64C9" d="m87 140 9 1 2 5c-3.791-1.45-7.387-3.152-11-5z"/><path fill="#6D3BAB" d="M94 108v3c1.44 2.17 1.44 2.17 3 4l-1 2c-5.75-2.625-5.75-2.625-8-6l3 1z"/><path fill="#721DAE" d="m93 34 3 1-3 2-1.437 2.438C89.966 42.055 88.538 43.338 86 45c1.486-4.593 3.85-7.436 7-11"/><path fill="#8C56B7" d="M203 218c-2.737 2.737-5.26 3.162-9 4-2.437-.375-2.437-.375-4-1 1-2 1-2 2.563-2.625 3.501-.539 6.895-.434 10.437-.375"/><path fill="#AA73CA" d="M104 183c.688 1.75.688 1.75 1 4-1.434 2.642-2.321 3.767-5.187 4.75L98 192c1.527-3.436 3.6-6.12 6-9"/><path fill="#620FB3" d="M132 119h4l1 2 3 1c-3.215 1.607-6.436 1.057-10 1z"/><path fill="#650FB5" d="m76 71 4 4-2 7c-2.68-4.019-2.156-6.242-2-11"/><path fill="#BF86D7" d="M147 27c4.671 1.557 8.087 4.084 12 7-2.825 0-4.5-.34-7.125-1.25l-2.133-.703C148 31 148 31 147.258 28.89z"/><path fill="#6F21AA" d="m90 198 1 3c-1.75 2.063-1.75 2.063-4 4-2.25-.25-2.25-.25-4-1 1.375-1.5 1.375-1.5 3-3h2v-2z"/><path fill="#8933B2" d="M198 123c4.725.463 8.17 1.099 12 4v2l-4-1v-2l-2.875-.375C200 125 200 125 198 123"/><path fill="#5B1AA1" d="M55 192c4.004 3.49 5.627 5.65 6 11-3.008-2.005-4.753-3.571-6-7z"/><path fill="#661AAC" d="m144 116 3 1h-2v2l3 1-2 2c-2.625-.375-2.625-.375-5-1z"/><path fill="#5610A8" d="m96 113 1.75.563c2.457.477 3.894.194 6.25-.563l1 2h-2l-1 4v-2l-5-1z"/><path fill="#5F12AB" d="M50 179h1v8h2l-1 5-3-1 1-3c.067-1.561.085-3.125.063-4.687l-.028-2.45z"/><path fill="#852AB1" d="M219 155c2.18 1.759 2.937 2.694 3.512 5.48l.175 2.708.2 2.73L223 168h-1a479 479 0 0 1-1.5-4.25l-.844-2.39C219 159 219 159 219 155"/><path fill="#A36BC7" d="m172 140-9 6v-5c5.625-2.125 5.625-2.125 9-1"/><path fill="#5C1B9B" d="M83 217h6l-2 3c-1.945.293-1.945.293-4.125.188L79 220l2-2 2 1z"/><path fill="#7E36A8" d="m211 191 1 4a101 101 0 0 1-6 3l-2-1z"/><path fill="#9356BC" d="M111 203c-1.37 3.161-1.99 3.993-5 6l-1-4c3-2 3-2 6-2"/><path fill="#6013AA" d="M136 151h1c.24 4.087-.577 7.177-2 11h-1v-8h2z"/><path fill="#A35AC4" d="M214 151c3.875.875 3.875.875 5 2 .04 2 .043 4 0 6-2.252-2.688-3.882-4.646-5-8"/><path fill="#6A249E" d="m31 138 1 4-3 2c-1.192 2.05-1.192 2.05-2 4l-1-2c1.377-3.148 2.562-5.562 5-8"/><path fill="#7E24B0" d="M55 124h-3l-1 3-6 1c5.25-5.425 5.25-5.425 10-4"/><path fill="#7927A9" d="M169 123c-3.668 1.962-6.872 3.393-11 4 3.35-3.686 6.035-5.773 11-4"/><path fill="#6413B1" d="M106 87h1l2 10-4-2q-.061-3.5 0-7z"/><path fill="#9026BC" d="m149 31 7 2v5l-2 1-1-6-4-1z"/><path fill="#7A24A9" d="M57 136h8c-2.986 1.991-5.597 2.941-9 4z"/><path fill="#4F1491" d="m106 120 9 2v2l-8-1z"/><path fill="#600CB7" d="M120 120h6v2l2 1h-7z"/><path fill="#824FA9" d="M209 214v2c-3 2-3 2-6 2v-3c2-1 2-1 6-1"/><path fill="#4C168F" d="M144 203h2v2l1.938.313L150 206l1 3c-3.243-.56-4.93-1.413-7-4z"/><path fill="#8D29B8" d="M219 136h2c2 3 2 3 2 6h-3z"/><path fill="#971ECC" d="m207 137 3 2-3 4-2-4z"/><path fill="#BA7DD2" d="M102 129c3.265 1.804 4.89 2.834 7 6l-7-2z"/><path fill="#6220A4" d="M102 77h2l1 8h-2z"/><path fill="#BD83D4" d="m142 44 9 1-1 3c-5.75-1.75-5.75-1.75-8-4"/></svg>