<svg xmlns="http://www.w3.org/2000/svg" xml:space="preserve" width="640" height="480"><path d="M94 7399c5.523 0 10 4.59 10 10.253 0 4.529-2.862 8.371-6.833 9.728-.507.101-.687-.219-.687-.492 0-.338.012-1.442.012-2.814 0-.956-.32-1.58-.679-1.898 2.227-.254 4.567-1.121 4.567-5.059 0-1.12-.388-2.034-1.03-2.752.104-.259.447-1.302-.098-2.714 0 0-.838-.275-2.747 1.051a9.4 9.4 0 0 0-2.505-.345 9.4 9.4 0 0 0-2.503.345c-1.911-1.326-2.751-1.051-2.751-1.051-.543 1.412-.2 2.455-.097 2.714-.639.718-1.03 1.632-1.03 2.752 0 3.928 2.335 4.808 4.556 5.067-.286.256-.545.708-.635 1.371-.57.262-2.018.715-2.91-.852 0 0-.529-.985-1.533-1.057 0 0-.975-.013-.068.623 0 0 .655.315 1.11 1.5 0 0 .587 1.83 3.369 1.21.005.857.014 1.665.014 1.909 0 .271-.184.588-.683.493-3.974-1.355-6.839-5.199-6.839-9.729 0-5.663 4.478-10.253 10-10.253" style="stroke:none;stroke-width:1;stroke-dasharray:none;stroke-linecap:butt;stroke-dashoffset:0;stroke-linejoin:miter;stroke-miterlimit:4;fill:#fff;fill-rule:evenodd;opacity:1" transform="translate(-1911 -176165.97)scale(23.81)"/><path d="M0 0" style="stroke:#000;stroke-width:2;stroke-dasharray:none;stroke-linecap:butt;stroke-dashoffset:0;stroke-linejoin:miter;stroke-miterlimit:4;fill:#000;fill-rule:nonzero;opacity:1" transform="translate(258.98 72.12)"/><path stroke-linecap="round" d="m276.966 189.912.001.999q0 .998.5 1.996.5.999.999 2.496.5 1.497.5 4.991v6.489q0 2.995 1.498 9.983 1.499 6.987 2.498 11.48 1 4.492 1.998 7.986 1 3.494 1.998 5.49 1 1.997 1.999 4.492t2.498 4.493q1.498 1.996 2.997 3.493 1.499 1.498 2.998 3.494 1.498 1.997 1.498 2.995t1 2.496 1.998 2.495q.999.999 1.498 2.496.5 1.497.5 2.496t1 1.996q.998.999 1.997 1.498t1.5 1.996.998 2.496 1.999.998 1.998.5 1.998.997q1.499.5 2.998.5 1.498 0 4.995-1.498t5.995-3.494 4.496-6.988q1.999-4.99 7.494-16.47t8.992-19.467q3.497-7.986 5.995-13.476t4.496-7.487 2.498-2.995.5-2.995v-7.487q0-1.497-.5-3.494-.5-1.996-1-2.995-.499-.998-.998-.998-.5 0-1-.499-.499-.5-4.496 0-3.996.5-5.495 1.497-1.499.999-4.496 2.496t-16.486 7.487-23.48 12.977-20.982 12.479q-10.99 5.49-18.984 8.984-7.993 3.494-11.49 5.49-3.497 1.997-3.996 2.496l-.5.5" style="stroke:#000;stroke-width:1;stroke-dasharray:none;stroke-linecap:round;stroke-dashoffset:0;stroke-linejoin:round;stroke-miterlimit:10;fill:none;fill-rule:nonzero;opacity:1"/><path stroke-linecap="round" d="M322.978 207.881h-1.549q-.5 0-1 .5-.499.499-.998.499-.5 0-.5.998t-.999 2.495-1.499 1.997l-.999.998q-.5.5-.999 1.997-.5 1.497-2.498 3.993t-2.498 3.494-1.998 2.495-2.498 3.494l-1.499 2.995q-.5.998-1.498 1.997l-1.5 1.497q-.499.5-1.997 1.497-1.5.999-2.498 2.995-1 1.997-2.498 4.492t-3.497 3.494q-1.998.999-3.497 2.496l-1.998 1.996q-.5.5-1 .5t-.999.499q-.5.499-1.998 1.497-1.499.998-2.498 1.497l-2.997 1.498q-1.999.998-3.997 2.496t-2.997 1.996q-1 .5-2.998 2.496t-3.996 2.994-2.498 1.498q-.5.499-2.498 1.996-1.998 1.498-1.998 1.997t.5.998.499.998q0 .5.5.5.499 0 .999.998t1.498 1.996q1 .999 1.999 2.496t1.998 1.997q.999.499 1.499 1.497t1.498 1.497q1 .5 1 .999t.499.499h1.499q.999 0 .999.499t.5.998l.999.998q.5.5 1.498.999 1 .499 1.5.998.499.499.998.499h1q.499 0 0 0h-1q-.5 0-.5.5 0 .498-.999.498t-1.498.5q-.5.499-1.499.998t-2.498.998-2.498.499-.999.5-.5.498h-.999q-.5 0-.5.5v2.994q0 .5.5.998.5.5 1 .5t.5.499v.998q0 .5.499 1.497.5.999.999 1.498.5.499.5.998 0 .5.499.5.5 0 .5.498 0 .5.5.5.499 0 .499.499v.998q0 .499.5.998.499.5.499.998v6.988q0 .5-.5.998-.5.5-.5.999t-.499.499h-.999q-.5 0-.5.499 0 .5-.5.5h-9.991q-.5 0-.5-.5t-.499-.5-.999-.498-.5-.999v-.998q0-.499-.499-.499-.5 0-1-.5l-.998-.997q-.5-.5-1-.5-.499 0-.499-.499t-.5-.499q-.5 0-.5-.499t-.499-.998-.999-.5-.5-.498-.499-.999-1-.499h-.998q-.5 0-.5-.499 0-.5-.999-.998-1-.5-1.499-.5h-.999q-.5 0-.5-.498 0-.5-.499-.5-.5 0-.5-.499t-.5-.998q-.499-.5-.998-.5h-1q-.499 0-.499-.498 0-.5-1-.998-.998-.5-1.498-.999t-.999-.499q-.5 0-.5-.499 0-.5-.5-.998-.499-.5-1.498-.5t-.999-.499q0-.499-.5-.499t-.5-.499-.998-.499-1.499-.5l-1-.997q-.499-.5-.499-.999t-.999-.499-1.499-.499-1.498-.998q-1-.5-1-.998 0-.5-.999-1.498t-1.998-2.495-2.498-2.496-2.498-1.497-1.998-1.997-1.499-1.996-1.498-2.995q-1-2.496-1.499-3.494t-.5-1.997-.5-1.996-.499-2.496v-18.967q0-1.497.5-2.995t.5-3.993V226.35q0-1.497-.5-2.496t-.5-1.996-.5-1.997-.499-1.497q0-.5-.5-.998-.499-.5-.499-1.498t-.5-1.497q-.5-.5-.999-1.997-.5-1.497-.5-3.493v-10.482q0-1.498.5-2.995t.5-3.993.5-4.492q.499-1.997.999-2.995t1.498-2.496q1-1.497 1-1.996v-1.997q0-1.497.499-2.495.5-.999.5-2.496t.5-2.496q.499-.998.998-2.495l1-2.995q.499-1.497.999-3.494.5-1.996.5-2.496 0-.499.499-1.497l.999-1.997q.5-.998.999-3.493.5-2.496 1.499-3.993.999-1.498.999-1.997v-7.986q0-.5-1-.998-.998-.5-1.498-1.498t-1.499-1.497l-1.998-.998q-1-.5-1-.999v-.998q0-.499 1-.998 1-.5 2.498-.998 1.499-.5 5.495-1.498t8.992-1.996 11.99-1.997 14.987-.998h18.484q.5 0 1.999.499 1.498.5 2.498.5.999 0 2.497.498l2.998.999q1.499.499 2.997 1.497 1.5.998 3.497 1.497l3.997.999q1.998.499 3.997 1.497t3.497 1.497q1.498.5 3.996.999t4.496.998q1.999.499 4.496.499h19.484q2.997 0 5.495-.5 2.498-.498 3.997-.498h6.994q2.497 0 3.996-.5l2.998-.998q1.498-.499 4.496-.499h10.99q1 0 2.498-.499t2.998-.499h7.493q1.998 0 3.497-.5 1.499-.498 3.497-.498t3.997-.5q1.998-.499 3.497-.499h37.468q.999 0 1.998.5 1 .499 2.997.998 1.999.499 3.997 1.497t3.497.998 2.997.5q1.5.499 1.999.499t.999.499.5.998q0 .5.499 1.498.5.998 1.499 1.996t1.998 2.496 1.998 4.492l1.499 4.492q.5 1.497 1 3.494l.998 3.993 1 3.993q.499 1.997.999 2.995t.999 2.495 1.498 3.994 1.999 4.492q.999 1.996 1.498 3.494.5 1.497.5 3.494 0 1.996.5 3.993t1.498 3.993 1 2.994.499 3.494.5 4.992v6.987q0 1.498-1 3.494-.999 1.997-1.498 3.993l-1 3.993q-.499 1.997-.999 3.494t-.999 4.493q-.5 2.994-.999 4.492-.5 1.497-1.499 3.993t-1.998 3.993-1.998 2.495q-1 .999-1.499 3.494t-.999 4.493q-.5 1.996-2.498 4.492t-1.998 4.492-1 3.494-2.497 3.993-1.499 3.993-.999 3.494-1.499 3.494-1.498 3.993-2.498 4.991-1.999 4.492-1.498 3.993q-1 1.997-1.999 3.494t-1.998 3.494q-.999 1.997-1.998 4.492-1 2.496-1.499 2.496t-.999.998-1.499 2.496-1.498 2.495-1.5 1.997-1.498 1.997l-1 1.996q-.499.998-1.498 1.997-.999.998-1.998 2.495-1 1.498-2.498 2.995l-2.498 2.496q-.999.998-1.498 1.996-.5.998-1.5 1.997l-2.497 2.495q-1.499 1.498-2.498 2.995t-2.498 2.496-1.499 1.497q0 .5-1.998 1.498t-2.498 1.497-1.998 1.497q-1.499.999-2.997 2.496-1.5 1.497-3.497 2.496-1.999.998-2.998 1.996t-3.996 2.496l-3.997 1.996q-1 .5-2.498 1.498t-2.997 1.497-1.999.998q-.5.5-.999.5h-1.498q-1 0-1 .499t-.999 1.497-1.998 1.497q-1 .5-1.998.5-1 0-1.999.499l-1.998.998q-.999.5-3.497 1.497-2.498.999-3.996 1.997-1.5.998-5.496 2.496t-5.995 2.495q-1.998.998-3.996 1.498-1.998.499-3.497 1.996t-3.497 1.997-2.498.499-1.998.499-2.498.998l-2.998 1.498q-1.998.998-3.996 1.497t-2.998.499-2.997.5l-3.997.997q-1.998.5-2.497.5-.5 0-1.999.499l-2.997.998-2.998.998q-1.498.5-1.998.998-.5.5-2.997 1.498-2.498.998-3.997 1.497l-2.997.999q-1.5.499-3.497.499-1.999 0-3.497.499-1.5.499-2.498.499-1 0-2.498.499-1.499.5-2.498.5h-27.976q-1 0-2.498-.5t-2.997-.5h-2.498q-1 0-2.498-.498-1.499-.5-2.498-.5h-5.496q-.499 0-.998-.998-.5-.998-1.999-1.497-1.498-.5-3.497-1.997t-2.997-2.994q-1-1.498-3.497-2.995-2.498-1.497-2.997-2.995-.5-1.497-1.999-1.996-1.498-.5-1.998-.999t-1-1.497q-.499-.998-1.498-1.497t-1.998-.5q-1 0-1.998-.998-1-.998-1.999-1.497t-1.498-1.498-1-.998q-.5 0-.999-1.497-.5-1.498-.999-2.496-.5-.998-1.499-1.996-.999-.999-1.498-2.496-.5-1.497-1.499-2.995t-1.998-3.494-2.998-3.993l-3.996-3.993-2.498-2.496q-.5-.499-1-1.497-.499-.998-.499-1.996 0-.999-.5-.999t0 0 1 .999q.5.998 2.498 2.495t4.496 3.494 4.496 3.993 4.996 3.993 5.495 3.993l4.996 3.993q2.497 1.997 4.496 4.492 1.998 2.496 4.995 3.994 2.998 1.497 3.997 2.495 1 .998 2.997 2.496 1.999 1.497 3.997 2.495 1.998.999 3.497 1.997t2.997 2.496q1.5 1.497 3.997 2.994 2.498 1.498 4.496 2.496t3.997 2.496 3.497 1.996l2.997.999q1.499.499 1.998.998.5.499 1 .499t.5.499q0 .5.998.5 1 0 1.499.997.5.999 1 1.498.499.499 1.498.998.999.5 1.998 1.997 1 1.497 2.498 3.494 1.499 1.996 3.497 2.994t4.496 3.993 3.497 4.493q1 1.497 2.498 2.495t2.997 2.496l1.999 1.996q.5.5 1.498 1.997 1 1.497 1.999 2.496l1.498 1.497q.5.499.5.998 0 .5.5.5t.5.498.499.5h.999q.5 0 1 .499.499.499.499.998 0 .5-.5.5h-3.997q-.5 0-.999.498l-.999.998q-.5.5-.5.999t-.499.998-.5 1.497q0 .999 1 1.498.999.499.999.998v8.984q0 .5.5 1.498l.998 1.996q.5.999 0 .999h-3.497q-.999 0-.999.499v.998q0 .5-.5.5-.499 0-.499.498 0 .5.5.998.5.5.5.999t.499.998.5.998v.999q0 .499.5.998.499.499.499.998 0 .5.5.5h1.998q.5 0 .5.498 0 .5.499.5h.999q.5 0 1.498.499 1 .499 1.5.499.499 0 1.998.499 1.498.499 2.497.998 1 .5 1.999.5t2.498.498q1.498.5 2.497.5h6.495q.5 0 .5.499t.499.499h1q.499 0 1.498.499t2.498.499h2.498q.999 0 1.998.5.999.498 1.499.498h1.498q1 0 2.498.5 1.499.499 1.998.499h1.999q1.498 0 2.997.499t3.497.499h3.497q1.499 0 3.497.499t3.497.499 2.998.5q1.498.498 2.497.498h1.999q.999 0 1.498.5.5.499 1.5.499h1.498q.5 0 .5.499t.499.499.5.499 0 0V483.9q0-.499.5-.998.499-.499.499-.998v-2.496q0-.998.5-1.996.499-.999.998-2.995.5-1.997.5-2.496v-5.989q0-.5.5-.5t.5-.499v-5.989q0-.5-.5-.998-.5-.5-.5-.999t-.5-1.497q-.5-.998-.5-1.497t-.499-.999-.5-.998v-6.489q0-1.996.5-3.494.5-1.497 1-1.996.499-.5.499-1.997t.5-2.994.5-2.496.499-1.497.5-1.997v-11.979q0-.5-.5-.998-.5-.5-1-.5-.499 0-.499-.499v-15.972q0-1.497.5-2.495.5-.999.5-1.997v-1.497q0-.5.499-.999l.999-.998.999-.998q.5-.5 1-1.497.499-.999.499-1.498t.999-.998 1.499-.998l.999-.999q.5-.499.999-1.497.5-.998.999-1.497.5-.5 1-1.498.499-.998 1.498-1.497t1.499-1.498q.5-.998.999-.998.5 0 1.498-.998 1-.998 1.5-.998.499 0 .998-.5.5-.499.5-.998t-.5-.499h-1.998q-1.499 0-2.498 1.497t-2.997 1.997-2.998 2.496-1.998 3.494-1.499 4.492-.5 4.492-.998 3.494q-1 1.996-1 2.995v7.986q0 .998.5 1.497l1 .998.998.999q.5.499 1.499.998t1.499.998.999.5.5.998v2.495q0 1.498.499 2.995.5 1.497 1 2.496.499.998.499 1.497t.5 1.497q.499.999.499 1.997t.5 1.996.499 1.997v3.494q0 .499-.5 1.497t-.999 1.498-.5 1.497-.499 1.497-.999.5-.5.499-.999 1.497l-2.498 2.496q-1.498 1.497-1.498 2.495 0 .999-.5 1.498l-.999.998q-.5.5-.5 1.997t-.5 1.996-.499 1.997-.5 1.996-.499 1.498v1.497q0 .499 1 .998.998.5.998.998 0 .5 1 .5.999 0 1.998.998l1.499 1.497.999.998.999.999q.5.499 0 .499h-8.993q-.499 0-.499-.5 0-.498-.5-.498t-.999-.5q-.5-.499-.999-.499-.5 0-.5-.499t-.499-.499-.5-.5q0-.498-.5-.498-.499 0-.499-.5 0-.498-.5-.998l-.998-.998q-.5-.499-.5-.998 0-.5-1-.998-.998-.5-1.498-.999l-.999-.998-1.499-1.497q-.999-.999-1.498-1.997-.5-.998-.5-1.996v-3.494q0-.5.5-1.498l.999-1.996q.5-.998.999-2.496l.999-2.995q.5-1.497 1.499-3.493.999-1.997 1.998-3.494 1-1.498 2.498-5.99t2.498-6.988q.999-2.495 1.498-4.991l1-4.991q.5-2.496 1.498-5.99 1-3.494 1.999-4.991.999-1.498.999-2.995t.5-2.496.998-.998.5.998q0 .999-.5 2.496t-1.998 3.494q-1.499 1.996-3.996 5.49-2.498 3.494-2.998 4.992t-3.497 4.492l-4.996 4.991-3.497 3.494q-1.498 1.497-2.997 3.494l-2.997 3.993q-1.5 1.996-2.998 3.993t-1.998 2.496-1.499.998q-.999.499-.999.998 0 .5-.5.5h-1.498q-1 0-1.999.498-.999.5-2.497.5-1.5 0-2.498.499-1 .499-2.498.499h-3.997q-.5 0-1.498-.5-1-.498-1-.998 0-.499-.999-1.497l-1.998-1.996q-1-.999-1.499-1.997t-1.998-1.997-2.498-2.495q-1-1.498-1.499-2.496t-1.998-2.995q-1.499-1.996-1.998-4.492-.5-2.495-1.499-3.993t-1.998-3.494-1.499-3.494q-.5-1.497-.5-3.993v-3.993q0-1.497-.999-3.494-.999-1.996-2.497-4.492-1.5-2.495-2.498-3.993-1-1.497-1.5-3.494-.499-1.996-1.498-3.993t-1.499-2.495q-.5-.5-1.998-2.496-1.499-1.997-2.498-2.995t-1.998-2.496-2.498-4.492-2.997-4.991l-2.998-3.993q-1.498-1.997-3.497-3.494t-5.495-4.492-5.995-5.49-4.496-5.99-4.496-6.988-3.497-5.49q-1-1.997-1.998-3.494-1-1.498-1-3.494t-.999-3.993q-.999-1.997-1.498-4.492-.5-2.496-1.5-3.994-.998-1.497-1.997-4.492t-1.5-4.991-.998-3.494-1-3.993-1.998-3.993q-1.498-1.497-2.498-3.993-.999-2.496-1.498-4.991-.5-2.496-2.498-4.493-1.998-1.996-3.997-4.99-1.998-2.996-2.498-4.493t-1.498-3.494q-1-1.996-1.999-4.492t-1.498-3.993q-.5-1.498-.5-2.995v-8.984q0-2.496.5-2.995t1.498-2.496 2.998-4.991 3.497-4.991 1.998-3.993 1.998-4.493q1.5-2.495 1.999-4.99t.999-5.491 1.998-4.492q1.499-1.498 1.998-2.496.5-.998.5-2.496v-2.495q0-.999.5-1.997l1.498-2.995q1-1.996 1.499-3.993t1.499-3.993 3.497-4.991 4.496-4.991q1.998-1.997 4.496-3.494t4.496-2.995 2.498-2.496 1-1.497.499-.998v-.999q0-.499-.5-.499t-1.499-.998-2.497-2.995q-1.5-1.996-1.999-1.996t-.999-.5-.999-.499h-1q-.499 0-.998.5-.5.499-2.498 1.497t-3.497 2.995-4.496 3.993-4.496 3.494-3.497 2.994q-1.999 1.498-4.497 2.496t-3.497 1.997l-1.498 1.497q-.5.5-1.499.998-1 .5-1.499 1.498l-.999 1.996q-.5.998-1.998 3.494-1.499 2.496-3.497 3.494t-2.998 2.995-4.496 5.49-4.995 5.99q-1.5 2.495-3.497 4.492-1.999 1.996-3.497 3.993-1.5 1.997-2.498 3.993-1 1.997-1 3.993 0 1.997-.499 3.494-.5 1.497-.5 2.995t-.5 2.495q-.499.999-.499 3.494v12.479q0 1.996.5 3.993t.999 3.494 1 4.492 1.997 4.991q1.5 1.997 1.999 3.993.5 1.997 1.498 3.993 1 1.997 2.498 3.494t2.498 3.494 1.499 3.993q.5 1.997 1.998 4.991 1.499 2.995 1.998 4.992.5 1.996 1.5 2.994.998.999 1.498 2.995l.999 3.993q.5 1.997 1.998 3.494 1.499 1.498 1.999 4.492.5 2.995.999 3.993.5.999.999 2.995.5 1.997 1.998 3.494 1.499 1.497 2.498 3.993t1.499 3.993 1.498 3.993q1 2.496 2.498 3.993 1.499 1.498 2.498 2.995t2.498 3.993 3.497 4.492q1.998 1.997 3.497 4.492t3.497 4.493l3.497 3.493q1.499 1.498 2.997 2.496 1.5.998 1.999 2.995.5 1.996 1.998 2.995 1.499.998 1.998 1.996.5.998 1 1.498l1.498 1.497q1 .998.5.998h-1q-.499 0-1.998-.499-1.498-.499-2.997-1.497t-3.497-1.997T237 358.12l-3.996-2.995-3.997-2.995q-1.998-1.497-3.497-2.496t-3.497-2.495q-1.998-1.498-2.997-2.496l-2.498-2.496q-1.499-1.497-2.498-1.996-1-.5-2.997-2.995-1.999-2.496-2.998-3.993t-2.997-3.494-2.998-3.494-1.498-1.996-.5 0 1.499 1.996 3.996 3.494 4.496 3.993q1.999 1.997 3.497 3.993 1.5 1.997 4.996 4.992t4.996 5.49q1.499 2.496 3.497 3.993t3.996 3.494 4.497 3.494 3.996 2.995 3.497 2.495q1.998.999 3.497.999t4.496.499 7.993.499 8.493-.5 7.993-2.495 8.493-3.993q3.997-1.997 7.494-3.993 3.497-1.997 7.993-4.492t9.991-4.992q5.496-2.495 14.488-5.99 8.992-3.493 13.488-5.989t10.99-4.991q6.495-2.496 11.491-4.991 4.996-2.496 8.493-4.492 3.497-1.997 6.994-3.494t4.995-3.494q1.5-1.997 3.497-3.993l4.996-4.992 4.996-4.991 3.996-3.993 3.497-3.494q1.5-1.497 3.497-3.494l3.997-3.993 3.997-3.993q1.998-1.996 3.996-3.494 1.999-1.497 4.996-4.991t4.996-4.991q1.998-1.498 3.497-3.993t2.498-3.494 1.498-.999-.5.999q-.998.998-4.995 5.99-3.997 4.99-8.493 8.484t-8.992 6.49-7.993 5.49q-3.497 2.495-5.995 4.492t-6.495 5.49-5.994 4.991l-3.997 2.995-3.997 2.995q-1.998 1.497-2.997 2.496-1 .998-1.998 1.497-1 .5-1.499.5h-2.998q-.499 0-.499-.5v-2.496q0-1.996 1.499-4.492 1.498-2.495 3.996-5.49t6.495-8.485 9.492-12.479q5.495-6.988 12.489-15.972t11.49-14.974l7.494-9.982q2.997-3.993 4.995-5.49t2.498-3.994 1-2.496q.499 0 .499-.499v-5.989q0-1.498-.5-2.995t-.999-3.494q-.5-1.996-.5-3.993v-3.993q0-1.997.5-3.993.5-1.997 1.499-3.494t2.498-2.995 2.498-3.494 3.497-3.993q2.498-1.996 3.497-3.993t2.498-3.993 1.998-2.495.5-.999v-1.996q0-.5-1-1.498-.999-.998-2.997-1.497t-4.496-1.497q-2.498-.999-4.996-1.498l-4.996-.998q-2.498-.5-3.996-.998-1.5-.5-2.998-.5t-4.995-.499q-3.498-.499-4.996-.998t-3.997-.499h-51.955q-4.496 0-9.492.5-4.996.498-7.993 1.497-2.998.998-6.495.998t-6.994.499q-3.497.5-4.995.998-1.5.5-3.497 1.498-1.999.998-4.497 1.497t-4.496.5q-1.998 0-4.995.498-2.998.5-6.994.999-3.997.499-7.994 1.497t-6.994 1.497q-2.997.5-5.995.5h-8.492q-.5 0-1 .499-.499.499-.499 1.497v1.996q0 .999-.5 3.994t-.5 5.99v21.462q0 3.494.5 6.488t.5 4.992v15.972q0 1.996-.5 3.993t-.999 3.494-.999 3.494l-.999 3.993q-.5 1.996-1 4.991-.499 2.995-.499 4.492 0 1.498-.5 2.995-.499 1.497-.499 2.995v3.494q0 .998-.999 0l-1.499-1.498-3.497-3.494q-2.997-2.994-5.995-4.99-2.997-1.997-4.496-4.493-1.498-2.496-2.997-4.492-1.499-1.997-1.998-3.993l-1-3.993q-.5-1.997-.999-3.494-.5-1.498-.5-3.494v-6.988q0-.998 1.5-3.494 1.498-2.496 2.497-2.995 1-.499 2.498-2.495 1.499-1.997 2.498-3.993 1-1.997 3.497-3.993 2.498-1.997 3.497-3.494 1-1.498 2.997-3.494 1.999-1.997 4.497-3.993 2.497-1.997 7.493-4.992t9.992-5.49 8.492-4.492 5.496-3.993 4.496-2.995 4.496-1.497 2.498-.5.999-.499q.5-.499 1-.499h1.998q.499 0 1.498.998 1 .999 2.998 3.994t2.997 5.49 1 5.99v6.987q0 3.494-2 9.983-1.997 6.489-3.496 12.977t-4.496 17.969q-2.998 11.48-4.996 19.466t-4.496 14.974-4.996 13.477-3.497 10.98-1 7.987v10.98-1.497q0-1.997.5-3.993.5-1.997 2.498-4.991 1.999-2.995 4.996-6.988t9.992-11.48 14.987-15.473 22.48-21.962 19.983-20.963q5.496-6.988 7.494-9.983t2.997-4.991 1-2.496q0-.5.499-.5.5 0 1-.498.499-.5.998-1.498.5-.998 1.499-1.996t2.997-3.494 3.997-3.494l2.997-1.497q1-.5 1 0 0 .499 1.498 1.497 1.499.998 1.999 1.497t.999 2.496.999 4.492.5 7.487-1.5 9.983q-1.498 4.991-3.996 9.483t-4.496 7.986l-3.997 6.988q-1.998 3.494-4.496 5.99l-4.496 4.492q-1.998 1.996-2.997 3.494-1 1.497-3.497 4.492-2.498 2.995-3.497 3.993l-1.999 1.997q-.999.998-.999 1.996t-.999 2.995-2.498 2.995-2.997 2.495l-2.998 2.995q-1.498 1.497-2.997 2.496t-3.497 3.494-3.497 4.492-3.997 3.494-2.997 2.495-.5 1.498-.5.499h-7.992q-.5 0-2.998-.998-2.498-.999-4.496-2.496t-2.997-3.494q-1-1.996-2.498-4.492t-1.499-5.49 1-7.987q.998-4.99 3.496-10.481l4.996-10.981q2.498-5.49 5.995-13.477 3.497-7.986 5.495-11.979t3.997-6.489 3.996-4.492 3.497-3.993 2.998-3.494 2.498-3.494 2.997-4.99q1.998-2.996 2.498-4.493t.999-2.496q.5-.998 1.499-1.996.999-.999 1.998-2.995 1-1.997 1.499-3.494t.999-2.496l.999-1.996q.5-.998.5-1.498v-.998q0-.499-.5-1.497t-1.998-1.997l-2.998-1.996q-1.498-.998-3.996-2.496t-3.997-2.496l-2.997-1.996q-1.499-.998-3.497-1.497-1.999-.5-2.498-.5h-1q-.499 0-1.498.5-1 .499-1.998 1.996-1 1.497-2.498 4.492t-2.498 3.494q-1 .5-3.997 3.494t-4.496 4.991q-1.498 1.997-2.498 3.993l-1.998 3.993q-.999 1.997-.999 2.995 0 .999-1 3.993-.998 2.995-.998 4.492v3.994q0 2.495.999 4.99t2.498 4.992q1.498 2.496 3.497 3.993 1.998 1.498 3.497 3.494t3.497 3.993 3.996 3.494 4.996 3.494q2.997 1.996 4.996 1.996h3.497q1.498 0 3.497-.499t3.996-2.495l4.496-4.492q2.498-2.496 5.995-8.985t5.995-11.48 2.998-10.98 0-10.482-1.999-6.988-3.497-4.492-2.997-3.993-2.998-3.494-6.994-2.496-7.993-1.497-7.993-.5-11.99.999-14.987 2.495-14.987 4.493-12.49 4.99-9.99 4.493-8.493 6.489-7.494 6.988-5.495 7.486-4.496 11.98-4.996 13.476-3.997 8.984-1.498 5.49q0 2.497.5 4.992.499 2.496 2.497 4.992t2.997 4.492q1 1.996 2.998 3.494 1.998 1.497 4.496 2.994t5.495 2.995q2.998 1.498 5.995 1.997 2.998.499 7.494.998 4.496.5 8.992.5t7.993-1.997q3.497-1.997 7.494-3.993 3.996-1.997 7.493-3.994 3.497-1.996 6.994-5.49t5.995-8.984 4.996-11.48 2.997-13.976-.999-19.466-4.496-18.967l-4.996-12.478q-1.998-4.992-3.996-6.489t-2.998-3.494q-.999-1.996-3.497-3.494-2.497-1.497-4.995-1.996-2.498-.5-3.997-.5h-2.997q-1.5 0-5.995 2.496-4.496 2.496-11.99 4.992t-17.485 5.49-18.484 5.49-13.489 4.992q-4.995 2.495-6.994 4.492t-4.496 4.991-3.497 4.492-1.998 3.993q-1 2.496-1 4.992t.5 4.991q.5 2.496 2.498 4.492l3.997 3.993q1.998 1.997 4.496 3.494t5.995 3.494 6.994 2.496 5.495.499 5.495-.998 9.492-4.493 12.99-8.485q6.993-4.991 14.986-16.97 7.993-11.98 9.992-19.965 1.998-7.987 4.496-14.974 2.498-6.988 1.998-13.477t-.999-10.98-1.998-6.989-1.999-3.993-1.498-2.495-1.499-1.997l-1-1.996q-.499-.999-1.997-1.498-1.5-.499-3.497-2.495-1.999-1.997-4.497-2.496-2.497-.5-5.495-1.497-2.997-.999-4.996-2.496-1.998-1.497-3.996-1.997-1.998-.499-2.998-.998-.999-.499-1.498-.998-.5-.5-.5-.998 0-.5 1.998-.999 1.999-.499 2.498-.499t5.496-1.497q4.995-1.498 9.491-1.997 4.497-.499 7.494-.499h10.491q1.499 0 4.496 1.997 2.998 1.996 4.496 2.495 1.5.5 3.497 1.498 1.999.998 3.497 1.996 1.5.999 2.998 1.498t3.996 1.996q2.498 1.498 4.497 1.997l3.996.998q1.998.5 3.497.998 1.499.5 3.497.998 1.998.5 2.498.999t1.998.499 2.998.499q1.498.5 3.497.5h13.488q1.499 0 2.998-.5 1.498-.5 1.498-.998v-4.992q0-1.497-.999-3.493-.999-1.997-2.498-3.494-1.498-1.498-4.496-3.993-2.997-2.496-4.996-3.993-1.998-1.498-2.497-1.997-.5-.5-3.997-.998-3.497-.5-6.994-.5h-21.482q-1.998 0-3.996.999-1.998.998-3.497 2.496t-2.998 1.996q-1.498.5-3.497 1.997t-3.996 2.495l-2.998 1.498q-.999.499-1.498.998-.5.499-1 1.497t-.999.999h-.999q-.5 0 .5-.999.999-.998 2.498-1.996 1.498-.999 4.496-2.496 2.997-1.497 11.99-2.995t13.988-2.495q4.995-.999 8.492-.999h7.993q4.497 0 5.995.5 1.499.499 3.997.998t4.496.998 3.497.998 3.497 1.498 1.998 1.497v.55" style="stroke:#000;stroke-width:50;stroke-dasharray:none;stroke-linecap:round;stroke-dashoffset:0;stroke-linejoin:round;stroke-miterlimit:10;fill:none;fill-rule:nonzero;opacity:1"/><path d="M94 7399c5.523 0 10 4.59 10 10.253 0 4.529-2.862 8.371-6.833 9.728-.507.101-.687-.219-.687-.492 0-.338.012-1.442.012-2.814 0-.956-.32-1.58-.679-1.898 2.227-.254 4.567-1.121 4.567-5.059 0-1.12-.388-2.034-1.03-2.752.104-.259.447-1.302-.098-2.714 0 0-.838-.275-2.747 1.051a9.4 9.4 0 0 0-2.505-.345 9.4 9.4 0 0 0-2.503.345c-1.911-1.326-2.751-1.051-2.751-1.051-.543 1.412-.2 2.455-.097 2.714-.639.718-1.03 1.632-1.03 2.752 0 3.928 2.335 4.808 4.556 5.067-.286.256-.545.708-.635 1.371-.57.262-2.018.715-2.91-.852 0 0-.529-.985-1.533-1.057 0 0-.975-.013-.068.623 0 0 .655.315 1.11 1.5 0 0 .587 1.83 3.369 1.21.005.857.014 1.665.014 1.909 0 .271-.184.588-.683.493-3.974-1.355-6.839-5.199-6.839-9.729 0-5.663 4.478-10.253 10-10.253" style="stroke:none;stroke-width:1;stroke-dasharray:none;stroke-linecap:butt;stroke-dashoffset:0;stroke-linejoin:miter;stroke-miterlimit:4;fill:#fff;fill-rule:evenodd;opacity:1" transform="translate(-1909.2 -176164.27)scale(23.81)"/></svg>