<svg xmlns="http://www.w3.org/2000/svg" width="800" height="800" fill="none" viewBox="0 0 32 32"><path fill="#001E36" d="M2 12.133c0-3.547 0-5.32.69-6.675A6.33 6.33 0 0 1 5.458 2.69C6.813 2 8.586 2 12.133 2h7.734c3.547 0 5.32 0 6.675.69a6.33 6.33 0 0 1 2.768 2.768c.69 1.355.69 3.128.69 6.675v7.734c0 3.547 0 5.32-.69 6.675a6.33 6.33 0 0 1-2.768 2.768c-1.355.69-3.128.69-6.675.69h-7.734c-3.547 0-5.32 0-6.675-.69a6.33 6.33 0 0 1-2.768-2.768C2 25.187 2 23.414 2 19.867z"/><path fill="#31A8FF" d="M16.705 22.62h-7.4q-.188 0-.188-.212V10.175c-.014-.1.072-.188.169-.174h2.291c.076-.01.142.06.132.135v10.057h5.39q.17 0 .132.173l-.338 2.08c-.003.105-.089.173-.188.174M18.585 13.032h2.048a.26.26 0 0 1 .244.193c.15.341.168.753.169 1.122.351-.42.774-.768 1.249-1.03a3.2 3.2 0 0 1 1.67-.434c.098-.014.184.074.17.174v2.33q0 .135-.188.135c-.867-.06-2.216.15-2.846.848v6.061q0 .174-.15.174h-2.197c-.108.015-.203-.084-.187-.193V15.83c0-.882.018-1.79-.113-2.664-.02-.08.055-.155.131-.135"/></svg>