<svg xmlns="http://www.w3.org/2000/svg" width="100" height="100" fill="none"><path fill="#fff" stroke="#fff" d="M8.995 8.473h78.678V92.11H8.995z"/><path fill="#0A66C2" stroke="null" d="M85.011 85.177H70.23V62.022c0-5.52-.1-12.63-7.69-12.63-7.7 0-8.88 6.02-8.88 12.223v23.562H38.877V37.562h14.192v6.51h.2a15.59 15.59 0 0 1 14-7.69c14.982 0 17.75 9.852 17.75 22.68l-.008 26.106zM22.2 31.052a8.62 8.62 0 0 1-8.58-8.572c0-4.705 3.874-8.58 8.58-8.58s8.571 3.875 8.58 8.58c0 4.706-3.875 8.58-8.58 8.58zm7.39 54.125H14.792V37.562H29.59zM92.37.165H7.358A7.316 7.316 0 0 0 0 7.365v85.369a7.316 7.316 0 0 0 7.358 7.2h85.02a7.333 7.333 0 0 0 7.39-7.2V7.357a7.316 7.316 0 0 0-7.39-7.183z"/></svg>