<svg xmlns="http://www.w3.org/2000/svg" width="450" height="450"><path fill="#9D62E6" d="M91.412 46.87q3.285-.001 6.57-.005 8.843-.005 17.684 0c6.202.003 12.403 0 18.605 0q15.615-.004 31.229.005 17.99.007 35.98-.002 15.513-.007 31.026-.003 9.236.003 18.472-.001 8.688-.004 17.375.005 3.167 0 6.334-.002c9.763-.009 19.521.038 29.276.454l2.164.066c8.776.455 14.938 4.33 20.873 10.613 4.71 6.482 5.222 12.39 5.312 20.125l.088 2.437c.048 4.634-.489 8.076-2.373 12.329-2.45 5.571-2.688 10.707-2.777 16.734l-.09 3.043q-.105 3.665-.16 7.332l2.555-.035 3.32-.028 3.305-.035C339 120 339 120 341 121l1 8h40v-7h1l-.098 6.152c-.108 1.865-.108 1.865 1.098 2.848l-.07-1.898-.055-2.477-.07-2.46C384 122 384 122 386 120c4.136-.398 8.278-.33 12.431-.316 2.061.003 4.121-.02 6.182-.045l3.918-.002 3.612-.01L415 120c3.313 4.97 2.328 10.662 2.312 16.5l.05 3.785.001 3.621.01 3.323C417 150 417 150 415.857 151.859c-2.69 1.653-4.81 1.513-7.952 1.504l-3.62-.002-3.786-.049-3.785.01c-9.314-.055-9.314-.055-12.715-2.322-.408-2.712-.133-5.244 0-8l-15 1 5 3.5c15.954 11.69 27.873 28.924 32 48.5.187 3.625.187 3.625 0 6l3.812-.188c2.502-.123 3.73-.138 5.79 1.325 1.998 2.663 1.786 4.654 1.796 7.957l.012 3.62-.035 3.786.035 3.785-.012 3.621-.01 3.323C417 232 417 232 415.872 233.859c-2.761 1.684-5.004 1.513-8.22 1.504l-3.771-.002-3.944-.049-3.955.01c-9.715-.055-9.715-.055-11.982-2.322-.259-2.857-.259-2.857-.266-6.469l-.007-3.918.012-2.044c.011-2.061 0-4.121-.012-6.182l.007-3.918.007-3.612C384 204 384 204 386 202c3.625-.125 3.625-.125 7 0-5.104-19.85-13.868-35.912-31.565-47.04-6.13-3.614-12.64-5.905-19.435-7.96l-.938 2.437C340 152 340 152 339 153c-4.002.144-7.994.042-12 0v22l5 1a61 61 0 0 1 4.95 6.754l1.386 2.1a836 836 0 0 1 4.351 6.708q1.427 2.177 2.858 4.35c4.777 7.28 9.458 14.623 14.1 21.99l1.287 2.032c2.94 4.696 4.196 7.876 4.166 13.39l-.01 3.115-.026 3.248-.013 3.284q-.018 4.014-.049 8.029l2.012-.98c7.199-3.248 7.199-3.248 10.597-2.266L380 250l1.857 1.699c2.182 2.033 4.29 4.125 6.393 6.238l2.219 2.17 2.11 2.108 1.918 1.91c1.634 2.038 2.226 3.289 2.503 5.875-1.215 3.172-1.215 3.172-2.938 6.75-2.43 5.312-4.058 9.388-3.062 15.25 3.005 4.144 8.223 4.919 12.871 6.426 3.907 1.965 5.178 3.682 7.129 7.574 1.603 8.207 2.024 18.051-1 26-2.966 3.807-6.123 5.023-10.625 6.562-5.036 1.569-5.036 1.569-8.375 5.438-1.091 7.23 1.786 12.417 4.98 18.73 1.02 3.27 1.02 3.27-.18 5.71-2.955 4.203-6.47 7.763-10.05 11.435l-2.238 2.414c-5.54 5.666-5.54 5.666-10.219 5.883-3.063-1.09-5.862-2.271-8.73-3.797-5.17-2.453-8.063-3.045-13.563-1.375-3.085 3.209-4.175 6.958-5.563 11.125-2.222 6.66-2.222 6.66-4.437 8.875-4.118.398-8.24.329-12.376.316-2.05-.003-4.1.02-6.15.045l-3.908.002-3.595.01C312 403 312 403 310.174 401.68c-1.874-2.681-2.751-5.594-3.799-8.68-.425-1.238-.85-2.475-1.29-3.75L303 383c-7.847-1.894-12.757.234-19.766 3.652-3.264 1.36-4.782 1.786-8.234 1.348-3.679-2.581-6.713-5.88-9.875-9.063l-2.703-2.568c-6.359-6.334-6.359-6.334-6.652-11.142 1.515-3.975 3.233-7.698 5.171-11.48 1.2-3.115 1.248-5.436 1.059-8.747l-.125-2.25c-.779-2.062-.779-2.062-3.54-2.703L255 339a325 325 0 0 1-6.25-2.5l-3.14-1.281C243 334 243 334 241 332c-.227-2.89-.227-2.89-.195-6.54l.02-3.944.05-4.141q.016-2.082.027-4.164.036-5.106.098-10.211 2.344-1.193 4.691-2.379l2.64-1.338c3.19-1.533 6.432-2.796 9.759-3.998 2.746-1.847 3.519-4.342 4.91-7.285l-3.142.011q-37.872.134-75.744.196c-12.21.02-24.419.049-36.629.095q-15.965.06-31.93.074c-5.635.006-11.269.018-16.903.047q-7.96.039-15.921.03a793 793 0 0 0-5.832.024c-20.43.154-20.43.154-29.704-6.485l-2.07-2.117-2.117-2.07c-6.477-9.048-6.573-18.391-6.49-29.128l-.012-4.896q-.013-5.246.008-10.49c.02-5.537.01-11.072-.004-16.607-.027-11.75-.02-23.498-.01-35.247.011-12.69.016-25.379-.017-38.068q-.02-8.246.013-16.491c.01-3.425.002-6.85-.01-10.274a525 525 0 0 1 .014-4.744c.062-8.496-.343-15.306-4.5-22.86-2.409-9.636-1.417-20.55 3.254-29.367C39.22 53.903 44.407 50.198 51 48c2.601-.236 5.18-.42 7.787-.554l2.407-.128c10.07-.486 20.14-.458 30.218-.447"/><path fill="#AA79ED" d="M330.14 189.72c11.752.148 11.752.148 16.235 4.73 2.722 3.736 4.657 7.802 6.478 12.039 1.863 4.079 4.368 7.714 6.834 11.449 3.33 5.24 5.446 9.074 5.41 15.386l-.01 3.115-.025 3.249-.013 3.283q-.018 4.014-.049 8.029l2.012-.98c7.199-3.248 7.199-3.248 10.597-2.266L380 250l1.857 1.699c2.182 2.033 4.29 4.125 6.393 6.239l2.219 2.17 2.11 2.107 1.918 1.91c1.634 2.038 2.226 3.289 2.503 5.875-1.215 3.172-1.215 3.172-2.938 6.75-2.43 5.312-4.058 9.388-3.062 15.25 3.005 4.144 8.223 4.919 12.871 6.426 3.907 1.965 5.178 3.682 7.129 7.574 1.603 8.207 2.024 18.051-1 26-2.966 3.807-6.123 5.023-10.625 6.563-5.036 1.568-5.036 1.568-8.375 5.437-1.091 7.23 1.786 12.417 4.98 18.73 1.02 3.27 1.02 3.27-.18 5.71-2.955 4.203-6.47 7.763-10.05 11.435l-2.238 2.414c-5.54 5.666-5.54 5.666-10.219 5.883-3.063-1.09-5.862-2.271-8.73-3.797-5.17-2.453-8.063-3.045-13.563-1.375-3.085 3.209-4.175 6.958-5.563 11.125-2.222 6.66-2.222 6.66-4.437 8.875-4.118.398-8.24.329-12.376.316-2.05-.003-4.1.02-6.15.045l-3.908.002-3.595.01C312 403 312 403 310.174 401.68c-1.874-2.681-2.751-5.594-3.799-8.68-.425-1.238-.85-2.475-1.29-3.75L303 383c-7.847-1.894-12.757.234-19.766 3.652-3.264 1.36-4.782 1.786-8.234 1.348-3.679-2.581-6.713-5.88-9.875-9.062l-2.703-2.569c-6.359-6.334-6.359-6.334-6.652-11.142 1.515-3.975 3.233-7.698 5.171-11.48 1.2-3.115 1.248-5.436 1.059-8.747l-.125-2.25c-.779-2.062-.779-2.062-3.54-2.703L255 339a325 325 0 0 1-6.25-2.5l-3.14-1.281C243 334 243 334 241 332c-.227-2.89-.227-2.89-.195-6.54l.02-3.944.05-4.141q.016-2.082.027-4.164.036-5.105.098-10.211 2.345-1.2 4.695-2.39l2.641-1.345c2.48-1.178 4.945-2.124 7.539-3.015 3.776-1.604 5.025-3.267 6.687-7 .51-1.406 1.001-2.82 1.438-4.25h2l-.875-3.062-.543-1.934c-.549-1.889-1.157-3.76-1.77-5.629-.836-3.473-1.113-5.08.188-8.375 3.996-4.662 8.536-7.37 14-10l-1-7c4.264-.198 7.103.314 11 2l-.003-2.152c.012-3.263.07-6.523.128-9.785l-.008-3.385c.188-8.005 1.926-12.475 6.883-18.678 1.403-2.478 1.403-2.478 2.797-4.96 1.698-2.879 3.505-5.677 5.328-8.477l2.07-3.184L306 198h2l.937-2.937c2.486-7.165 14.469-5.256 21.202-5.342"/><path fill="#E7B44F" d="M91.412 46.87q3.285-.001 6.57-.005 8.843-.005 17.684 0c6.202.003 12.403 0 18.605 0q15.615-.004 31.229.005 17.99.007 35.98-.002 15.513-.007 31.026-.003 9.236.003 18.472-.001 8.688-.004 17.375.005 3.167 0 6.334-.002c9.763-.009 19.521.038 29.276.454l2.164.066c8.776.455 14.938 4.33 20.873 10.613 6.428 8.848 5.851 19.52 5 30-1.069 5.006-2.325 8.711-6.438 11.875L323 101l-2.5 2c-6.135 4.908-10.168 5.433-17.88 5.381l-3.2.014c-3.546.012-7.09.003-10.636-.007q-3.81.007-7.618.016-9.28.016-18.557.002-7.544-.01-15.087-.005l-2.17.002-4.362.003c-13.639.008-27.278-.002-40.917-.018q-17.543-.018-35.087.003a21910 21910 0 0 1-45.107.01l-2.161-.001q-7.53-.003-15.06.009-10.143.013-20.287-.015-3.722-.006-7.444.004c-3.39.008-6.777-.002-10.166-.017l-2.973.02C55.82 108.351 51.476 107.385 46 105l-2.563-.688c-5.061-2.725-8.482-6.843-10.55-12.19-2.953-10.96-3.082-22.202 2.367-32.49C39.22 53.905 44.407 50.199 51 48c2.601-.236 5.18-.42 7.787-.554l2.407-.128c10.07-.486 20.14-.458 30.218-.447"/><path fill="#E6AB4D" d="M88.576 121.467c1.147-.01 2.294-.018 3.476-.027 3.782-.022 7.564-.015 11.346-.006q3.955-.009 7.91-.02a3417 3417 0 0 1 16.568.01c6.366.016 12.732 0 19.098-.032 6.145-.03 12.29-.032 18.435-.022q3.907 0 7.815-.02a994 994 0 0 1 10.942.019l3.24-.036c6.772.086 12.295 1.193 17.594 5.667 3.45 5.936 3.444 12.558 3.398 19.258l.01 2.87q.002 2.983-.017 5.965c-.016 3.03 0 6.06.02 9.09q-.004 2.913-.013 5.825l.019 2.721c-.061 5.48-.697 9.464-3.417 14.271l-3 1v2h-2v2c-16.047.14-32.093.246-48.14.31-7.451.032-14.902.074-22.353.143q-9.744.09-19.488.112c-3.439.007-6.876.026-10.315.07-3.842.048-7.684.049-11.527.046l-3.437.066c-6.239-.05-9.956-.692-14.54-5.068-1.342-1.877-1.793-3.422-2.2-5.679h-2a2762 2762 0 0 1-.22-21.033q-.03-3.576-.082-7.152c-.048-3.43-.071-6.86-.089-10.292l-.062-3.22c-.002-5.905.182-9.826 4.453-14.303 6.111-4.436 11.16-4.579 18.576-4.533"/><path fill="#E6E6ED" d="M344 267v2l2.313.438C349 270 349 270 352 271v2l1.766.348c2.4.7 3.963 1.634 5.984 3.09l1.86 1.308L363 279v2h2c11.72 13.572 15.134 27.447 14 45-.612 3.55-1.598 6.687-3 10l-1.031 2.477c-6.387 13.938-17.078 24.066-31.387 29.43-14.268 4.552-30.119 3.003-43.378-3.76-12.008-6.648-20.356-17.922-25.138-30.627-.635-2.547-.902-4.897-1.066-7.52l-.124-1.97c-.876-16.25 2.273-29.153 12.745-42.022C302.011 265.4 322.674 262.034 344 267"/><path fill="#E5E3EA" d="m238.766 119.757 3.484.013 3.781.005 3.969.037 3.969.002c9.75.046 9.75.046 12.031 1.186v10l3.194-.016q5.901-.026 11.802-.039 2.548-.008 5.095-.02c2.45-.013 4.9-.018 7.35-.023l2.277-.015c4.531 0 8.81.368 13.282 1.113l-.07-2.117-.055-2.758-.07-2.742C309 122 309 122 311 120c2.766-.243 2.766-.243 6.25-.23l3.781.005 3.969.037 3.969.002c9.75.046 9.75.046 12.031 1.186l1 8h40v-7h1l-.098 6.152c-.108 1.865-.108 1.865 1.098 2.848l-.07-1.898-.055-2.477-.07-2.46C384 122 384 122 386 120c4.136-.398 8.278-.33 12.431-.316 2.061.003 4.121-.02 6.182-.045l3.918-.002 3.612-.01L415 120c3.313 4.97 2.328 10.662 2.313 16.5l.048 3.785.002 3.621.01 3.323C417 150 417 150 415.857 151.859c-2.69 1.653-4.81 1.513-7.952 1.504l-3.62-.002-3.786-.049-3.785.01c-9.314-.055-9.314-.055-12.715-2.322-.408-2.712-.133-5.244 0-8l-15 1 5 3.5c15.954 11.69 27.873 28.924 32 48.5.188 3.625.188 3.625 0 6l3.813-.188c2.5-.123 3.728-.138 5.79 1.325 1.997 2.663 1.785 4.654 1.795 7.957l.012 3.62-.035 3.786.035 3.785-.012 3.621-.01 3.323C417 232 417 232 415.872 233.859c-2.761 1.684-5.004 1.513-8.22 1.504l-3.771-.002-3.943-.049-3.956.01c-9.715-.055-9.715-.055-11.982-2.322-.259-2.857-.259-2.857-.266-6.469l-.007-3.918.012-2.044c.011-2.061 0-4.121-.012-6.182l.007-3.918.007-3.612C384 204 384 204 386 202c3.625-.125 3.625-.125 7 0-5.104-19.85-13.868-35.912-31.565-47.04-6.13-3.614-12.64-5.905-19.435-7.96l-.937 2.437C340 152 340 152 339 153c-9.626.602-19.392-.363-29-1l-2-6c-20.054 6.407-35.105 17.217-45.203 36.172-3.118 6.295-4.971 13.068-6.797 19.828l3.875-.063c3.875-.062 3.875-.062 6.125 1.063q.037 6.14.055 12.28.008 2.09.02 4.179c.013 2 .018 4.001.023 6.002l.016 3.65C266 232 266 232 265 234q-6.14.075-12.28.11-2.09.016-4.179.04c-2 .025-4.001.035-6.002.045l-3.65.032C236 234 236 234 234 232c-.259-2.766-.259-2.766-.266-6.25l-.007-3.781.023-3.969-.023-3.969.007-3.781.007-3.484C234 204 234 204 236 202c2.164-.195 2.164-.195 4.625-.125l2.477.055L245 202l.043-1.914c1.089-20.422 12.996-36.14 27.644-49.461 3.324-2.942 6.538-5.108 10.313-7.625l-17-1v8c-2.76 2.76-4.392 2.258-8.25 2.266l-3.781.007-3.969-.023-3.969.023-3.781-.007-3.484-.007C236 152 236 152 234 150c-.259-2.766-.259-2.766-.266-6.25l-.007-3.781.023-3.969-.023-3.969.007-3.781.007-3.484c.358-3.829 1.192-4.672 5.025-5.009"/><path fill="#E9E8EC" d="m396.387 119.678 2.044.006c2.061.003 4.121-.02 6.182-.045l3.918-.002 3.612-.01L415 120c3.313 4.97 2.328 10.662 2.313 16.5l.048 3.785.002 3.621.01 3.323C417 150 417 150 415.857 151.859c-2.69 1.653-4.81 1.513-7.952 1.504l-3.62-.002-3.786-.049-3.785.01c-9.314-.055-9.314-.055-12.715-2.322-.408-2.712-.133-5.244 0-8l-15 1 5 3.5c15.954 11.69 27.873 28.924 32 48.5.188 3.625.188 3.625 0 6l3.813-.188c2.5-.123 3.728-.138 5.79 1.325 1.997 2.663 1.785 4.654 1.795 7.957l.012 3.62-.035 3.786.035 3.785-.012 3.621-.01 3.323C417 232 417 232 415.872 233.859c-2.761 1.684-5.004 1.513-8.22 1.504l-3.771-.002-3.943-.049-3.956.01c-9.715-.055-9.715-.055-11.982-2.322-.259-2.857-.259-2.857-.266-6.469l-.007-3.918.012-2.044c.011-2.061 0-4.121-.012-6.182l.007-3.918.007-3.612C384 204 384 204 386 202c3.625-.125 3.625-.125 7 0-5.105-19.856-13.87-35.906-31.567-47.042-5.328-3.143-10.888-5.204-16.765-7.083C342 147 342 147 341 146v-15h43v-9c3.366-3.366 7.815-2.297 12.387-2.322"/><path fill="#E5DBC9" d="M330.14 189.72c11.752.148 11.752.148 16.235 4.73 2.722 3.736 4.657 7.802 6.478 12.039 1.863 4.079 4.368 7.714 6.834 11.449 4.795 7.545 5.545 12.74 5.625 21.562l.088 3.207.026 3.074.044 2.815c-.47 2.404-.47 2.404-2.346 4.2-2.517 1.427-4.18 1.668-7.062 1.704-.834.03-1.668.062-2.527.094-3.736-.875-5.149-2.634-7.535-5.594-1.547-3.516-1.547-3.516-2.75-7.25-1.07-4.178-1.07-4.178-3.25-7.75a133 133 0 0 0-6.223-.098l-3.818.01-4.022.026q-2.016.008-4.033.013-4.952.018-9.904.049-1.197 2.354-2.387 4.71l-1.342 2.65c-1.675 3.478-2.99 7-4.271 10.64h-2v2c-3.03 1.515-5.651 1.17-9 1a97 97 0 0 1-5-2c-.176-4.312-.281-8.623-.375-12.937l-.152-3.674c-.137-8.383 1.222-12.956 6.527-19.389 1.403-2.478 1.403-2.478 2.797-4.96 1.698-2.879 3.505-5.677 5.328-8.477l2.07-3.184L306 198h2l.937-2.937c2.486-7.165 14.469-5.256 21.202-5.342"/><path fill="#984BAC" d="m37 98 2.337 2.43c2.734 2.638 4.237 3.423 7.85 4.32 4.776 1.231 4.776 1.231 6.813 2.25 1.412.098 2.829.134 4.244.139l2.714.016 3.001.003 3.173.015q5.297.022 10.595.032l7.567.03q8.164.032 16.328.056 11.803.035 23.606.08 19.149.071 38.298.132 18.605.058 37.209.125l2.315.008 11.5.041q47.726.17 95.45.323c-2 2-2 2-3.941 2.248l-2.428-.002-2.799.012-3.095-.017-3.272.005c-3.642.003-7.284-.008-10.926-.019h-7.804q-8.42.002-16.838-.016c-8.115-.016-16.23-.021-24.345-.024q-19.748-.007-39.496-.036-19.186-.028-38.373-.041l-2.388-.002-11.86-.007Q93.218 110.069 44 110q-.106 30.432-.155 60.864c-.016 9.42-.037 18.84-.071 28.26q-.046 12.312-.056 24.625c-.004 4.348-.013 8.695-.035 13.043q-.03 6.135-.022 12.27-.001 2.255-.019 4.51c-.014 2.048-.01 4.097-.003 6.145l-.008 3.478c.412 3.135.968 3.877 3.369 5.805.867 1.991 1.498 3.994 2.156 6.063.968 2.222 1.979 3.4 3.844 4.937 3.834 1.278 7.442 1.14 11.437 1.13l2.613.005q4.297.004 8.595-.002l6.017.003q6.33.001 12.662-.006 8.02-.006 16.039.004 6.232.005 12.466 0 2.949 0 5.899.002c11.148.01 22.245-.217 33.38-.775 8.277-.407 16.532-.508 24.818-.494l4.482-.003q4.619-.002 9.237.006 5.883.006 11.766-.004 4.596-.005 9.191 0 2.17 0 4.34-.002c7.45-.01 14.667.233 22.058 1.136 2.39-.18 4.638-.557 7-1h5l1-5h-3l-1-7c3.801 1.454 4.994 3.197 6.75 6.813l1.297 2.582c.997 2.727 1.139 4.727.953 7.605h-2v3q-39.639.141-79.277.207c-12.27.02-24.54.049-36.81.095q-16.045.06-32.09.074c-5.662.006-11.324.018-16.986.047q-8 .039-16 .03a801 801 0 0 0-5.86.024c-20.509.153-20.509.153-29.782-6.485l-2.07-2.117-2.117-2.07c-6.51-9.095-6.566-18.482-6.462-29.27q.001-2.47-.002-4.94c-.001-4.444.022-8.888.05-13.331.026-4.654.028-9.308.033-13.961.012-8.801.045-17.602.085-26.402.045-10.024.067-20.048.087-30.073.041-20.61.112-41.219.201-61.828"/><path fill="#B588EE" d="M339.617 289.617c8.031 4.66 13.194 10.657 16.383 19.383 2.307 9.81.498 17.466-4.215 26.27-4.413 6.69-11.308 10.238-18.785 12.73-10.3.715-18.766-.512-27-7-7.564-6.929-10.05-13.681-10.562-23.812.195-8.226 2.843-14.888 8.238-21.125 9.928-9.13 23.486-12.173 35.941-6.446"/><path fill="#D87E37" d="m46 50 2 1v3l2 1-1.426 1.54-1.886 2.085-1.864 2.04C39 68.122 39.157 75.958 40 85a97 97 0 0 0 3 12h2v2l3.438.938C52 101 52 101 53 102c2.542.247 5.056.425 7.605.554l2.43.128c10.425.497 20.852.458 31.286.447l6.86.006q9.232.005 18.463 0c6.46-.003 12.92 0 19.38 0q17.287.004 34.573-.006 15.657-.006 31.315.001 18.24.01 36.477.005 9.635-.003 19.27.001 9.044.004 18.087-.005 3.317 0 6.633.002 4.528.002 9.055-.006l2.648.007c5.809-.019 11.359-.281 16.918-2.134a65 65 0 0 1 4.188-.062L322 101c-4.156 4.464-7.418 7.122-13.638 7.378q-2.871.023-5.742.003l-3.2.014c-3.546.012-7.09.003-10.636-.007q-3.81.007-7.618.016-9.28.016-18.557.002-7.544-.01-15.087-.005l-2.17.002-4.362.003c-13.639.008-27.278-.002-40.917-.018q-17.544-.018-35.087.003a21910 21910 0 0 1-45.107.01l-2.161-.001q-7.53-.003-15.06.009-10.143.013-20.287-.015-3.722-.006-7.444.004c-3.39.008-6.777-.002-10.166-.017l-2.973.02C55.82 108.351 51.476 107.385 46 105l-2.562-.687c-5.062-2.726-8.483-6.844-10.551-12.192-2.939-10.904-3.172-22.346 2.437-32.523C38.327 55.366 41.51 52.566 46 50"/><path fill="#EABD60" d="m289 224 1 2h74c2.001 4.002 1.273 9.037 1.313 13.438l.087 3.22.026 3.088.044 2.834c-.47 2.42-.47 2.42-2.346 4.22-2.517 1.422-4.18 1.664-7.062 1.7-.834.03-1.668.062-2.527.094-3.736-.875-5.149-2.634-7.535-5.594-1.547-3.516-1.547-3.516-2.75-7.25-1.07-4.178-1.07-4.178-3.25-7.75a133 133 0 0 0-6.223-.098l-3.818.01-4.022.025q-2.016.008-4.033.014-4.952.018-9.904.049-1.197 2.354-2.387 4.71l-1.342 2.65c-1.675 3.478-2.99 7-4.271 10.64h-2v2c-3.03 1.515-5.651 1.17-9 1a97 97 0 0 1-5-2q-.042-6.687-.062-13.375l-.026-3.852-.01-3.671-.016-3.396C288 226 288 226 289 224"/><path fill="#BD4E1A" d="m326.813 297.875 2.957.055 2.23.07v2l1.625.188c3.545 1.212 5.634 3.258 8.375 5.812v2h2v4h2v12h-2v4c-2.014 2.374-4.517 4.134-7 6l-2.375 1.875c-3.906 1.674-7.44 1.399-11.625 1.125l-3.687-.125c-5.716-1.51-8.27-5.102-11.188-10.062-1.821-6.172-1.928-12.603-.125-18.813h2l.75-2.312c1.747-3.757 3.847-5.025 7.523-6.762 3.023-1.026 5.36-1.128 8.54-1.051"/><path fill="#9763EA" d="M252 299c-1.875 3.875-1.875 3.875-3 5a99 99 0 0 0-.098 5.348l.01 3.271.025 3.443.014 3.456q.018 4.241.049 8.482l1.638.61 2.163.808 2.138.798c6.037 2.297 9.384 4.531 13.061 9.784 1.112 3.416 1.149 4.554 0 8h3c-.581 3.76-1.652 6.53-3.562 9.813l-1.38 2.394L265 362h-2c.224 3.916.934 4.938 3.875 7.688A153 153 0 0 0 273 374l1 2.063c.897 2.29.897 2.29 4 2.937l2 2c2.091-1.006 4.08-2.05 6.043-3.29 5.273-3.284 9.716-4.9 15.957-3.71 3 2 3 2 4 5l1.96 1.246c2.97 2.555 3.013 5.016 3.665 8.817.644 4.996.644 4.996 3.375 8.937 2.618.372 2.618.372 5.664.414l3.399.117 3.562.094 3.586.117q4.394.142 8.789.258l1 4q-6.112.111-12.225.165-2.08.022-4.159.061c-1.993.037-3.986.052-5.98.067l-3.633.048C312 403 312 403 310.17 401.685c-1.866-2.687-2.747-5.6-3.795-8.685-.425-1.238-.85-2.475-1.29-3.75L303 383c-7.847-1.894-12.757.234-19.766 3.652-3.264 1.36-4.782 1.786-8.234 1.348-3.679-2.581-6.713-5.88-9.875-9.062l-2.703-2.569c-6.359-6.334-6.359-6.334-6.652-11.142 1.515-3.975 3.233-7.698 5.171-11.48 1.2-3.115 1.248-5.436 1.059-8.747l-.125-2.25c-.779-2.062-.779-2.062-3.54-2.703L255 339a325 325 0 0 1-6.25-2.5l-3.14-1.281C243 334 243 334 241 332c-.227-2.89-.227-2.89-.195-6.54l.02-3.944.05-4.141q.016-2.082.027-4.164.036-5.106.098-10.211a418 418 0 0 1 3.813-2l2.144-1.125C249 299 249 299 252 299"/><path fill="#E7B454" d="m313.766 119.757 3.484.013 3.781.005 3.969.037 3.969.002c9.75.046 9.75.046 12.031 1.186l1 8h40v-7h1v8h-42l1 19c-3 4-3 4-5.32 4.426l-2.805-.114-3.18-.105L327 153l-2.224-.116c-4.928-.257-9.852-.557-14.776-.884l-3-7h2c-.01-.686-.02-1.373-.032-2.08-.041-3.098-.067-6.196-.093-9.295-.017-1.08-.034-2.16-.05-3.273l-.02-3.125-.032-2.889c.349-3.595 1.474-4.272 4.993-4.58"/><path fill="#E7B755" d="m396.387 119.678 2.044.006c2.061.003 4.121-.02 6.182-.045l3.918-.002 3.612-.01L415 120c3.313 4.97 2.328 10.662 2.313 16.5l.048 3.785.002 3.621.01 3.323C417 150 417 150 415.857 151.859c-2.69 1.653-4.81 1.513-7.952 1.504l-3.62-.002-3.786-.049-3.785.01c-9.314-.055-9.314-.055-12.715-2.322-.372-2.857-.372-2.857-.363-6.469l.002-3.918.025-2.044c.023-2.061.02-4.121.014-6.182.064-11.637 1.072-12.645 12.709-12.71"/><path fill="#E7B450" d="m395.982 201.678 3.955.01 3.944-.05 3.771-.001 3.469-.01c2.879.373 2.879.373 4.75 1.515 1.633 2.688 1.518 4.821 1.527 7.952l.012 3.62-.035 3.786.035 3.785-.012 3.621-.01 3.323C417 232 417 232 415.872 233.859c-2.761 1.684-5.004 1.513-8.22 1.504l-3.771-.002-3.944-.049-3.955.01c-9.715-.055-9.715-.055-11.982-2.322-.259-2.857-.259-2.857-.266-6.469l-.007-3.918.012-2.044c.011-2.061 0-4.121-.012-6.182l.007-3.918.007-3.612c.622-6.862 6.822-5.148 12.241-5.18"/><path fill="#E6B250" d="m238.766 119.757 3.484.013 3.781.005 3.969.037 3.969.002c9.75.046 9.75.046 12.031 1.186q.075 6.14.11 12.28.015 2.09.04 4.179c.025 2 .035 4.001.045 6.002l.032 3.65C266 150 266 150 264 152c-2.766.259-2.766.259-6.25.266l-3.781.007-3.969-.023-3.969.023-3.781-.007-3.484-.007C236 152 236 152 234 150c-.259-2.766-.259-2.766-.266-6.25l-.007-3.781.023-3.969-.023-3.969.007-3.781.007-3.484c.358-3.829 1.192-4.672 5.025-5.009"/><path fill="#E6AD4F" d="m238.766 201.757 3.484.013 3.781.005 3.969.037 3.969.002c9.75.046 9.75.046 12.031 1.186q.037 6.14.055 12.28.008 2.09.02 4.179c.013 2 .018 4.001.023 6.002l.016 3.65C266 232 266 232 265 234q-6.14.075-12.28.11-2.09.016-4.179.04c-2 .025-4.001.035-6.002.045l-3.65.032C236 234 236 234 234 232c-.259-2.766-.259-2.766-.266-6.25l-.007-3.781.023-3.969-.023-3.969.007-3.781.007-3.484c.358-3.829 1.192-4.672 5.025-5.009"/><path fill="#5C26CC" d="M257 268c3.801 1.454 4.994 3.197 6.75 6.813l1.297 2.582c.997 2.727 1.139 4.727.953 7.605h-2v3q-39.639.141-79.277.207c-12.27.02-24.54.049-36.81.095q-16.045.06-32.09.074c-5.662.006-11.324.018-16.986.047q-8 .039-16 .03a801 801 0 0 0-5.86.024c-21.074.158-21.074.158-29.704-6.618l-1.898-2.109-1.977-2.14L42 276l1-3c3.786 1.262 4.856 3.115 7.207 6.21 3.941 3.934 8.134 5.13 13.629 5.174l2.218-.028 2.393.007c2.62.003 5.238-.016 7.858-.035q2.787-.004 5.575-.004c4.972-.005 9.943-.03 14.915-.058 4.101-.021 8.203-.032 12.305-.043 24.03-.066 48.06-.244 72.088-.66l3.486-.06q4.779-.085 9.556-.187l2.737-.05c4.758-.114 9.321-.534 14.033-1.266q2.513-.185 5.031-.281l2.707-.114 5.524-.21c3.925-.165 7.72-.392 11.613-.957 2.805-.393 4.86-.392 7.625.062 4.1.555 7.444.26 11.5-.5h5l1-5h-3z"/><path fill="#EAE7E6" d="M109.008 138.996C112 140 112 140 113.68 142.723l1.195 3.34 1.242 3.347L117 152l.367-2.117.508-2.758.492-2.742C119 142 119 142 121 140c3-.25 3-.25 6 0l2 2c-.459 5.99-2.008 11.85-3.375 17.688l-.633 2.837-.64 2.737-.568 2.467c-.891 2.581-1.935 4.265-3.784 6.271-3 .563-3 .563-6 0-3.855-4.14-4.674-10.632-6-16l-.77 2.992q-.52 1.942-1.043 3.883l-1.019 3.867C104 172 104 172 101 174c-3.062.313-3.062.313-6 0-2.836-4.253-3.789-8.787-5.125-13.687l-.84-2.936C87.485 151.731 86.681 146.853 87 141c3.375-.625 3.375-.625 7-1 2.463 2.463 2.768 4.274 3.625 7.625.26 1.003.52 2.006.79 3.04L99 153l.77-2.555 1.043-3.32 1.019-3.305c1.596-3.855 2.998-4.818 7.176-4.824"/><path fill="#E9E4E1" d="M160 140a74 74 0 0 1 8.75-.375l2.422-.035c4.974.024 8.573.56 12.828 3.41 1.299 3.897.977 7.332.84 11.406-.043 2.833-.043 2.833 2.16 5.594.082 2.156.082 2.156-.187 4.5l-.231 2.344c-.707 2.62-1.433 3.517-3.582 5.156-4.43 2.408-8.71 2.333-13.625 2.313l-2.312.048c-5.506.005-5.506.005-7.78-1.49-1.875-2.735-1.655-4.891-1.646-8.184l.002-3.757.048-3.93-.01-3.93c.056-9.67.056-9.67 2.323-13.07"/><path fill="#9147DC" d="m67 127 1 2-1 3a94 94 0 0 0-.205 4.93l-.06 3.033-.051 3.267-.063 3.35q-.097 5.304-.183 10.607l-.131 7.186Q66.146 173.186 66 182h2l4 6c3.02 2.785 5 3.378 9.075 3.399l3.101.038 3.386-.005 3.578.031q4.85.036 9.699.043c3.38.01 6.761.036 10.142.06 6.4.044 12.799.072 19.198.095 7.287.027 14.573.071 21.86.117 14.987.093 29.974.164 44.961.222l-1.937.313L193 193l-1 3c-15.95.14-31.901.246-47.853.31a4362 4362 0 0 0-22.219.143q-9.682.09-19.367.112a978 978 0 0 0-10.253.07c-3.817.043-7.632.049-11.45.046l-3.43.066c-7.454-.06-7.454-.06-10.224-2.014-8.083-9.297-6.39-24.714-6.39-36.257-.002-2.236-.02-4.47-.039-6.706q-.005-2.16-.005-4.317l-.013-3.901c.241-3.528 1.057-6.244 2.243-9.552-.276-2.288-.276-2.288-1-4z"/><path fill="#E6E8EE" d="M117 203c7.75.75 7.75.75 10 3 .504 3.932-.263 7.144-1.36 10.883-1.797 6.453-3.023 12.964-4.203 19.554l-.63 3.448c-1.34 7.36-2.598 14.732-3.807 22.115h-2l.063 2.438C115 267 115 267 114 268c-7.522.239-7.522.239-10-1 .271-12.615 3.279-24.737 6-37l.69-3.158q.99-4.516 1.998-9.03l.612-2.769c.947-4.174 1.924-8.126 3.7-12.043"/><path fill="#E6E3EE" d="M137 212c6.78 4.254 14.854 12.597 18 20 .727 4.925.583 7.728-2.312 11.813A132 132 0 0 1 149 248l-2.602 2.914c-7.261 7.794-7.261 7.794-12.09 9.035C131 260 131 260 128.5 257.875c-1.5-2.875-1.5-2.875-1.367-5.27 1.1-3.307 2.7-4.803 5.242-7.167 2.306-2.168 4.42-4.158 6.29-6.715L140 237h2a924 924 0 0 0-3.062-3.562l-1.915-2.22c-1.89-2.073-3.875-3.907-5.96-5.78-2.675-2.633-3.034-3.281-3.75-7.188.687-3.25.687-3.25 2.374-5.187 2.735-1.257 4.326-1.355 7.313-1.063"/><path fill="#E6E6EE" d="M93 212c3.519-.32 5.42-.372 8.438 1.563C103 216 103 216 102.977 219.25c-1.256 4.82-3.44 6.909-7.04 10.188l-1.72 1.638A348 348 0 0 1 90 235c1.795 4.618 5.54 7.501 9.188 10.67 2.904 2.716 3.782 4.051 4.214 8.06C103 257 103 257 101.937 259c-3.262 1.684-5.44.905-8.937 0-2.749-2.006-5.001-4.387-7.312-6.875l-1.877-1.934c-5.684-5.912-7.454-9.518-7.315-17.898.816-5.332 3.517-7.889 7.504-11.293l2.21-1.969a188 188 0 0 1 4.188-3.586c1.718-1.373 1.718-1.373 2.602-3.445"/><path fill="#EAE6E3" d="m136.938 139.734 2.96-.007 3.102.023 3.102-.023 2.96.007 2.723.007C154 140 154 140 156 142c-.556 4.556-.556 4.556-2 6-2.353.073-4.708.084-7.062.063l-3.91-.028L140 148v4l2.773-.07 3.602-.055 3.586-.07C153 152 153 152 155 154c.188 2.563.188 2.563 0 5-1 1-1 1-4.379 1.098q-2.091-.01-4.184-.036l-2.154-.013q-2.64-.02-5.283-.049v6l3.465-.035 4.472-.028 2.288-.025c1.925-.009 3.85.036 5.775.088 1 1 1 1 1.063 4.063L156 173c-3.887 1.943-8.725 1.185-13 1.188l-3.102.037-2.96.005-2.723.013C132 174 132 174 130 172c-.259-2.95-.259-2.95-.266-6.687l-.005-1.995a599 599 0 0 1 .01-4.176c.011-2.134 0-4.266-.012-6.4q0-2.027.007-4.054l.007-3.739c.446-5.082 2.66-5.203 7.196-5.215"/><path fill="#E6E6E7" d="M81.25 66.188c3.066 2.02 4.705 3.764 6.75 6.812 1.033 5.066 1.318 10.508-1.152 15.18-3.55 3.627-6.997 4.21-11.973 4.382C70.366 92.476 67.687 91.61 64 89c-3.545-3.911-3.615-8.198-3.492-13.266.78-4.338 3.05-7.071 6.492-9.734 5.029-1.676 9.34-1.606 14.25.188"/><path fill="#E6E5E9" d="M161 65c4.192 2.576 7.427 5.28 9 10 .132 3.684.17 6.49-1 10h-2l-.687 1.813c-1.755 2.923-3.181 3.825-6.313 5.187-4.726.525-6.968.496-11.25-1.562-4.068-3.606-6.352-6.998-7.25-12.5.823-4.835 3.424-7.735 6.625-11.313 4.302-2.431 8.063-2.733 12.875-1.625"/><path fill="#E5E3E7" d="M122.184 66.531A102 102 0 0 1 128 72l1 1c.71 4.111.722 7.65-1.27 11.375-1.485 2.024-2.91 3.894-4.73 5.625h-2v2c-9.768.462-9.768.462-14-1.125-4.018-3.767-5.194-7.484-5.437-12.875.17-4.713 1.057-7.534 4.437-11 5.228-2.17 11.236-3.938 16.184-.469"/><path fill="#5129BB" d="M339.617 289.617c8.031 4.66 13.194 10.657 16.383 19.383 1.844 7.767 1.456 14.754-2 22l-2 1 .016-2.004q.029-4.467.046-8.933l.026-3.155.01-2.998.016-2.777c.125-2.117.125-2.117-1.114-3.133-.857 4.095-.832 6.944 0 11-.278 2.921-.608 4.506-2.437 6.813C347 328 347 328 345 328l1-16h-2v-4h-2l-1.75-2.312c-2.499-2.985-4.711-4.16-8.25-5.688v-2q-2.595.214-5.187.438c-.963.08-1.926.162-2.918.246-2.681.293-5.261.743-7.895 1.316v-3c1.531-1.387 1.531-1.387 3.5-2.687L323 292l-9-1v-2c8.181-3.636 17.58-3.078 25.617.617"/><path fill="#A471ED" d="M351 308c3.47 3.47 2.454 8.42 2.5 13.125l.125 3.094c.065 6.367-.712 10.34-4.95 15.199-2.276 2.15-4.556 3.638-7.363 5.02l-2.824 1.433c-5.861 2.66-12.164 3.718-18.37 1.438-4.172-1.86-8.156-4.042-12.118-6.309v-2l-4-2c.313-1.937.313-1.937 1-4 3.792-1.264 4.355-.473 8 1 10.693 2.843 10.693 2.843 21.27.984 3.45-2.064 5.47-3.593 7.73-6.984h2v-4h2l-1 4c2.662-1.46 2.662-1.46 5-4 .643-3.462.6-6.8-1-10 .606-2.02 1.27-4.023 2-6"/><path fill="#C66623" d="m289 224 1 2 3.902-.035 5.036-.028 2.576-.025 2.45-.01 2.27-.016C308 226 308 226 309 227c1.2 6.525 1.597 11.219-2 17-1.077 2.642-2.028 5.317-3 8h-2v2c-3.03 1.515-5.651 1.17-9 1a97 97 0 0 1-5-2q-.042-6.687-.062-13.375l-.026-3.852-.01-3.671-.016-3.396C288 226 288 226 289 224"/><path fill="#CDB6A4" d="m313.066 190.902 2.497.036 2.503.027L320 191c-.512 4.35-1.306 7.976-3 12l-.5 2.5c-.5 2.5-.5 2.5-1.437 4.75-1.22 3.154-1.763 6.237-2.305 9.566-1.073 3.093-2.044 4.303-4.758 6.184-3.1.482-6.123.377-9.25.25l-2.547-.055A434 434 0 0 1 290 226c.57-4.038 1.819-6.674 4.063-10.062l1.89-2.868L298 210q1.089-1.69 2.172-3.383l2.14-3.304 1.989-3.075L306 198h2l.938-2.937c1.398-4.032 1.398-4.032 4.128-4.16"/><path fill="#E8E5EE" d="M278 150h2v4h5l-4 1-.062 2.063c-.99 3.102-1.632 3.802-3.938 5.937-11.481 10.867-17.604 24.807-21 40h-11c.264-6.784.264-6.784 1-10a99 99 0 0 1 5-3c.775-2.307 1.184-4.536 1.543-6.941C253 181 253 181 255 179l1-2.5c1-2.5 1-2.5 3-4.5l.75-2.875c1.603-4.007 3.562-5.017 7.25-7.125 3.355-1.75 3.355-1.75 3.875-5.5 1.125-3.5 1.125-3.5 3.688-4.875L277 151z"/><path fill="#4C14C3" d="M43 273c3.285 1.095 3.79 1.734 5.813 4.375 3.93 4.748 8.15 6.687 14.187 7.625 2.74.102 5.454.155 8.194.158l2.488.015c2.748.016 5.497.024 8.245.032l5.913.03q8.027.04 16.053.068c5.592.022 11.184.05 16.776.076q15.884.074 31.768.138 18.082.076 36.166.16 37.2.17 74.397.323v2q-39.442.141-78.886.207c-12.21.02-24.419.049-36.629.095q-15.965.06-31.93.074c-5.635.006-11.269.018-16.903.047q-7.96.039-15.921.03a793 793 0 0 0-5.832.024c-20.996.158-20.996.158-29.626-6.618l-1.898-2.109-1.977-2.14L42 276z"/><path fill="#6432CA" d="M258 367c5.698.185 8.609 4.089 12.313 7.938l1.955 1.958C277 381.72 277 381.72 277 384l1.863-.656 2.45-.844 2.425-.844C286 381 286 381 289 381v-2c3.595-1.622 6.557-2.343 10.5-2.437l2.781-.122c3.91.804 5.299 2.432 7.719 5.559 1.074 3.48 1.074 3.48 1.688 7.188.61 4.933.61 4.933 3.312 8.812 2.618.372 2.618.372 5.664.414l3.399.117 3.562.094 3.586.117q4.394.142 8.789.258l1 4q-6.112.111-12.225.165-2.08.022-4.159.061c-1.993.037-3.986.052-5.98.067l-3.633.048C312 403 312 403 310.17 401.685c-1.866-2.687-2.747-5.6-3.795-8.685l-1.29-3.75L303 383c-7.847-1.894-12.757.234-19.766 3.652-3.257 1.358-4.789 1.79-8.234 1.348-2.22-1.652-2.22-1.652-4.426-3.937l-2.412-2.461-2.474-2.602-2.534-2.602A844 844 0 0 1 257 370z"/><path fill="#D77E21" d="M79 134h117v45l-5 1 1-30h-2q-.251-2.187-.5-4.375l-.281-2.46c-.244-2.41-.219-4.74-.219-7.165H79z"/><path fill="#8D55E6" d="m185.203 279.832 3.927-.01q4.027-.009 8.055-.007c3.44 0 6.88-.014 10.322-.031 3.315-.014 6.63-.013 9.946-.014l3.737-.022 3.424.01 3.016-.005C230 280 230 280 232 282l-1.817.076c-2.748.117-5.497.24-8.245.361l-2.858.12-2.803.127-2.555.11c-2.75.162-2.75.162-5.545.71-5.87.847-11.811.635-17.728.625l-4.112.006q-5.56.005-11.12 0c-3.886-.003-7.772 0-11.658 0q-9.786.003-19.572-.005-11.302-.007-22.605.002-9.719.007-19.438.003-5.797-.003-11.596.001-5.451.004-10.901-.005-2.948-.002-5.894.005l-3.564-.009-3.084-.001c-3.037-.132-5.92-.566-8.905-1.126v-1l3.269-.031q15.398-.149 30.795-.308 7.913-.083 15.824-.158 7.665-.073 15.328-.156 2.895-.03 5.79-.056c11.083-.1 22.131-.394 33.201-.937 7.67-.37 15.317-.515 22.996-.522"/><path fill="#823FC8" d="M233 126h1l.076 2.187q.175 4.875.362 9.75l.119 3.444.127 3.271.11 3.031c-.047 2.278-.047 2.278 1.206 3.317 2.06.1 4.125.13 6.188.133l3.804.004 1.991-.007c2.009-.005 4.017 0 6.025.007l3.804-.004 3.52-.004c2.589.174 2.589.174 3.668-1.129l1-8h19c-5 4-5 4-7.395 5.86-10.908 8.529-18.228 17.53-25.605 29.14l-1-2c.92-2.366 1.929-4.699 3-7l.875-2.125c1.62-2.701 3.903-4.653 6.125-6.875a154 154 0 0 0 3-5q-3.844-.04-7.687-.062l-2.186-.026c-3.843-.017-7.393.153-11.127 1.088v2q-2.187.039-4.375.063l-2.46.035C234 157 234 157 232 156c-2.115-5.455-2.087-9.27-1-15l1-1c.04-1.666.043-3.334 0-5l-3 1-2-3c1.313-2.5 1.313-2.5 3-5h3z"/><path fill="#E1AA6C" d="m81.852 121.619 3.029-.026 3.32.019 3.499-.016c3.828-.013 7.656-.005 11.484.006q3.981-.003 7.962-.01 8.351-.006 16.703.017c6.435.016 12.87.01 19.306-.006q8.287-.02 16.576-.007 4.95.007 9.9-.005c3.68-.007 7.359.004 11.039.02l3.314-.018 3.037.026 2.637.003C196 122 196 122 200 125H74c3.3-3.3 3.523-3.375 7.852-3.381"/><path fill="#8C51E4" d="m42 108 10 1v1h-8q-.106 30.432-.155 60.864c-.016 9.42-.037 18.84-.071 28.26q-.046 12.312-.056 24.625c-.004 4.348-.013 8.695-.035 13.043q-.03 6.135-.022 12.27-.001 2.255-.019 4.51c-.014 2.048-.01 4.097-.003 6.145l-.008 3.478c.416 3.159 1.003 3.82 3.369 5.805.688 2.688.688 2.688 1 5l-3-2v-2h-2c-2.409-7.533-2.276-14.876-2.243-22.722l-.006-4.452q-.004-6.015.013-12.03c.01-4.2.007-8.402.007-12.604q.002-10.572.023-21.145.023-12.227.02-24.454.001-13.024.016-26.05l.003-7.506q.002-5.89.017-11.777.004-2.163.004-4.326.002-2.948.012-5.895l.005-3.334C41 111 41 111 42 108"/><path fill="#802F97" d="M66 130c1.24 2.482 1.084 4.044 1.022 6.817l-.061 3.033-.082 3.283-.072 3.354q-.116 5.319-.245 10.638l-.158 7.2Q66.21 173.161 66 182h2l4 6c3.02 2.785 5 3.378 9.075 3.399l3.101.038 3.386-.005 3.578.031q4.85.036 9.699.043c3.38.01 6.761.036 10.142.06 6.4.044 12.799.072 19.198.095 7.287.027 14.573.071 21.86.117 14.987.093 29.974.164 44.961.222-3.13 1.826-5.403 2.25-9.01 2.254l-3.059.017-3.337-.012-3.53.01c-3.854.01-7.709.003-11.564-.003l-8.025.005q-8.414.006-16.827-.01-9.723-.015-19.447.003-8.352.014-16.703.006-4.988-.006-9.974.003c-3.706.005-7.412-.003-11.118-.014l-3.337.012-3.06-.017-2.654-.002c-2.532-.27-4.17-.977-6.355-2.252v-4h-3c-.933-3.166-1.127-6.008-1.13-9.303l-.009-3.205.006-3.441-.003-3.54q0-3.702.006-7.402.005-5.688-.007-11.377 0-3.59.004-7.181l-.006-3.46.01-3.176.002-2.81C65 131 65 131 66 130"/><path fill="#E29D3B" d="m41 93 2 4h2v2l3.438.938C52 101 52 101 53 102c2.542.247 5.056.425 7.605.554l2.43.128c10.425.497 20.852.458 31.286.447l6.86.006q9.232.005 18.463 0c6.46-.003 12.92 0 19.38 0q17.287.004 34.573-.006 15.657-.006 31.315.001 18.24.01 36.477.005 9.635-.003 19.27.001 9.044.004 18.087-.005 3.317 0 6.633.002 4.528.002 9.055-.006l2.648.007c5.809-.019 11.359-.281 16.918-2.134a65 65 0 0 1 4.188-.062L322 101c-1.683 2.422-3.079 3.83-6.037 4.376-2.696.136-5.369.147-8.069.118l-3.148.015c-3.493.011-6.985-.006-10.478-.023q-3.75.003-7.5.011-9.142.012-18.285-.02c-7.106-.02-14.212-.02-21.318-.019-12.69.001-25.382-.017-38.073-.046a15398 15398 0 0 0-41.457-.04q-21.02 0-42.039-.03-7.413-.007-14.828-.008a7217 7217 0 0 1-20.019-.035q-3.663-.008-7.326-.007c-32.015.01-32.015.01-39.235-4.042C41.535 98.522 41.17 96.752 41 93"/><path fill="#AC7BEB" d="M124 219h1l1 8h2v3l1.813.813c3.94 2.139 4.963 3.49 6.375 7.875L137 242a680 680 0 0 1-3.875 4l-2.18 2.25C129 250 129 250 127 250a132 132 0 0 0-3 5c-2.2 2.2-4.56 4.074-7 6 .558-9.222 2.251-18.151 4.063-27.187l.853-4.33Q122.95 224.238 124 219"/><path fill="#773FD8" d="m39 101 7 3v2c6.141 2.119 11.973 2.423 18.438 2.625l3.083.117q3.74.141 7.479.258v1c-3.625.059-7.25.094-10.875.125l-3.07.05-3.047.02-2.761.032C50.78 109.915 46.39 108.878 42 108l-1 133-2 1z"/><path fill="#B182EF" d="M99 212c3.255.561 4.998 1.331 7 4 .905 3.464 1.05 6.391.695 9.941l-.27 2.768c-.098.942-.198 1.883-.3 2.853l-.277 2.866c-.397 3.948-.8 7.737-1.848 11.572h2l-2 9h-1l-.617-2.602c-1.742-4.28-4.187-6.652-7.508-9.773l-1.707-1.652A521 521 0 0 0 89 237c1.97-4.9 5.945-7.804 9.785-11.27 2.697-3.324 3.053-5.496 3.215-9.73l-1-3z"/><path fill="#E99233" d="M79 136h110v3l2 1-1 3c-.04 2.333-.044 4.667 0 7h2q.037 5.926.055 11.853.012 3.009.033 6.018l.01 3.809.016 3.523C192 178 192 178 191 180h-2l-1-6h2v-5h-3l2-1-.437-3.937-.247-2.215c-.135-1.86-.135-1.86-1.316-2.848-.535-3.123-.8-6.286-1.125-9.437l-.3-2.682-.27-2.565-.25-2.36C185 140 185 140 186 138l-1.649.007c-35.13.136-70.23-.22-105.351-1.007z"/><path fill="#5619BE" d="M230 208c2.125.375 2.125.375 4 1l.076 2.095q.175 4.672.362 9.343l.119 3.298.127 3.135.11 2.904c-.036 2.196-.036 2.196 1.206 3.225 2.07.158 4.147.251 6.223.316l3.818.127 4.022.12 4.033.13q4.951.16 9.904.307c-.34 1.922-.34 1.922-1 4-2.562 1.25-2.562 1.25-5 2v-2l-3.937.438c-.731.08-1.462.162-2.215.246-1.86.135-1.86.135-2.848 1.316a220 220 0 0 1-8.437.625l-2.393.156c-5.921.343-5.921.343-8.17-.781l.035-1.941c.054-5.146-.153-9.99-1.035-15.059l-3 1 .938-2.75c.79-2.416 1.491-4.778 2.062-7.25l-3 1c1.074-2.915 1.778-4.778 4-7"/><path fill="#6A33D9" d="M273 307h1l.113 3.734c.683 18.638 3.803 33.716 18.059 47.012C303.468 366.75 316.087 368.911 330 371v1q-2.97.04-5.937.063l-3.34.035c-8.156-.214-14.364-1.352-21.723-4.973l-2.309-1.066c-4.138-1.985-4.138-1.985-5.691-3.059l-1-3-2.25-.187c-3.61-1.067-4.595-2.795-6.75-5.813l-1.625-1.562c-3.498-3.657-3.68-7.57-4.375-12.438l-.992-1.918c-3.67-7.58-3.637-23.194-1.008-31.082"/><path fill="#7633CF" d="m308 146 2 6h17c-1 3-1 3-3 6-3.416.29-5.738.087-9-1l-1 1c-3.4.026-6.787-.03-10.186-.127-1.938-.03-3.877.042-5.814.127l-2 2h-3l-1-2-10 3c4.85-8.69 12.267-11.356 21.46-14.3 2.54-.7 2.54-.7 4.54-.7"/><path fill="#8D58E3" d="M261 342c3.161 1.37 3.993 1.99 6 5 2.06.724 2.06.724 4 1-.581 3.76-1.652 6.53-3.562 9.813l-1.38 2.394L265 362h-2c.224 3.916.934 4.938 3.875 7.688A153 153 0 0 0 273 374l1 2.063c.897 2.29.897 2.29 4 2.937l2 2c2.091-1.006 4.08-2.05 6.043-3.29 4.772-2.972 8.38-4.26 14.012-4.179 2.408.58 3.367 1.604 4.945 3.469l-2.23.184-2.957.253-2.918.247c-2.681.293-5.261.743-7.895 1.316v2a345 345 0 0 1-3.75 1.5l-2.11.844C281 384 281 384 277 384c-1.64-1.469-1.64-1.469-3.25-3.5l-1.824-2.184L270 376c-2.493-2.898-4.92-5.716-8-8-3.407-.217-3.407-.217-6 1 .387-5.803 2.297-10.092 4.941-15.254 1.625-4.213 1.475-7.498.059-11.746"/><path fill="#DB892B" d="m384 204 4 1 1 24 3 1v2l3-2c3.363-.266 3.363-.266 7.313-.25l3.925-.016c3.61.255 6.407.955 9.762 2.266v2c-4.577 2.288-10.975 1.185-16 1.188l-3.969.037-3.781.005-3.484.013C386 235 386 235 384 233c-.227-2.89-.227-2.89-.195-6.54l.02-3.944.05-4.141q.016-2.082.027-4.164.036-5.105.098-10.211"/><path fill="#B994EE" d="M326 165h1v10l2.2.098c3.963 1.277 5.457 3.987 7.613 7.34l1.232 1.814C341 188.687 341 188.687 341 191h-21c2-8 2-8 3.063-11.375 1.005-3.888 1.395-7.592 1.69-11.586C325 166 325 166 326 165"/><path fill="#CC8758" d="m238.766 201.757 3.484.013 3.781.005 3.969.037 3.969.002c9.75.046 9.75.046 12.031 1.186q.037 6.14.055 12.28.008 2.09.02 4.179c.013 2 .018 4.001.023 6.002l.016 3.65C266 232 266 232 265 234q-6.14.075-12.28.11-2.09.016-4.179.04c-2 .025-4.001.035-6.002.045l-3.65.032C236 234 236 234 234 232c-.259-2.766-.259-2.766-.266-6.25l-.007-3.781.023-3.969-.023-3.969.007-3.781.007-3.484c.358-3.829 1.192-4.672 5.025-5.009M236 204l2 26h6v2h21v-28z"/><path fill="#7136D8" d="m242.313 280.438 2.675.308L247 281c-3.282 2.188-4.657 2.342-8.506 2.61-1.12.082-2.239.162-3.392.245-1.816.115-1.816.115-3.668.23-1.26.085-2.52.168-3.817.254-12.515.79-25.018 1.118-37.554 1.286l-3.64.057c-41.135.633-82.284.407-123.423.318v-1l2.85-.031c55.74-.597 55.74-.597 111.475-1.41q3.531-.059 7.062-.113 4.833-.077 9.668-.165l2.785-.04c4.806-.096 9.401-.497 14.16-1.241q2.549-.185 5.102-.281l2.734-.114 5.601-.21 2.727-.114 2.452-.092c11.408-.906 11.408-.906 12.696-.752"/><path fill="#9465E3" d="m291 276 2 1-1.54 1.398c-8.352 7.915-12.618 15.821-15.6 26.914C275 308 275 308 273 310c-1.204 14.452-1.204 14.452 2.102 28.113C276 340 276 340 275 343v-2h-3l-.184-1.934-.253-2.503-.247-2.497c-.105-2.053-.105-2.053-1.316-3.066-1.742-8.708-1.347-18.323 1.105-26.84 1.241-3.029 1.241-3.029-.105-5.16.75-2.187.75-2.187 2-5l1.313-3.437c1.925-4.065 3.434-6.458 6.687-9.563 3.813-.875 3.813-.875 7-1l1-3z"/><path fill="#B897E8" d="M320 264c3-.082 5.999-.14 9-.187l2.543-.077c5.899-.068 10.011 1.046 15.457 3.264l2-1c2 1.375 2 1.375 4 3v2c3.386 1.51 3.386 1.51 7 2l1 2 3 1c4 4.457 4 4.457 4 7h2v3h2c7.964 16.84 11.746 32.684 6 51l-.562 2.313C377 341 377 341 376 343h-2l-1 3c-.803-2.31-1.177-3.533-.293-5.86l1.106-1.89c5.424-10.286 5.808-22.906 3-34.125-2.59-8.083-6.246-14.763-11.813-21.125v-2h-2v-2l-1.562-.75c-3.21-1.646-6.314-3.448-9.438-5.25v-2l-2.312-.437C347 270 347 270 344 269v-2l-3.25.063C337 267 337 267 335.188 266.53c-2.967-.72-5.895-.88-8.938-1.094l-3.547-.253L320 265z"/><path fill="#B270BC" d="M76 121h125v2l1.875.875c3.339 1.768 4.046 2.885 5.238 6.531 1.228 5.346 1.137 10.635 1.082 16.094l-.008 3.261c-.011 3.413-.036 6.826-.062 10.239l-.027 6.973q-.034 8.514-.098 17.027h-2v3l-2-1 .983-2.377c1.295-4.613 1.304-8.822 1.283-13.588l.005-2.883q.002-3.01-.01-6.019c-.011-3.057 0-6.113.012-9.17q0-2.933-.007-5.865l.012-2.75c-.038-5.188-.66-9.421-2.278-14.348v-2l-2.25-.875C200 125 200 125 198.145 123.945c-2.565-1.13-4.42-1.191-7.22-1.186l-3.101-.008-3.386.022h-3.578q-4.85.002-9.699.024c-3.38.013-6.761.014-10.142.016q-9.6.011-19.198.043c-7.287.022-14.573.033-21.86.043q-22.48.032-44.961.101z"/><path fill="#DB9E4D" d="M385 121h2c1.06 3.178 1.115 5.426 1.098 8.762l-.01 3.388-.026 3.537-.013 3.573q-.018 4.37-.049 8.74l2-1a95 95 0 0 1 5.125-.062l2.758.027L400 148v2l2.773-.07 3.602-.055 3.586-.07C413 150 413 150 415 152c-2.694 2.694-10.744 1.186-14.375 1.188l-3.812.037-3.649.005-3.36.013C387 153 387 153 384 151c-.356-2.873-.356-2.873-.328-6.504l.015-3.932.032-2.05c.03-2.072.04-4.143.047-6.215.08-10.145.08-10.145 1.234-11.299"/><path fill="#E8B753" d="M73 45h218v1H73z"/><path fill="#8E61DF" d="M74 232h1l.625 3.5c2.27 8.86 10.25 17.132 17.375 22.5 3.69.849 3.69.849 7 1 2.96-3.364 3.923-6.692 5-11h1c-.491 6.366-.997 12.693-2 19l8 2v1c-1.457.081-2.916.14-4.375.188l-2.46.105L103 270c-2-3-2-3-1.625-5.687L102 262l-1.625 1c-2.98 1.254-5.168 1.273-8.375 1l-3-2v-4h-3v-2l-1.687-.687c-3.943-2.238-6.847-4.701-8.126-9.125L76 244h-2z"/><path fill="#E09D3B" d="m46 50 2 1v3l2 1-1.426 1.54-1.886 2.085-1.864 2.04c-4.103 5.254-5.28 9.623-5.074 16.21l.033 2.133c.1 4.73.44 9.33 1.217 13.992-2.852-3.72-4.108-5.873-4.316-10.57l-.127-2.715-.12-2.84-.13-2.863Q36.147 70.506 36 67c-2.252 4.567-2.424 8.823-2.625 13.813l-.117 2.388A883 883 0 0 0 33 89h-1c-2.028-9.885-1.645-20.388 3.324-29.402C38.327 55.366 41.51 52.566 46 50"/><path fill="#A72A0D" d="m326.813 297.875 2.957.055 2.23.07v2l1.625.188c3.578 1.224 5.717 3.154 8.375 5.812.875 3.313.875 3.313 1 6h-3c-1.245-2.49-.777-3.41 0-6q-2.343-.722-4.687-1.437l-2.637-.81c-2.546-.716-5.076-1.27-7.676-1.753l1.129 1.863 1.433 2.45 1.442 2.425C330 311 330 311 329 314l-2-3c-5.373-2.48-11.177-2.606-17-3 1.83-4.942 3.494-6.816 8.273-9.074 3.023-1.026 5.36-1.128 8.54-1.051"/><path fill="#7A3BD7" d="M67 127v3l-1 1a98 98 0 0 0-.114 5.346v3.458l.016 3.762.005 3.83q.007 5.047.024 10.096.014 5.147.02 10.295.017 10.106.049 20.213h3v2c-1.812-.125-1.812-.125-4-1-5.82-8.408-4.186-20.708-4.185-30.524-.003-2.236-.02-4.47-.04-6.706q-.005-2.16-.005-4.317l-.013-3.901c.241-3.528 1.057-6.244 2.243-9.552-.276-2.288-.276-2.288-1-4z"/><path fill="#6C16AC" d="m303 200 1 2c-1.152 2.145-1.152 2.145-2.937 4.813l-1.942 3.046C297 213 297 213 294.785 215.703 286.621 226.51 287.79 238.97 288 252l-8-3 1-4.062c.706-3.102.991-5.462.938-8.688.071-3.74 1.042-5.18 3.062-8.25.707-2.693.707-2.693 1-5h2l.75-2.75c1.3-3.378 2.652-4.825 5.25-7.25v-2h2l.875-2.25c2.625-6.417 2.625-6.417 6.125-8.75m-23 35 2 1Z"/><path fill="#4E25AC" d="M61 289h201l-1 2-200-1z"/><path fill="#602DC3" d="M306 380c1.898.563 1.898.563 4 2 .977 3.188.977 3.188 1.625 7 .638 5.03.638 5.03 3.375 9 2.618.372 2.618.372 5.664.414l3.399.117 3.562.094 3.586.117q4.394.142 8.789.258l1 4q-6.112.111-12.225.165-2.08.022-4.159.061c-1.993.037-3.986.052-5.98.067l-3.633.048C312 403 312 403 310.17 401.687c-1.875-2.703-2.748-5.645-3.795-8.75-1.487-4.552-1.487-4.552-3.375-8.937l4 1v3h2v-4h-2z"/><path fill="#C2BCCC" d="M341 145c4.41.85 8.61 1.696 12.688 3.625 3.187 1.595 3.187 1.595 6.375 1.25 4.299.183 5.796 2.27 8.937 5.125h2v3l2.313.813c2.577 1.138 3.957 2.001 5.687 4.187v2h2c1.508 2.117 1.508 2.117 3.125 4.875l1.633 2.742C387 175 387 175 387 177h2c2.286 8.429 2.286 8.429 2 13-2.34-2.34-3.24-4.497-4.625-7.5-7.4-14.981-19.989-26.93-35.773-32.754a204 204 0 0 0-6.301-1.922C342 147 342 147 341 145"/><path fill="#9B67E5" d="M361 375c2.742 1.095 5.258 2.372 7.836 3.809 2.235 1.315 2.235 1.315 5.164 2.191 3 4.333 3 4.333 3 7-4.79-.32-8.133-1.46-12.437-3.625-5.17-2.453-8.063-3.045-13.563-1.375-1.952 1.768-1.952 1.768-3 4l-2 3v-10l4-2v-2c3.525-1.762 7.153-1.54 11-1"/><path fill="#E3A750" d="M132.375 137.375c1.227.1 2.454.199 3.719.3L140 138c2.625.195 5.25.378 7.875.563l3.555.253L154 139v1l-2.004.076q-4.467.175-8.934.362l-3.154.119-2.998.127-2.777.11c-2.115-.024-2.115-.024-3.133 1.206-.158 2.07-.251 4.147-.316 6.223l-.127 3.818-.12 4.022-.13 4.033q-.16 4.951-.307 9.904h-1l-.184-3.578-.254-4.672-.119-2.355-.127-2.286-.11-2.094c-.153-2.038-.153-2.038-.757-4.041-.695-3.057.088-5.905.551-8.974-1.125-1.356-1.125-1.356-4.062-1.062L121 141l-.875 3.063L117 155h-1q-1.004-3.187-2-6.375l-1.125-3.586C112 142 112 142 112 140l-6-1v-1h16c.917-.26.917-.26 1.852-.523 2.935-.652 5.53-.355 8.523-.102"/><path fill="#A773EE" d="m318.188 290.375 3.292.336L324 291c-4.625 4.875-4.625 4.875-8 6l-.25 2.25c-.896 3.285-2.263 4.496-4.75 6.75l-1 2h-2l-1 13h-3v-15l4-2v-5h2l-2-2c.188-2.5.188-2.5 1-5 3.644-2.43 4.93-2.083 9.188-1.625"/><path fill="#8B50E4" d="M332 287c2.195 1.945 2.195 1.945 4 4 2.632 1.254 2.632 1.254 5 2l-1 4-5 1v-2q-3.626.426-7.25.875l-2.066.238c-3.591.453-6.577.98-9.684 2.887v-3c1.531-1.387 1.531-1.387 3.5-2.687L323 292l-9-1v-2c5.618-2.497 11.96-2.993 18-2"/><path fill="#CA7730" d="M36 66h1l.012 1.737C36.856 84.152 36.856 84.152 43 99c2.332 1.984 4.11 2.867 7 4v2c-7.386-.37-7.386-.37-10.25-3.312L38 99l-2.187-2.125c-3.902-4.036-3.033-9.427-3.063-14.687l-.062-2.698c-.032-5.287.416-8.88 3.312-13.49"/><path fill="#DFC1AD" d="M65 68c3.563 5.345 2.014 11.917 1 18h3l2-2v4c4.268 1.164 7.71 1.112 12 0 2.531-2.45 2.957-4.302 3.172-7.777.014-2.749-.042-5.478-.172-8.223l2 1c1.029 11.01 1.029 11.01-1.137 15.2-3.587 3.586-7.004 4.19-11.988 4.362C70.366 92.476 67.687 91.61 64 89c-3.606-3.979-3.489-8.264-3.371-13.395C61.12 72.157 62.443 70.318 65 68"/><path fill="#82319C" d="M233 126h1l.076 2.187q.175 4.875.362 9.75l.119 3.444.127 3.271.11 3.031c-.047 2.278-.047 2.278 1.206 3.317 2.07.158 4.147.251 6.223.316l3.818.127 4.022.12 4.033.13q4.951.16 9.904.307v1c-1.645.09-1.645.09-3.324.184l-4.363.254-2.186.119c-3.794.225-7.414.571-11.127 1.443v2q-2.187.039-4.375.063l-2.46.035C234 157 234 157 232 156c-2.115-5.455-2.087-9.27-1-15l1-1c.04-1.666.043-3.334 0-5l-3 1-2-3c1.313-2.5 1.313-2.5 3-5h3z"/><path fill="#D69A63" d="M204 127c4.336 4.336 4.239 10.514 4.304 16.322l-.003 2.74.013 2.88q.008 3 .002 6c-.003 3.049.02 6.096.045 9.144q.004 2.925.002 5.851l.028 2.741c-.04 5.538-.85 9.385-3.391 14.322-1.319-2.637-1.12-4.598-1.114-7.551v-3.519l.016-3.813.005-3.892q.006-5.125.024-10.249.014-5.227.02-10.456.016-10.26.049-20.52"/><path fill="#763ED7" d="m39 101 7 3v2c6.141 2.119 11.973 2.423 18.438 2.625l3.083.117q3.74.141 7.479.258v1c-3.625.059-7.25.094-10.875.125l-3.07.05-3.047.02-2.761.032C50.78 109.915 46.39 108.878 42 108l-2 53h-1z"/><path fill="#7330DE" d="M341 293c2 1.688 2 1.688 4 4 .043 1.666.04 3.334 0 5l1.516 2.14c1.978 3.812 1.59 7.037 1.171 11.173l-.185 2.244c-.152 1.815-.325 3.63-.502 5.443h-1v-11h-2v-4h-2l-1.75-2.312c-2.499-2.985-4.711-4.16-8.25-5.688v-2l-2.3.219-3.012.281-2.989.281C321 299 321 299 318 299c2.805-2.805 4.885-2.961 8.797-3.098l2.953.036 2.984.027L335 296v2c2.496-.781 2.496-.781 5-2z"/><path fill="#9359E5" d="m277 246 3 3-3 1 .375 2.688c-.375 3.312-.375 3.312-3.062 6-2.66 1.962-5.474 3.624-8.313 5.312-1.876 1.21-1.876 1.21-3 3-.25 3.125-.25 3.125 0 6-4.875-4.625-4.875-4.625-6-8l1.54-1.285c4.079-3.476 7.733-7.011 11.147-11.14 2.185-2.621 4.245-5.04 7.313-6.575"/><path fill="#CF8347" d="m234 122 3 1q.255 4.25.5 8.5l.145 2.398c.289 5.044.401 10.05.355 15.102l2.171.06c3.235.095 6.47.205 9.704.315l3.418.094 3.262.117 3.015.095C262 150 262 150 264 152q-5.926.075-11.853.11c-2.006.015-4.012.04-6.018.066l-3.809.02-3.523.031C236 152 236 152 234 150c-.227-2.797-.227-2.797-.195-6.32l.02-3.809.05-3.996q.016-2.01.027-4.02.036-4.927.098-9.855"/><path fill="#C37C49" d="m309 122 3 1v27l6.125-.062c7.334-.008 14.565.44 21.875 1.062l-1 2c-9.706.168-19.322-.358-29-1l-3-7h2z"/><path fill="#EDEBEE" d="M88 240c3.364.25 4.14 1.158 6.438 3.75l1.257 1.617c1.923 2.407 4.097 4.488 6.305 6.633-.75 2.438-.75 2.438-2 5-2.125.813-2.125.813-4 1l-1-3a90 90 0 0 0-4-2l-1-2c-2.017-1.134-2.017-1.134-4-2 .588-3.024 1.227-6.018 2-9"/><path fill="#D7BAF7" d="M266 131q7.499-.037 14.996-.055 2.548-.008 5.095-.02c2.45-.013 4.9-.018 7.35-.023l2.277-.015c4.531 0 8.81.368 13.282 1.113v13c-6.75 3-6.75 3-9 3a82 82 0 0 1 3.563-8.062c1.18-2.413 1.854-4.358 2.437-6.938l-3.026.016q-5.586.026-11.17.039-2.413.008-4.825.02c-2.319.013-4.637.018-6.956.023l-2.16.015c-4.062 0-7.878-.325-11.863-1.113z"/><path fill="#EBE8EE" d="M137 212c5.353 3.393 10.378 8.8 14 14v2l-3-1v-2c-2.906-1.257-4.796-2-8-2v3c-3.913-1.304-6.373-2.79-9-6v-3h-2l-1 4c-.25-2.812-.25-2.812 0-6 2.764-3.07 4.99-3.403 9-3"/><path fill="#804CD9" d="M288 360h2l1 2c10.564 6.135 19.737 9.286 32 9v-1h14l-1 2h-3v2c-12.796 2.607-21.175 1.088-33-4a986 986 0 0 0-5-2v-2l-2.375-.75c-2.948-1.404-3.527-2.257-4.625-5.25"/><path fill="#6833D0" d="m244 327 1 2c3.643 2.332 7.84 3.03 12 4v2l3.25.5c2.516.7 3.531 1.215 5.14 3.309 1.078 2.068 2.003 3.938 2.61 6.191l-1 3-1.375-2.187c-5.407-5.794-13.317-8.227-20.691-10.723C243 334 243 334 242.098 332.066 242 330 242 330 244 327"/><path fill="#8245DF" d="m203.172 279.832 2.314-.01q2.405-.007 4.81-.007c2.46-.003 4.92-.02 7.38-.04q2.341-.005 4.683-.005l2.232-.022c5.18.023 5.18.023 7.409 2.252l-1.817.076c-2.748.117-5.497.24-8.245.361l-2.858.12-2.803.127-2.555.11c-2.82.176-2.82.176-5.976.72-4.355.565-8.576.611-12.96.584l-2.594-.005c-2.71-.005-5.42-.018-8.13-.03q-2.77-.008-5.54-.014A6319 6319 0 0 1 165 284v-1c5.925-.937 11.785-1.32 17.771-1.605l2.17-.114 1.928-.092c2.244-.165 2.244-.165 4.874-.696 3.822-.578 7.574-.655 11.429-.661"/><path fill="#D9CBE8" d="m267 156 1 3c-.926 1.79-.926 1.79-2.312 3.625l-1.364 1.852C263 166 263 166 261 167a506 506 0 0 0-2 6l-2 2c-1.286 2.814-2.163 5.58-3 8.563-1.574 5.41-1.574 5.41-3 7.437-2.625 1.25-2.625 1.25-5 2 3.937-14.286 10.137-26.655 21-37"/><path fill="#DEB288" d="m242.152 119.867 3.791-.004 3.994.012 3.983-.012 3.795.004 3.504.004C264 120 264 120 266 121v29l-2 1-.184-3.875-.253-5.125-.12-2.543A179 179 0 0 0 262 124l-2.048-.168q-4.602-.38-9.202-.77l-3.223-.263-3.105-.264-2.857-.238A41.3 41.3 0 0 1 235 121c1.826-1.826 4.701-1.13 7.152-1.133"/><path fill="#7F2BC8" d="m69 190 2.28.98c5.11 1.401 9.957 1.328 15.233 1.339l3.49.03c3.799.031 7.597.048 11.395.065q3.956.028 7.911.059 9.339.068 18.678.116c7.091.039 14.182.088 21.272.138q21.87.155 43.741.273v1q-23.366.07-46.73.104-10.85.014-21.699.047-9.455.03-18.91.037-5.008.004-10.015.023c-3.725.015-7.45.017-11.176.016l-3.357.022-3.076-.008-2.67.005c-2.542-.264-4.176-.965-6.367-2.246z"/><path fill="#E1C1B8" d="M106 67h2c-.375 2.938-.375 2.938-1 6l-2 1c-.362 5.863-.362 5.863 2 11a113 113 0 0 0 5 3l1 2 1.625-.437c2.774-.658 5.56-1.115 8.375-1.563l2-8h3l-1-8 2 1c.68 5.443.448 9.054-2.875 13.563-1.617 2.003-1.617 2.003-3.125 3.437h-2v2c-9.768.462-9.768.462-14-1.125-4.018-3.767-5.194-7.484-5.437-12.875.139-4.857 1.21-7.394 4.437-11"/><path fill="#E8D098" d="M339 121h2l1 8h40v-7h1v8h-42l1 19-2 2-2-1c-1.272-7.08-1.236-13.159 1-20 .17-3.009.123-5.99 0-9"/><path fill="#9760F0" d="m126 216 .8 1.762c1.25 2.331 2.631 4.077 4.388 6.05l1.859 2.09c2.465 2.648 5.039 5.168 7.668 7.653C142 235 142 235 142 237a91 91 0 0 1-4 4l-3-1-.875-2.812c-1.334-3.78-3.006-4.808-6.125-7.188v-3l-3 1q-.04-2.437-.062-4.875l-.036-2.742C125 218 125 218 126 216"/><path fill="#D4D0E7" d="m78 228 3 2-.687 2.563c-.394 4.326.675 6.629 2.687 10.437 1.541 1.71 1.541 1.71 3 3l1 3 1.75.813C91 251 91 251 93.438 254.063c2.264 3.114 2.264 3.114 5.374 3.812L101 258l-1 2c-5.885-.136-8.418-1.74-12.494-5.918l-1.819-1.957-1.876-1.934c-4.723-4.912-7.085-7.721-6.999-14.816l.02-3.54C77 229 77 229 78 228"/><path fill="#9B66E9" d="m407 331 1 3c-5.676 3.784-12.13 7-19 7 .523-2.763 1.109-5.326 2-8 5.35-2.893 10.174-3.364 16-2"/><path fill="#804CE0" d="M278 293c1.556 3.112.204 5.254-.812 8.5l-1.083 3.531C275 308 275 308 273 310c-1.204 14.452-1.204 14.452 2.102 28.113C276 340 276 340 275 343v-2h-3l-.184-1.934-.253-2.503-.247-2.497c-.105-2.053-.105-2.053-1.316-3.066-2.227-11.137-.55-22.347 3-33h3z"/><path fill="#DF7F25" d="M189 137h5l1 43h-4l1-30h-2q-.254-2.124-.5-4.25l-.281-2.39C189 141 189 141 189 137"/><path fill="#AE84E7" d="M119.813 200.688c3.588.351 5.382 1.068 8.187 3.312.813 2.188.813 2.188 1 4h4v2l2.688.25c3.8.86 5.573 2.011 8.312 4.75.813 2.25.813 2.25 1 4-2.564-1.099-4.033-2.037-5.937-4.125-1.915-2.09-1.915-2.09-4.563-2.25-2.553.383-4.29 1.066-6.5 2.375v5l-3-2 1-12-9-3-1 5h-1c-.125-2.375-.125-2.375 0-5 2-2 2-2 4.813-2.312"/><path fill="#D8CAF7" d="M128 221c4 1.745 6.313 4.265 9.219 7.441 1.943 1.7 3.26 2.156 5.781 2.559.625 2.813.625 2.813 1 6l-2 3h-2v2c-1.68 1.656-1.68 1.656-3.875 3.5-2.115 1.79-4.165 3.54-6.125 5.5v4l9 2c-3 3-3 3-5.437 3.5-2.563-.5-2.563-.5-4.938-2.687C127 255 127 255 127.125 252.609c1.109-3.306 2.708-4.806 5.25-7.172 2.306-2.167 4.42-4.157 6.29-6.714L140 237h2c-4.06-4.752-8.215-9.31-12.715-13.652C128 222 128 222 128 221"/><path fill="#8148DE" d="M263 273c3.133 2.563 3.93 5.151 5 9 .3 3.324.3 3.324.313 6.688l.05 3.386C268 295 268 295 266.68 296.82c-2.383 1.674-4.902 2.377-7.68 3.18v-2h-2v-2l2.375-2.25c2.767-2.898 3.645-4.92 4.625-8.75h2l-.937-3.187c-.82-2.94-1.518-5.815-2.063-8.813"/><path fill="#7A4AD3" d="M74 232h1l.625 3.5C78.049 244.964 86.214 251.455 93 258c-2.667 1.333-4.167.671-7 0v-2l-1.687-.687c-3.943-2.238-6.847-4.701-8.126-9.125L76 244h-2z"/><path fill="#C6845B" d="M67 131h1l1 53-1-2h-2q-.037-10.654-.055-21.307-.008-3.628-.02-7.255c-.013-3.468-.018-6.935-.023-10.403l-.015-3.298v-3.034l-.007-2.685C66 132 66 132 67 131"/><path fill="#A175E3" d="M145 219c2.777.355 3.791.754 5.633 2.926l1.492 2.387 1.508 2.363c2.258 3.838 3.639 6.359 3.554 10.887l-.019 2.316C157 242 157 242 156 245l-1.937.438L152 246l-.875 1.75c-1.333 2.667-3.15 3.99-5.46 5.813-2.897 2.501-5.257 5.474-7.665 8.437l-2-1v-2c1.504-1.48 1.504-1.48 3.563-3.187 10.197-8.175 10.197-8.175 14.875-19.75-.145-4.246-1.861-6.705-4.438-10.063l-1-3c-2-1.209-2-1.209-4-2z"/><path fill="#F1DFD0" d="M95 141c.534 1.412 1.052 2.83 1.563 4.25l.878 2.39c.604 2.551.406 3.913-.441 6.36-1.945-2.918-2.453-4.625-3-8l-2 1v16c-4.353-6.53-5.437-14.286-5-22 3.29-1.097 4.713-.8 8 0"/><path fill="#D88F3E" d="m42 57-.632 1.58c-2.3 6.213-2.895 11.892-3.056 18.483l-.103 2.912A699 699 0 0 0 38 87h-1l-1-20c-1.878 4.626-1.878 4.626-2.414 9.207l-.117 2.275-.094 2.33-.117 2.39A883 883 0 0 0 33 89h-1c-1.89-9.214-1.475-18.177 2-27 2.12-2.714 4.36-5 8-5"/><path fill="#E5B86B" d="M155 154h1c.08 3.541-.027 6.594-1 10v2h-16v-6l15-1z"/><path fill="#CF9658" d="M62.563 67.938 65 68l-1.5 1.813c-2.51 5.335-2.383 11.337-.645 16.949.993 2.486.993 2.486 3.77 3.55L69 91l-2 1c-3.062-1.25-3.062-1.25-6-3l-1-3h-4c-.557-11.593-.557-11.593 3-17 1-1 1-1 3.563-1.062"/><path fill="#B997E8" d="M296 310h1l.367 2.816c1.245 9.22 1.245 9.22 3.633 18.184l5-1-1 7 4 2-1 2 2.75.875c2.58.893 4.855 1.842 7.25 3.125l2 1c-2.388.85-3.636 1.12-6.078.32-7.368-4.055-13.739-9.52-16.922-17.507-1.706-6.106-1.241-12.538-1-18.813"/><path fill="#DDA983" d="m326.875 230.625 3.918-.113 3.762-.035 3.452-.06C341 231 341 231 343.33 233.384 346.884 238.948 348 244.4 348 251c-2.632-2.632-3.404-5.614-4.562-9.062-1.17-4.298-1.17-4.298-3.438-7.938-2.049-.1-4.101-.13-6.152-.133l-3.791-.004-3.995.012-3.982-.012-3.795.004-3.504.004c-2.738-.061-2.738-.061-4.781 1.129l1-3c4.577-2.289 10.85-1.32 15.875-1.375"/><path fill="#E4A74B" d="m92.934 137.734 3.504.016 3.496-.016C103 138 103 138 106 140l-1.363 1.113c-2.167 2.498-2.844 4.93-3.825 8.075l-1.042 3.292L99 155h-1l-3-13-5-1-2-1c2-2 2-2 4.934-2.266"/><path fill="#9345A6" d="M344 324h2c.436 5.088-1.3 7.704-4.25 11.688-4.735 3.55-10.81 3.585-16.5 3.562l-3.922.016C318 339 318 339 315 337l1-2 2.938.5c7.647 1.018 12.823 1.334 19.433-3.113 1.889-1.48 1.889-1.48 3.629-4.387h2z"/><path fill="#C794D6" d="M325 98h2v22h-15v-1l12-1v-11h-5v2h-2l-1-4 2.813-1.812c3.071-1.966 3.071-1.966 4.937-3.938z"/><path fill="#CEC2EA" d="M336.271 285.709c2.24.9 4.386 1.89 6.542 2.978l2.045 1.028c3.924 2.149 6.431 4.1 8.142 8.285l-1 3-1.937-2.125c-6.924-6.904-14.317-10.93-24.125-11.063-3.789.025-7.244.34-10.938 1.188l1-3c5.58-2.79 14.363-2.136 20.271-.291"/><path fill="#A3554E" d="M289 224h1v28l11 1v-2h2l1-8 3-1-3 10h-2v2c-3.03 1.515-5.651 1.17-9 1a97 97 0 0 1-5-2q-.042-6.687-.062-13.375l-.026-3.852-.01-3.671-.016-3.396C288 226 288 226 289 224"/><path fill="#F4E4CB" d="M124 139.75c3 .25 3 .25 5 2.25-.452 5.57-1.822 10.998-3.062 16.438l-.565 2.505q-.684 3.03-1.373 6.057h-1c-.174-5.468.467-10.45 1.5-15.812 1.067-5.061 1.067-5.061 1.5-10.188h-4c-1.242 5.318-2.308 10.582-3 16h-4l-1-9 3 4 .367-2.117.508-2.758.492-2.742c.966-3.636 1.886-4.32 5.633-4.633"/><path fill="#7D40E3" d="M344 297c2.975 2.77 5.41 5.233 7 9-.08 2.33-.384 4.557-.742 6.86-.309 2.562.186 4.637.742 7.14-.278 2.921-.608 4.506-2.437 6.813C347 328 347 328 345 328l.473-3.543.59-4.644.314-2.33c.61-4.896.95-8.985-1.44-13.483-1.148-2.45-1.086-4.326-.937-7"/><path fill="#D8974B" d="m86 139 3 1-1 1c-.582 7.22 1.206 13.425 3.25 20.313l.91 3.283.918 3.142.825 2.845c1.257 2.77 2.545 3.827 5.097 5.417-2.25-.062-2.25-.062-5-1-1.598-2.374-2.819-4.44-4-7l-1.125-2.375c-1.036-3.108-1.689-6.228-2.312-9.441-.481-2.214-.481-2.214-1.61-4.172-1.118-2.36-1.22-4.038-1.203-6.637l-.016-2.352C84 141 84 141 86 139"/><path fill="#D36412" d="M192 134h4v45h-2l-.076-3.808q-.142-6.985-.296-13.972-.066-3.024-.125-6.05a3524 3524 0 0 0-.187-8.69l-.05-2.737-.06-2.547-.048-2.24c-.097-2.171-.097-2.171-1.158-4.956"/><path fill="#4E1FBA" d="M366.645 379.855c7.794 2.98 7.794 2.98 10.355 6.145v2c-5.803-.387-10.092-2.297-15.254-4.941-3.091-1.192-5.461-1.247-8.746-1.059l1-3c3.95-1.975 8.62-.446 12.645.855"/><path fill="#820F11" d="m326.688 297.813 3.011.082L332 298v2l1.625.188c3.578 1.224 5.717 3.154 8.375 5.812.875 3.313.875 3.313 1 6h-3c-1.245-2.49-.777-3.41 0-6-7.252-2.407-14.444-3.896-22-5 2.585-3.36 4.577-3.333 8.688-3.187"/><path fill="#925FD2" d="M283 157c0 3 0 3-2 6h-2l2 4c-6.625 2.875-6.625 2.875-10 4a93 93 0 0 0-1 4 125 125 0 0 1-3 4 179 179 0 0 0-2 4l-2 3h-2c2.624-11.078 12.852-22.578 22-29"/><path fill="#631E86" d="M66 130c1.24 2.482 1.084 4.044 1.022 6.817l-.061 3.033-.082 3.283-.072 3.354q-.116 5.319-.245 10.638l-.158 7.2Q66.21 173.161 66 182h2a373 373 0 0 1 4 6c1.297 1.369 2.618 2.717 4 4l-7-2v-2h-3c-.933-3.166-1.127-6.008-1.13-9.303l-.009-3.205.006-3.441-.003-3.54q0-3.702.006-7.402.005-5.688-.007-11.377 0-3.59.004-7.181l-.006-3.46.01-3.176.002-2.81C65 131 65 131 66 130"/><path fill="#9763E2" d="m392 368 3 2-17 17-4-4 1.75-.125c2.795-1.087 3.343-2.55 4.836-5.043 3.07-3.978 7.422-6.83 11.414-9.832"/><path fill="#5326C1" d="M275 334c2.418 3.045 4.225 6.203 6.063 9.625 3.76 6.57 8.351 11.295 13.937 16.375l-4 1v-2l-1.812-.75c-2.486-1.42-3.502-2.977-5.188-5.25l-3-1v-3h-2c-2.672-4.771-4-9.54-4-15"/><path fill="#D1C2F7" d="M109 236h1q-.211 3.219-.437 6.438l-.247 3.62C109 249 109 249 108 250a100 100 0 0 0-.5 4.813c-.262 3.17-.642 6.12-1.5 9.187l2 1v2h5l-.25-2.75c.25-3.25.25-3.25 2.25-5.625l2-1.625v5h-2l.063 2.438C115 267 115 267 114 268c-7.522.239-7.522.239-10-1 .378-10.684 2.5-20.643 5-31"/><path fill="#D6C8F0" d="M340 363h2v3l4 1c-13.08 4.569-28.272 4.814-41.187-.625L302 365c3.501-1.222 5.515-.733 8.988.426 6.16 1.8 11.823 1.921 18.2 1.762l3.173-.042q3.82-.051 7.639-.146z"/><path fill="#E8D6BE" d="M167 160q2.125-.04 4.25-.062l2.39-.036c2.267.094 4.189.466 6.36 1.098-.875 4.875-.875 4.875-2 6-1.853.072-3.708.084-5.562.063l-3.067-.028L167 167z"/><path fill="#6B27AC" d="M230 208c2.125.375 2.125.375 4 1l.076 2.08q.176 4.648.362 9.295l.119 3.273.127 3.125.11 2.889c.064 2.36.064 2.36 1.206 4.338h-3l-1-18-2 7-4 1 .938-2.75c.79-2.416 1.491-4.778 2.062-7.25l-3 1c1.074-2.915 1.778-4.778 4-7"/><path fill="#E1D0C5" d="m147 68 3 2-2 2.438c-2.722 3.996-2.373 7.895-2 12.562l3 1 1 2c3.179 2.002 6.313 2.497 10 3v1c-4.542.313-7.111.427-11.25-1.562-4.068-3.606-6.352-6.998-7.25-12.5.687-4.035 2.604-7.042 5.5-9.938"/><path fill="#D6CFF0" d="M352 301c1.86.258 1.86.258 4 1 4.347 5.77 4.943 13.038 4 20-1.023 2.324-1.023 2.324-2 4h-2l.105-2.273c.19-7.176-.641-13-3.105-19.727z"/><path fill="#E2BA6C" d="m117.188 63.813 3.292.082L123 64l1 3 3 1c3.456 2.815 4.618 6.158 5.836 10.348.209 3.376-.625 4.613-2.649 7.277A75 75 0 0 1 127 89l-3-1 2-2.437c2.2-3.381 2.828-6.286 2.645-10.305-1.285-4.5-4.68-7.04-8.645-9.258-4.24-.575-7.86-.003-12 1 2.645-3.536 4.947-3.324 9.188-3.187"/><path fill="#5D31BC" d="M295 361c2.537.988 5.023 2.01 7.48 3.184 8.916 4.13 17.874 5.498 27.52 6.816v1c-23.5.327-23.5.327-29.625-5.562L299 365c-2.1-1.176-2.1-1.176-4-2z"/><path fill="#D1C2F4" d="m117 203 8 1v1h-6l-.375 3.375C118 212 118 212 116 214c-.6 3.463-.957 6.929-1.34 10.422-.677 3.668-1.84 6.343-3.66 9.578-1.11-3.354-.869-5.61-.074-9.027l.666-2.9.72-3.01.686-2.999c1.056-4.526 2.194-8.771 4.002-13.064"/><path fill="#E7D8FA" d="M374 297c6.265 8.353 5.692 18.959 5 29-.72 3.47-1.674 6.716-3 10l-2-4h1c.84-5.313 1.282-10.568 1.563-15.937l.13-2.362q.157-2.85.307-5.701h-2z"/><path fill="#C4B6CC" d="M341 145c4.41.85 8.61 1.696 12.688 3.625 3.187 1.595 3.187 1.595 6.375 1.25 4.299.183 5.796 2.27 8.937 5.125h2v3h2v2c-4.862-.994-8.45-2.775-12.687-5.375-5.183-3.147-10.196-5.134-16.012-6.8C342 147 342 147 341 145"/><path fill="#874ECF" d="m265 150 1 2 3 1c-1.438 3.263-3.237 5.487-5.687 8.063-4.472 4.904-7.914 10.254-11.313 15.937l-1-2c.92-2.366 1.929-4.699 3-7l.875-2.125c1.62-2.701 3.903-4.653 6.125-6.875 2.016-2.952 3.348-5.479 4-9"/><path fill="#E5D8FB" d="M121 226h2c-.728 6.319-1.728 12.557-2.875 18.813l-.488 2.85-.504 2.732-.441 2.464c-.783 2.424-1.77 3.51-3.692 5.141v-6h2l-.14-1.879c-.35-8.59 1.681-15.987 4.14-24.121"/><path fill="#6A2ED5" d="M257 268c3.801 1.454 4.994 3.197 6.75 6.813l1.297 2.582c.997 2.727 1.139 4.727.953 7.605h-2l-1 3-.687-2.437L261 283c-2.548-.894-2.548-.894-5-1v-2h4l1-5h-3z"/><path fill="#5E1E9A" d="M236 234h28l-1 4c-2.562 1.25-2.562 1.25-5 2v-2l-20 1v-2h20v-2h-22z"/><path fill="#7E47C1" d="m303 200 1 2c-1.152 2.145-1.152 2.145-2.937 4.813-2.124 3.21-4.222 6.416-6.172 9.734l-1.051 1.774c-.987 1.673-1.966 3.35-2.945 5.027-1.863 2.607-2.927 3.592-5.895 4.652l1-5h2l.75-2.75c1.3-3.378 2.652-4.825 5.25-7.25v-2h2l.875-2.25c2.625-6.417 2.625-6.417 6.125-8.75"/><path fill="#E2A03D" d="M387 124h1v25l2-1a95 95 0 0 1 5.125-.062l2.758.027L400 148v2h13v1c-4.146.029-8.292.047-12.437.063l-3.588.025-3.409.01-3.158.016C388 151 388 151 387 150a115 115 0 0 1-.098-5.785l.01-3.545.026-3.732.013-3.745q.018-4.596.049-9.193"/><path fill="#551CC5" d="M258.563 281.938 261 282l2 4h-31c3.135-2.09 4.035-2.268 7.633-2.379l2.691-.103 2.801-.08q2.754-.09 5.508-.192l2.465-.072c2.61-.239 2.61-1.167 5.464-1.236"/><path fill="#9146B4" d="M310 235h3c.125 3.375.125 3.375 0 7l-2 2-1.25 3.438c-2.033 4.137-3.526 4.966-7.75 6.562v-2h2l.313-3.187c.68-3.77 1.62-5.67 3.687-8.813a123 123 0 0 0 2-5"/><path fill="#CABCED" d="M275 303h1l-.035 1.914c-.23 15.338-.23 15.338 3.336 30.11 1.048 2.962 1.367 5.86 1.699 8.976-6.626-7.572-7.172-17.463-7.125-27.062l-.012-2.393c.007-3.98.152-7.66 1.137-11.545"/><path fill="#EFE4FC" d="m300 299 1 2a57 57 0 0 1-1.937 3.75c-3.773 8.04-2.69 17.704-1.063 26.25l-2 1c-2.941-8.543-4.48-15.301-1-24l.938-2.625c1.087-2.431 2.384-4.316 4.062-6.375"/><path fill="#935ECF" d="M249 177h2q-.43 2.096-.875 4.188l-.492 2.355C249 186 249 186 248 188.437c-1.089 2.79-1.627 5.426-2.125 8.375l-.508 2.958L245 202h-9v-1l6-1 .586-3.176.789-4.137.383-2.091c.663-3.433 1.277-5.648 3.242-8.596a155 155 0 0 0 2-5"/><path fill="#CEBEDC" d="M309 132v13c-6.75 3-6.75 3-9 3a82 82 0 0 1 3.563-8.062c1.483-2.765 1.483-2.765 2-5.25L306 133c2-1 2-1 3-1"/><path fill="#7E49DA" d="m243 305 3 1v23h-3z"/><path fill="#965CE0" d="m318.188 290.375 3.292.336L324 291c-4.625 4.875-4.625 4.875-8 6l-.312 2.375C315 302 315 302 312 304h-3c2.055-4.69 5.343-7.479 9-11l-10 2c1.863-5.59 5.009-5.182 10.188-4.625"/><path fill="#8A4EE1" d="m277 246 3 3-7 1-.29 1.785c-.862 2.689-2.013 3.76-4.085 5.653-3.968 3.803-3.968 3.803-6.625 8.562.222 3.73.222 3.73 1 7-4.875-4.625-4.875-4.625-6-8l1.54-1.285c4.079-3.476 7.733-7.011 11.147-11.14 2.185-2.621 4.245-5.04 7.313-6.575"/><path fill="#9870D1" d="m360 358 1 2c-3.202 3.714-6.414 5.332-11 7h-3v2c-4.527 2.96-4.527 2.96-7 4-2.375-.625-2.375-.625-4-2l-1-2 2.422-.629c8.355-2.344 15.284-5.692 22.578-10.371"/><path fill="#E2A450" d="m308 226 14 1v2l6 1v1c-1.59.09-1.59.09-3.21.184l-4.165.254-2.117.119c-3.882.186-3.882.186-7.508 1.443l-2 3z"/><path fill="#E2BE70" d="M148 64c2.229-.054 4.458-.093 6.688-.125l3.761-.07c3.387.186 5.58.6 8.551 2.195.813 2.125.813 2.125 1 4h2c2.21 4.422 1.558 10.2 1 15-1.43 2.52-2.558 3.352-5 5l-2-1c1.375-2 1.375-2 3-4h2c.395-7.535.074-11.553-5.062-17.312-4.236-2.434-8.155-2.183-12.938-1.688l-3 1z"/><path fill="#C56842" d="M308 324c2.5 1.813 2.5 1.813 5 4v3l1.934.402 2.503.536 2.497.527C322 333 322 333 323 334c1.849.234 3.705.413 5.563.563l3.066.253L334 335c-2 2-2 2-3.918 2.23A247 247 0 0 1 323 337l-3.687-.125c-4.4-1.162-6.68-3.215-9.313-6.875-1.375-3.375-1.375-3.375-2-6"/><path fill="#7347D2" d="M356 309c1.93 7.724 1.432 14.806-2 22l-2 1 1-22c2-1 2-1 3-1"/><path fill="#673BC6" d="M273 307h1l.184 3.734c-.671 15.152-.671 15.152 2.816 28.266.04 1.666.043 3.334 0 5l-2-4-1.031-1.84c-3.506-7.818-3.653-23.108-.969-31.16"/><path fill="#EDE2FA" d="M351 272c4.623 1.813 8.324 3.547 12 7v2h2c1.91 2.266 1.91 2.266 4.063 5.25l2.16 2.953c1.531 2.41 2.347 4.018 2.777 6.797l-2 1-1.375-2.937c-1.283-3.134-1.283-3.134-3.625-4.063v-4h-2l-2-3h-3l-.25-1.875c-.563-2.31-.563-2.31-2.812-3.375L355 277v-2l-4-1z"/><path fill="#D7C8B6" d="M317 193h2c-.114 1.46-.242 2.917-.375 4.375-.07.812-.14 1.624-.21 2.46C318 202 318 202 316 204v2.938c0 3.062 0 3.062-2 6.062-.63 2.208-.63 2.208-1.062 4.563-.473 2.377-.852 4.266-1.938 6.437h-2q.426-2.876.875-5.75l.492-3.234c.572-2.725 1.312-4.602 2.633-7.016 1.524-4.953 2.764-9.97 4-15"/><path fill="#E5A03E" d="m186 144 3 1c1.649 7.478 3.143 15.345 2 23l-3 2-1-2h2l-.437-3.937-.247-2.215c-.135-1.86-.135-1.86-1.316-2.848a200 200 0 0 1-.562-7.562l-.131-2.155q-.159-2.64-.307-5.283"/><path fill="#C4A1C0" d="m313.066 190.902 2.497.036 2.503.027L320 191l-4 5v-2c-2.903.663-4.6 1.454-6.375 3.879q-1.293 2.15-2.512 4.344C306 204 306 204 304 205a78 78 0 0 0-2 5l-2-1c1.45-4.108 3.398-7.503 6-11h2l.938-2.937c1.398-4.032 1.398-4.032 4.128-4.16"/><path fill="#D5C6C4" d="M65 68c3.563 5.345 2.014 11.917 1 18h-2c-1.99-4.852-2.922-9.795-2-15 1.52-1.77 1.52-1.77 3-3"/><path fill="#662AD1" d="M255 281v3c-13.016.768-25.961 1.133-39 1v-1l2.443-.152c3.686-.233 7.372-.478 11.057-.723l3.844-.238c7.766-.496 7.766-.496 15.375-2.02C252 280 252 280 255 281"/><path fill="#D17621" d="m385 148 3 2c2.906.369 2.906.369 6.2.414l3.661.117 3.827.094 3.86.117q4.726.142 9.452.258l-1 2c-4.458.029-8.917.047-13.375.063l-3.852.025-3.671.01-3.396.016C387 153 387 153 385 152z"/><path fill="#AC7AF2" d="M326 165h1v10h2c-.52 3.85-1.252 5.357-4 8a134 134 0 0 0-3 6c-1.053-2.737-1.037-3.89-.09-6.723 1.126-3.384 1.672-6.56 2.152-10.09.832-6.081.832-6.081 1.938-7.187"/><path fill="#E4B76D" d="m155 146 1 2-2 5-14-1v-4l3.027-.184 3.91-.254c1.288-.08 2.576-.162 3.903-.246 3.02.035 3.02.035 4.16-1.316"/><path fill="#F4C764" d="M386 120h29l1 3-29-1z"/><path fill="#B075CB" d="M267 119v11h5v1h-6v-10h-30l-2 5h-1c-.043-2-.04-4 0-6 2.768-2.768 11.005-1.5 14.75-1.625l3.906-.156 3.766-.133 3.456-.124C262 118 262 118 267 119"/><path fill="#C6B8EA" d="m281 344 4 1v3h2l1.75 2.813c2.493 3.531 4.415 4.397 8.25 6.187l1 3c2.504 1.219 2.504 1.219 5 2l-1 2c-8.229-2.314-15.025-10.367-20-17z"/><path fill="#E9B06C" d="M260 204h5v28h-2v-26l-3-1z"/><path fill="#DBBDB2" d="M383 131h1v12h-18c5.125-2.562 8.318-3.107 14-3v-2h2z"/><path fill="#4D10AD" d="m232 231 1 3 25 1v2h-20l-1 2c-2.5-1.187-2.5-1.187-5-3-.312-2.687-.312-2.687 0-5"/><path fill="#8C5FD7" d="M114 206h1c-.589 9.274-2.759 18.015-5 27h-1a1420 1420 0 0 1-.062-6.812l-.036-3.833C109 219 109 219 110 216h2l-.125-3.875c-.07-2.18-.07-2.18.125-4.125z"/><path fill="#EAA541" d="M140 138h46l-2 4-1-2c-3.396-.03-6.792-.047-10.187-.062l-2.909-.026-2.822-.01-2.587-.016c-2.536.046-2.536.046-5.125.683C157 141 157 141 154 140c-2.393-.226-4.79-.408-7.187-.562l-3.856-.254L140 139z"/><path fill="#D18023" d="M36 66h1l.044 1.833c.075 2.764.172 5.528.269 8.292l.068 2.883c.208 5.458.815 9.176 3.619 13.992-.312 2.375-.312 2.375-1 4-4.418-7.029-5.298-12.053-5.187-20.25l.001-2.797C34.86 67.14 34.86 67.14 36 66"/><path fill="#DFD5F3" d="M355 326h1c.081 1.457.14 2.916.188 4.375l.105 2.46L356 335l-3 2a90 90 0 0 0-2 4c-2.278 2.278-3.938 3.052-7 4-2.164-.45-2.164-.45-4-1l1.54-.742c7.109-3.861 10.92-9.636 13.46-17.258"/><path fill="#854CDF" d="M408 333c-2.486 3.73-5.062 4.356-9.125 5.688l-1.996.681A556 556 0 0 1 392 341c.238-2.352.238-2.352 1-5 4.572-3.446 9.48-4.698 15-3"/><path fill="#764BCA" d="M332 287c2.75 2.5 2.75 2.5 4 5l-3.125-.5c-6.264-.803-12.573-.58-18.875-.5v-2c5.721-2.543 11.853-2.907 18-2"/><path fill="#ECDEFB" d="M137 212c5.353 3.393 10.378 8.8 14 14v2l-3-1v-2l-2.375-.75c-3.08-1.466-3.295-2.236-4.625-5.25-1.73-2.313-1.73-2.313-4-4-2.668-.335-2.668-.335-5 0l-1 2h-2l-1 4c-.25-2.812-.25-2.812 0-6 2.764-3.07 4.99-3.403 9-3"/><path fill="#AD62BA" d="M208 135h1v49h-2v3l-2-1 .974-2.348c1.333-4.745 1.38-9.176 1.44-14.082l.059-3c.06-3.149.106-6.297.152-9.445l.117-6.422q.143-7.85.258-15.703"/><path fill="#F2E5FD" d="M89 232h2l-.902 2.102c-.398 2.827-.398 2.827 1.038 4.417 2.32 2.258 4.744 4.375 7.194 6.489 4.587 4.202 4.587 4.202 5.08 8.906L103 257l-3 1 .625-2.75c.393-3.403.396-4.555-1.625-7.25l-1.875-.937c-2.861-1.431-4.183-3.558-6.125-6.063l-3-2z"/><path fill="#DF8E2F" d="m384 205 2 1 .076 2.156q.176 4.829.361 9.656l.12 3.393.127 3.252.11 3c.114 2.665.114 2.665 1.206 5.543h-4z"/><path fill="#8A56D6" d="M320 177h2l-.875 2c-1.36 3.625-2.231 7.233-3.125 11l2 1h-9c0-3 0-3 1.875-5.187C315 184 315 184 317 184l.938-2.937C319 178 319 178 320 177"/><path fill="#F4E4CA" d="M155.688 64.375c5.375.134 8.026 2.163 11.816 5.8C170.509 73.84 170.086 77.464 170 82c-1.858-3.135-2.201-5.375-2-9l-3-1v-2l-3 1-1-3h-13c3.158-3.158 3.529-3.481 7.688-3.625"/><path fill="#7C40E6" d="M336 292q2.514.428 5 1l-1 4-5 1v-2l-15 1c3.493-3.493 4.388-3.408 9.125-3.625 3.753.139 3.753.139 6.875-1.375"/><path fill="#823EDC" d="M267 143h13v2q-2.435 1.005-4.875 2l-2.742 1.125C270 149 270 149 268 149l-1 2z"/><path fill="#D79B4D" d="M141 72h1l.297 2.45c.968 8.139.968 8.139 5.703 14.55a261 261 0 0 0 5 3v2c-3.403-1.059-6.014-2.009-9-4h-2c-2.49-3.764-2.03-6.866-1.625-11.25l.336-3.828z"/><path fill="#4617C1" d="M244 331q4.226 1.386 8.438 2.813l2.431.79 2.315.792c.707.235 1.414.47 2.142.714C261 337 261 337 262 340c-6.911-.471-12.722-3.206-19-6z"/><path fill="#D6C8F5" d="M294 277v2h-2l-.125 1.688c-1.092 2.886-2.867 3.97-5.246 5.828-4.124 3.758-7.105 8.896-7.629 14.484l-3 1c1.454-7.269 9.222-25 18-25"/><path fill="#AA67DF" d="M316.375 106.313 318 107c-2 3-2 3-4 4v-2l-1.5 1.438c-5.451 3.407-11.461 2.694-17.5 1.562 3.152-2.101 4.182-2.253 7.813-2.437 4.795-.37 9.109-3.836 13.562-3.25"/><path fill="#8853DD" d="M310 382c2 1 2 1 3.063 3.625.958 3.452 1.45 6.83 1.937 10.375 1.65 1.65 3.637 1.225 5.91 1.316l2.998.127 3.154.12 3.167.13q3.885.16 7.771.307v1c-3.77.087-7.541.14-11.312.188l-3.249.076-3.115.029-2.872.048C315 399 315 399 313.212 397.612c-3.111-4.136-3.536-10.59-3.212-15.612"/><path fill="#C7BBEC" d="M83 248c5.866 1.056 7.975 2.777 11.578 7.445 1.428 1.818 1.428 1.818 4.297 2.493L101 258l-1 2c-5.914-.35-8.418-1.692-12.437-6l-2.622-2.75C83 249 83 249 83 248"/><path fill="#955BE2" d="M313 235c2.113 3.17 2.253 3.506 1.75 7l-.266 2.063C314 246 314 246 312 249h-2l-.875 2.438C308 254 308 254 306 255c-2 .04-4 .043-6 0l3-2c4.028-3.042 6.51-5.125 8-10l1-1q.553-3.493 1-7"/><path fill="#641DBF" d="m283 240 2 2 2-1v10c-4.75-.875-4.75-.875-7-2q.463-1.97.938-3.937l.527-2.215C282 241 282 241 283 240"/><path fill="#F0DAD0" d="M130 146h1l.076 2.064q.176 4.624.362 9.249l.119 3.248.127 3.115.11 2.872c.12 2.588.12 2.588 1.206 5.452l21 1v1c-3.625.058-7.25.094-10.875.125-1.033.017-2.065.034-3.129.05l-2.988.02-2.761.032C132 174 132 174 130 172c-.227-2.614-.227-2.614-.195-5.883l.02-3.535.05-3.707.027-3.73q.036-4.573.098-9.145"/><path fill="#D27118" d="M160 134h32l1 3-33-2z"/><path fill="#5A26CA" d="M43 273c3.285 1.095 3.79 1.734 5.813 4.375C51.5 280.656 54.018 282.388 58 284l-4 2c-5.012-2.983-8.387-6.44-12-11z"/><path fill="#C491B1" d="M312 233q5.897-.185 11.798-.275a454 454 0 0 0 5.985-.164l3.799-.05c1.157-.025 2.315-.052 3.507-.079 2.911.568 2.911.568 4.738 2.86 1.376 3.175 2.319 6.357 3.173 9.708h-2v-2h-2l-.375-3.437L340 236c-2.682-1.341-4.884-1.215-7.883-1.316l-3.535-.127-3.707-.12-3.73-.13q-4.573-.16-9.145-.307z"/><path fill="#DFE2E9" d="M87 245c5.05 2.066 7.397 4.194 10 9v3l2 1-4-1v-2l-1.937-.875C91 253 91 253 90 251c-2.017-1.134-2.017-1.134-4-2z"/><path fill="#9D70E0" d="M80 221c2.125.375 2.125.375 4 1l-1.277 1.145c-5.14 5.163-5.697 9.721-5.723 16.855-2.49-2.49-2.297-3.375-2.312-6.812.101-5.436 1.47-8.346 5.312-12.188"/><path fill="#F0AF57" d="m132.375 137.313 3.719.328L140 138c2.624.2 5.25.381 7.875.563l3.555.253L154 139v1c-4.208.03-8.417.047-12.625.063l-3.605.025-3.497.01-3.205.016c-3.102-.115-6.021-.537-9.068-1.114 3.589-2.284 6.207-2.083 10.375-1.687"/><path fill="#8D38B4" d="m39 101 7 3v2c6.141 2.119 11.973 2.423 18.438 2.625l3.083.117q3.74.141 7.479.258v1c-3.667.088-7.333.14-11 .188l-3.121.076c-6.38.06-11.064-.601-16.879-3.264v-2h-5z"/><path fill="#7945D8" d="M354 376c7.616-.732 13.16 1.808 20 5l-1 2-2.379-.91c-8.204-3.098-8.204-3.098-16.621-2.09-1.923 1.416-1.923 1.416-3 3l-1-3 4-2z"/><path fill="#DDB686" d="m122 139 10 1-1 2c-.154 2.104-.25 4.212-.316 6.32l-.127 3.809-.12 3.996-.13 4.02q-.16 4.928-.307 9.855h-1l-.184-3.578-.254-4.672-.119-2.355-.127-2.286-.11-2.094c-.153-2.037-.153-2.037-.753-4.037-.706-3.083.014-5.899.547-8.978l-6-2z"/><path fill="#D79D5E" d="M100 76h1q.721 2.124 1.438 4.25l.808 2.39C104 85 104 85 104.45 87.23L105 89c2.39 1.106 2.39 1.106 5 2 1.813 1.625 1.813 1.625 3 3l-5-1v-2l-5-2v-2h-3c-2-3-2-3-1.687-6.062C99 78 99 78 100 76"/><path fill="#E0D2D5" d="m168 82 1 3h-2l-.812 1.875C165 89 165 89 162 91c-8.217.522-8.217.522-12-2l1-2 12 1v-2l5-2z"/><path fill="#9E3238" d="m343 308 1 4h2v12h-2v4c-2 1.75-2 1.75-4 3v-4h3q.039-2.375.063-4.75l.035-2.672c-.09-2.37-.518-4.296-1.098-6.578.438-2.75.438-2.75 1-5"/><path fill="#E7B66C" d="M162 139h22v2l2 1v12l-2 1 .035-1.863.028-2.45.035-2.425c-.001-2.43-.001-2.43-1.098-5.262-4.22-2.372-8.59-2.422-13.312-2.625l-2.245-.117A785 785 0 0 0 162 140z"/><path fill="#C69ACC" d="m345 245 .75 1.75c1.573 2.832 2.56 4.368 5.25 6.25 4.524.542 8.671.443 13-1v2l-6 1v2h-6v-2h-5c-1.604-3.508-2.22-6.144-2-10"/><path fill="#895FE1" d="M283 287c-1.074 2.915-1.778 4.778-4 7l-1.437 2.125L276 298h-3v2l-2-1a344 344 0 0 1 2.25-4.312l1.266-2.426c2.341-3.568 4.151-5.262 8.484-5.262"/><path fill="#E29530" d="M190 152h2c.029 4.292.047 8.583.063 12.875l.025 3.707.01 3.535.016 3.27C192 178 192 178 191 180h-2l-1-6h2z"/><path fill="#F0DDC0" d="m127 72 2 1c.655 5.241.477 9.049-2.562 13.5-2.254 2.711-3.801 3.985-7.313 4.5H116l1-2c3.063-.625 3.063-.625 6-1l2-8h3z"/><path fill="#9D6FEA" d="M263 347h2c-.366 5.614-2.099 9.624-4.746 14.57C259 364 257.976 366.45 257 369h-1c.387-5.809 2.305-10.232 4.844-15.45 1-2.204 1.67-4.189 2.156-6.55"/><path fill="#6D21A7" d="m323.258 296.805 3.867.07 3.883.055L334 297v2l2.875-.187L340 299c2 3 2 3 1.625 5.188L341 306l-4.395-3.809c-1.712-1.4-1.712-1.4-4.605-2.191v-2l-2.3.219-3.012.281-2.989.281C321 299 321 299 318 299c2-2 2-2 5.258-2.195"/><path fill="#6F35DB" d="m341 293 4 4-1 3-5 1v-1l-5-1v-2h-10v-1h11v2c2.496-.781 2.496-.781 5-2z"/><path fill="#E5C36A" d="m397.719 201.734 2.824-.007 2.957.023 2.957-.023 2.824.007 2.596.007C414 202 414 202 416 204l-1 2-24-2c2.49-2.49 3.285-2.257 6.719-2.266"/><path fill="#6B1EC4" d="M232 153h16v1l-5 1v2q-2.187.039-4.375.063l-2.46.035C234 157 234 157 232 156z"/><path fill="#844FDC" d="M261 342c3.374 1.396 5.446 2.633 7 6-.247 4.394-.921 7.953-4.125 11.063L262 360c.656-4.485 1.7-8.67 3-13h-2z"/><path fill="#DBDBE9" d="M279 296h1v6h-2v18l-2 1c-.893-6.582-.955-12.422 0-19l3-1z"/><path fill="#D9D7E0" d="M129 217h2v3l4 2v2l1.875.688c2.74 1.691 3.175 3.304 4.125 6.312-3.345-1.462-5.65-3.323-8.25-5.875l-2.14-2.055C129 221 129 221 129 217"/><path fill="#D9CCF7" d="M93 212h6c-1.25 2-1.25 2-3 4h-4v2c-1.645 1.621-1.645 1.621-3.812 3.438-2.499 2.107-4.912 4.214-7.188 6.562l-2-1c3.413-4.373 7.068-7.93 11.328-11.484 1.78-1.43 1.78-1.43 2.672-3.516"/><path fill="#EDDFC9" d="M121 140c1.487 3.867.34 6.203-1 10-.375 2.327-.72 4.66-1 7h-4l-1-9 3 4 .367-2.117.508-2.758.492-2.742C119 142 119 142 121 140"/><path fill="#AD8EE0" d="M308 294v3l-2.75 1.813c-5.138 3.895-5.88 11.235-7.25 17.187h-1c-.774-7.995 1.244-12.589 6-19 2.64-3 2.64-3 5-3"/><path fill="#D5944B" d="m107 161 3 1c.809 2.145.809 2.145 1.438 4.813 1.098 4.085 2.084 6.548 5.562 9.187-3.614-.67-6.269-1.49-9-4-.746-3.659-.93-7.272-1-11"/><path fill="#D78E54" d="M88 157c4.13 3.276 4.57 8.087 5.84 12.969 1.244 3.25 2.204 4.303 5.16 6.031-2.25-.062-2.25-.062-5-1-1.599-2.375-2.816-4.44-4-7l-1.25-2.562c-.893-2.903-.89-5.419-.75-8.438"/><path fill="#E3B76E" d="m91.066 138.902 2.496.036 2.504.027L98 139l.184 1.793c.54 5.106.54 5.106 1.504 10.144L100 153l-2 2-3-13-5-1-2-1c1-1 1-1 3.066-1.098"/><path fill="#DF9A3B" d="m58 72 2 1v13h-4c-.054-1.77-.093-3.541-.125-5.312l-.07-2.989C56 75 56 75 58 72"/><path fill="#5D2FCE" d="M345 297c2.468 1.152 4.048 2.048 6 4l1.563 1.188c2.145 2.705 2.12 5.446 2.437 8.812-3.773-1.258-4.175-2.494-6.125-5.875l-1.57-2.68C346 300 346 300 345 297"/><path fill="#7D54CC" d="m126 216 .8 1.762c1.25 2.331 2.631 4.077 4.388 6.05l1.859 2.09c2.465 2.648 5.039 5.168 7.668 7.653C142 235 142 235 142 237h-2c-1.445-1.504-1.445-1.504-3.125-3.562-2.583-3.09-5.21-5.58-8.375-8.063-2.031-1.7-2.031-1.7-3.5-3.375 0-3.437 0-3.437 1-6"/><path fill="#DDAD5E" d="M186 147h1l.184 2.59.254 3.347c.08 1.103.162 2.205.246 3.34.02 2.634.02 2.634 1.316 3.723.141 2.67.042 5.324 0 8h-2v2l-2-1c.095-.592.19-1.183.29-1.793.652-4.65 1.055-7.93-1.29-12.207l1-1q.553-3.493 1-7"/><path fill="#8B45C1" d="M310 152h17c-1 3-1 3-3 6-3.125.188-3.125.188-6 0l3-5h-11z"/><path fill="#7942E3" d="M271 317h1l.152 1.68c.233 2.525.478 5.047.723 7.57l.238 2.645.254 2.558.222 2.349c.31 2.256.31 2.256 1.513 4.295C276 340 276 340 275 343v-2h-3c-1.125-8.017-1.096-15.921-1-24"/><path fill="#D3CDD8" d="M373 159c4.875 2.625 4.875 2.625 6 6h2c1.508 2.117 1.508 2.117 3.125 4.875l1.633 2.742C387 175 387 175 387 177h-2l-1-5-3-1c-1.535-2.031-1.535-2.031-3.062-4.5-1.922-3.34-1.922-3.34-4.938-5.5z"/><path fill="#965EE5" d="m309 372 24 1v1c-7.856 1.6-15.3 2.961-23 0z"/><path fill="#C77740" d="M291 226q4.219-.04 8.438-.062l2.431-.026c2.044-.009 4.088.036 6.131.088 1.7 1.7 1.448 3.924 1.688 6.25l.324 2.89c-.013 3.1-.69 5.083-2.012 7.86h-1v-15l-16-1z"/><path fill="#9157CD" d="m307 126 2 1v5c-4.343.167-7.21.13-11-2a419 419 0 0 1 4.375-2.062l2.46-1.16z"/><path fill="#B85E2F" d="M37 96h2l1 2a87 87 0 0 0 5.063 2.625l2.785 1.352L50 103v2c-7.06-.24-7.06-.24-9.645-2.332C37 98.694 37 98.694 37 96"/><path fill="#F4D276" d="M330 65c2.45 3.742 2.23 7.442 2.125 11.75l-.027 2.113c-.024 1.713-.06 3.425-.098 5.137l-2 1V69h-2z"/><path fill="#9469DA" d="m351 331 2 2c-6.097 8.821-6.097 8.821-11 11h-2v-3l5-1v-3l3-1c1.699-2.498 1.699-2.498 3-5"/><path fill="#C49CC6" d="M299 209c1 2 1 2 .375 4.125-1.806 3.776-3.68 7.652-6.375 10.875h-3c1.388-3.89 3.215-6.966 5.625-10.312l1.914-2.676z"/><path fill="#CDAB63" d="M168 161h9l-1 5h-6z"/><path fill="#8B54D6" d="M283 157c0 3 0 3-2 6h-2l2 4c-1 1-1 1-3.562 1.063L275 168c.086-2.913.58-4.568 2.625-6.668A127 127 0 0 1 283 157"/><path fill="#DDC18E" d="M168 148h8v5h-7z"/><path fill="#6D2791" d="m65 178 1 4h2a373 373 0 0 1 4 6c1.297 1.369 2.618 2.717 4 4l-7-2v-2h-3z"/><path fill="#AD8BE2" d="M122 232h1c.38 6.754.059 12.84-3 19l-2 1q.713-4.438 1.438-8.875l.408-2.55.4-2.442.365-2.254C121 234 121 234 122 232"/><path fill="#D4BBEE" d="M252 176c1.517 3.033.524 5.235-.187 8.5l-.731 3.531C250 191 250 191 247.887 192.406L246 193c1.662-5.857 3.47-11.459 6-17"/><path fill="#7E4EDF" d="M303 384c1.855.137 1.855.137 4 1 1.3 2.582 1.3 2.582 2.313 5.813l1.05 3.207c.614 2.871.651 4.277-.363 6.98l-3.71-8.887A599 599 0 0 1 303 384"/><path fill="#BDA4E3" d="M296 310h1l.402 2.887.536 3.8.527 3.762c.469 3.426.469 3.426 1.164 6.258.395 2.44.146 3.967-.629 6.293-3.218-7.777-3.321-14.643-3-23"/><path fill="#D7D2EE" d="m325.938 284.813 2.208-.038c3.825-.01 5.598.054 8.854 2.225-4.754 1.118-9.206 1.037-14.062.938-2.78.059-5.238.427-7.938 1.062l1-3c3.144-1.572 6.49-1.184 9.938-1.187"/><path fill="#AE86E5" d="m325.938 262.875 2.36.027c1.901.024 3.802.06 5.702.098v1l-2.852.148-3.773.227c-1.23.07-2.46.14-3.727.21-3.496.398-6.339 1.275-9.648 2.415h-4v-2c5.47-1.845 10.188-2.253 15.938-2.125"/><path fill="#DACCF4" d="m117 203 8 1v1h-6l-.312 3.375L118 212l-3 2q.212-2.188.438-4.375c.08-.812.162-1.624.246-2.46C116 205 116 205 117 203"/><path fill="#8141D3" d="M291 152c1 3 1 3 .563 5.063-2.53 3.137-5.68 3.186-9.563 3.937 2.534-4.223 4.566-6.783 9-9"/><path fill="#6D3AD6" d="m244 327 1 2c3.643 2.332 7.84 3.03 12 4v1c-5.04.17-8.34.056-13-2l-2 1c.506-2.169 1-4 2-6"/><path fill="#7B4AD5" d="M103 258h1v9l8 2v1c-1.457.081-2.916.14-4.375.188l-2.46.105L103 270c-2-3-2-3-1.758-5.262l.633-2.425.617-2.45z"/><path fill="#E5C37E" d="m117.188 63.813 3.292.082L123 64l1 3 3 1c.688 2.063.688 2.063 1 4l-1.504-1.312c-3.492-2.863-5.61-4.583-10.183-5.126-2.812.372-5.557.77-8.313 1.438 2.645-3.536 4.947-3.324 9.188-3.187"/><path fill="#864EE2" d="M288 360h2l1 2a59 59 0 0 0 3.813 1.813c3.738 1.778 5.857 3.692 8.187 7.187l-1.75-.937c-2.093-.989-3.995-1.58-6.25-2.063v-2l-2.375-.75c-2.948-1.404-3.527-2.257-4.625-5.25"/><path fill="#B06CB4" d="m315 335 17 2v1a39 39 0 0 1-14 1l-3-2z"/><path fill="#C196F7" d="M405 300c2.288.915 3.734 1.655 5.25 3.625 1.11 3.514.873 6.698.75 10.375h-2v-8h-2l-2-2z"/><path fill="#750C36" d="m323.7 297.707 2.988.106 3.011.082L332 298v2l3 1h-17c3-3 3-3 5.7-3.293"/><path fill="#8A4EE4" d="m277 246 3 3-7 1-.309 1.797c-.805 2.565-1.807 3.63-3.753 5.453l-1.66 1.578L266 260l-2-1 1.46-1.39 1.915-1.86 1.898-1.828c1.706-1.898 2.611-3.652 3.727-5.922 2.125-1.25 2.125-1.25 4-2"/><path fill="#F1E1C7" d="m81 66 2 1c-3.311 1.104-5.247.927-8.687.563l-3.012-.31L69 67l-2 4-1-4c4.617-3.078 9.959-2.68 15-1"/><path fill="#3C11B2" d="M354 379c5.656-.566 9.226 1.286 14 4v2l-1.758-.656c-4.568-1.628-8.32-2.723-13.242-2.344z"/><path fill="#7D46DE" d="M276 344c1.5 1.375 1.5 1.375 3 3v2h2v3h2c1.86 2.592 3.572 5.144 5 8-3.09-1.351-4.97-2.79-7.125-5.375l-1.508-1.773c-2.243-3.039-3.367-5.03-3.367-8.852"/><path fill="#985FEC" d="M268 348h3c-.581 3.76-1.652 6.53-3.562 9.813l-1.38 2.394L265 362c-1.371-3.69-.6-5.709.938-9.25l1.152-2.703z"/><path fill="#9159E6" d="m267 292 1 3c-2.53 3.092-5.225 3.91-9 5v-2h-2v-2c2-1.625 2-1.625 4-3l2 1-1 1c1.975-.348 1.975-.348 4-1z"/><path fill="#9B65E3" d="m318.188 290.375 3.292.336L324 291l-2 3-3.062-.625c-4.433-.422-6.8.19-10.938 1.625 1.863-5.59 5.009-5.182 10.188-4.625"/><path fill="#BC6E28" d="m290 226 3 1-1 15h-2z"/><path fill="#AF8EE5" d="M145 219c2.73.361 3.798.776 5.668 2.855 2.837 4.354 5.058 7.802 5.332 13.145l-2-3-2.062-3C150 226 150 226 149 223c-2-1.209-2-1.209-4-2z"/><path fill="#E5CCCE" d="M247 192h1v9l8 1v1h-11c.875-9.875.875-9.875 2-11"/><path fill="#E7A33E" d="M141 70c1.312 2.623.896 4.23.563 7.125l-.31 2.758L141 82h-2l-2 2c-.5-6.118.751-9.025 4-14"/><path fill="#5020BF" d="m272 380 2.688 2.438c2.695 2.266 4.733 3.246 8.312 3.562-3.213 2.142-4.267 2.653-8 2-2.242-2.861-3-4.34-3-8"/><path fill="#5725C5" d="M259 368c2 0 2 0 4.688 2.25L266 373l-1 4-7-6z"/><path fill="#7536C4" d="M292 216c1 3 1 3-.687 6.563-1.711 2.825-3.069 4.394-6.313 5.437l1-5h2l.875-2.937C290 217 290 217 292 216"/><path fill="#7D3AD3" d="M230 128h3v7l-4 1-2-3c1.313-2.5 1.313-2.5 3-5"/><path fill="#E8A347" d="m317.25 100.938 2.703.027L322 101l-2 3a70 70 0 0 1-8.125.188l-2.285-.042A476 476 0 0 1 304 104c4.527-2.425 8.122-3.13 13.25-3.062"/><path fill="#DEC1B7" d="M144 84c4.875 1.75 4.875 1.75 6 4 3.179 2.002 6.313 2.497 10 3v1c-6.058.418-9.19.123-14-4-1.375-2.25-1.375-2.25-2-4"/><path fill="#E7D9F9" d="m300 299 1 2c-.742 1.813-.742 1.813-1.875 4-2.34 4.96-2.898 9.564-3.125 15h-1c-.861-13.802-.861-13.802 2.5-18.375z"/><path fill="#B97ECC" d="m286 251 3.063 1.438c3.596 1.556 7.03 2.163 10.937 2.562v2c-5.654.346-9.03-.566-14-3z"/><path fill="#EFDAFD" d="M97 213h4c2 3 2 3 1.875 6.5-.875 3.5-.875 3.5-2.937 5.438-.64.35-1.28.7-1.938 1.062l.438-1.687L99 222l.75-2.5c.516-2.596.516-2.596-1.187-4.812z"/><path fill="#D4CDD9" d="M387 177h2c2.286 8.429 2.286 8.429 2 13-2.703-2.703-3.706-5.425-5-9 .313-2.437.313-2.437 1-4"/><path fill="#AA6AA9" d="M328 154h10v1h-9v18l2 1h-3z"/><path fill="#D6B7B3" d="M308 132h1v13l-4-1q.462-2.72.938-5.437l.527-3.06C307 133 307 133 308 132"/><path fill="#CAA6C2" d="M328 98h1v20h10v1h-11z"/><path fill="#E4D0C5" d="M106 67h2c-.375 2.938-.375 2.938-1 6l-2 1v10c-2.592-2.592-2.298-3.775-2.312-7.375l-.051-2.898c.414-3.113 1.188-4.494 3.363-6.727"/><path fill="#4011B1" d="m302 379 2 1-1 3a853 853 0 0 1-4.312-.437l-2.426-.247C294 382 294 382 291 381c4.054-2.702 6.183-2.23 11-2"/><path fill="#844EE1" d="M257 334c4.11.237 6.33.366 9.375 3.25 1.591 2.693 2.272 4.665 2.625 7.75h-2l-1.062-3.312c-1.315-3.152-2.474-4.311-5.625-5.625L257 335z"/><path fill="#CFC4EE" d="M129 255c1.698.252 3.385.576 5.063.938l2.785.59L139 257c-2.687 2.945-2.687 2.945-5.5 3.438C131 260 131 260 129.188 258L128 256z"/><path fill="#894BE0" d="M64 188c4.875 1.75 4.875 1.75 6 4 2.58.69 2.58.69 5.563 1.125l3.066.508L81 194v1c-11.004.587-11.004.587-16-3-.875-2.187-.875-2.187-1-4"/><path fill="#DECAD9" d="M341 144c4.03.553 8.02 1.156 12 2v2h5l1 3-18-6z"/><path fill="#D49046" d="M385 131h1c.248 2.958.474 5.915.688 8.875l.22 2.55.166 2.442.175 2.254L387 149l-3 2z"/><path fill="#D6CFD4" d="m380 138 1 4c-5.05 1.036-9.874 1.103-15 1 4.87-2.52 8.49-3.104 14-3z"/><path fill="#C380B0" d="M197 123c3.395-.309 5.377-.387 8.313 1.438 2.418 3.673 2.502 7.24 2.687 11.562l-2-1c-.594-2.649-.742-5.292-1-8l-2.312-.875C200 125 200 125 197 123"/><path fill="#E8B043" d="M55 48q2.437-.118 4.875-.187l2.742-.106L65 48l2 3H56z"/><path fill="#4620B3" d="M312 404h29v1h-29z"/><path fill="#6834CE" d="M258 367c4.682.457 6.631 2.191 9.813 5.563l2.394 2.503L272 377c-3.74 0-4.453-.934-7.187-3.375l-2.168-1.898C261 370 261 370 261 368l-4 2z"/><path fill="#6F37D6" d="M406 334v2l-11 3c2.82-5.64 5.137-5.13 11-5"/><path fill="#B068B7" d="m309 304 3 1-2 3h-2l-1 13h-1a288 288 0 0 1-.625-4.75l-.352-2.672c-.025-2.807.529-4.212 1.977-6.578h2z"/><path fill="#A77FE2" d="m115 262 3 1c-.625 2.813-.625 2.813-2 6-3.125 1.875-3.125 1.875-6 3l-1-4 5-1z"/><path fill="#DEC6F9" d="M154 232h1c.58 5.407.342 8.106-3 12.5a128 128 0 0 1-3 3.5l-1-4h3l.434-1.734z"/><path fill="#CE8549" d="M382 204h1v29h-1z"/><path fill="#DEC079" d="M386 118h29v1h-29z"/><path fill="#D4C3F6" d="M355 326h1c.288 3.05.447 5.96 0 9-2.375 2.125-2.375 2.125-5 3l-2-1 1.059-1.645 1.378-2.168 1.372-2.144c1.332-2.124 1.332-2.124 2.191-5.043"/><path fill="#8A60D2" d="M239 304h1v28h-1z"/><path fill="#BB4212" d="M310 308h11l1 2-2.082.184-2.73.253-2.708.247c-2.607.25-2.607.25-5.48 1.316z"/><path fill="#AA2F10" d="M325 304c3.672 3.08 4.568 5.248 5 10l-1.25-1.375c-1.814-1.685-3.503-2.618-5.75-3.625z"/><path fill="#C5BBEC" d="M343 292c5.461.88 5.461.88 8 2 1.5 3.125 1.5 3.125 2 6l-2 1-2.312-2.812c-1.806-2.17-3.636-4.244-5.688-6.188"/><path fill="#DDD0F6" d="M116 257h1v5h-2l.063 2.438C115 267 115 267 114 268c-2 .04-4 .043-6 0v-1h5l-.187-2.75c.204-3.539.773-4.74 3.187-7.25"/><path fill="#ECE3FC" d="M121 226h2c-1 8.571-1 8.571-2 12h-2q.212-2.437.438-4.875c.08-.905.162-1.81.246-2.742C120 228 120 228 121 226"/><path fill="#E68022" d="M384 219c2.097 3.146 2.52 5.015 3.125 8.688l.508 3.011L388 233h-4z"/><path fill="#E1CDF6" d="m288 151 4 1-11 8-1-2 1-3h4v-2h3z"/><path fill="#E2D2F6" d="M286 143c-1.006 2.676-1.542 3.779-4.164 5.047l-2.461.703-2.477.734L275 150c6.816-7 6.816-7 11-7"/><path fill="#F4B951" d="M77 137c1.563 1.25 1.563 1.25 3 3-.25 1.75-.25 1.75-1 4-.35 2.33-.686 4.664-1 7h-1c-1.333-9.41-1.333-9.41 0-14"/><path fill="#C3725B" d="M308 324c2.5 1.813 2.5 1.813 5 4v3l3 1c1.188 2.063 1.188 2.063 2 4-3.39-1.453-5.634-3.16-8-6-1.25-3.25-1.25-3.25-2-6"/><path fill="#B979CB" d="M307 323c2.242 2.883 4.146 5.856 6 9l2 3c-2.312-.062-2.312-.062-5-1-2.169-3.964-3-6.46-3-11"/><path fill="#D8AF9B" d="m342 236 2 1v3l3 1c1 6.625 1 6.625 1 10-2.381-2.381-3.002-4.339-4.125-7.5l-1.07-2.969C342 238 342 238 342 236"/><path fill="#9F70E8" d="M105 236c2.321 3.482 2.699 5.862 3 10l-2 2v-2h-2z"/><path fill="#7C4DD8" d="M74 232h1l.875 3.688c.803 3.23 1.788 6.255 3.125 9.312l-5-1z"/><path fill="#D0571C" d="M387 236h27v1h-27z"/><path fill="#EBC05E" d="M418 205h1v27h-1z"/><path fill="#F0DEB8" d="m393 199 13 3v1q-2.687.039-5.375.063l-3.023.035C395 203 395 203 393 202z"/><path fill="#CC6C1E" d="M387 154h27v1h-27z"/><path fill="#DDB165" d="M112 141h3v5h2c.625 2.813.625 2.813 1 6l-2 3z"/><path fill="#ECC365" d="M418 123h1v27h-1z"/><path fill="#D9CFE8" d="m301 142 2 1-1 3h-2l-1 3c-3.562 1.188-3.562 1.188-7 2 1-3 1-3 2.813-3.937L297 146a90 90 0 0 0 4-4"/><path fill="#F8ECE1" d="M85 71c2.09 3.134 2.274 3.975 2.25 7.563l.016 2.378C87 83 87 83 85 85a491 491 0 0 1-.562-4.75l-.317-2.672c-.116-2.462.143-4.243.879-6.578"/><path fill="#D3D1D8" d="M65 71h2c.125 7.625.125 7.625-1 11h-2a758 758 0 0 1-.062-4.937l-.036-2.778C64 72 64 72 65 71"/><path fill="#9653D6" d="m341 333 2 2c-5.249 3.177-10.015 3.657-16 4v-1h5v-2l3.375-.937c3.42-.886 3.42-.886 5.625-2.063"/><path fill="#E2D7F5" d="m308 270-2.875 1.875c-3.07 1.945-3.07 1.945-5.125 4.125-2.125-.375-2.125-.375-4-1 7.714-6.429 7.714-6.429 12-5"/><path fill="#9F6DE6" d="m309 251 1 2c-2.518 3.123-3.726 3.945-7.75 4.75L299 258l1-3 8-1z"/><path fill="#620CB7" d="M286 241h1v10l-4-1c1.875-6.75 1.875-6.75 3-9"/><path fill="#C0B4F0" d="M77 229h1l.078 2.195c.362 6.167.923 10.033 4.922 14.805l-1 2c-3.455-3.023-4.862-4.634-5.332-9.293.018-3.248.116-6.466.332-9.707"/><path fill="#9E68E6" d="M132 231c2.468 1.152 4.048 2.048 6 4 .125 3.125.125 3.125 0 6l-3-1c-1.125-2.875-1.125-2.875-2-6z"/><path fill="#7B3FD6" d="M230 208h3v3h-2v3l-5 1c1.074-2.915 1.778-4.778 4-7"/><path fill="#CAABC5" d="M311 191h9l-4 5v-2l-6 1z"/><path fill="#772DD2" d="m69 190 2.25.938C76.447 192.41 81.625 192.669 87 193v1c-2.25.054-4.5.093-6.75.125l-3.797.07c-3.181-.18-4.818-.505-7.453-2.195z"/><path fill="#E39F40" d="M127 160h1l.148 2.266.227 2.984c.07.975.14 1.95.21 2.953.4 2.693 1.05 4.467 2.415 6.797l-5-1z"/><path fill="#E0AA5F" d="m103 68 2 1-.937 1.5c-1.48 3.48-1.687 6.74-2.063 10.5-1.5-1.187-1.5-1.187-3-3-.187-2.687-.187-2.687 0-5l3-1c.733-2.015.733-2.015 1-4"/><path fill="#9159E3" d="m356.625 374.938 2.477.027L361 375v1h-7v2l-3 2-1 3-2-1c.602-2.02 1.273-4.021 2-6 2.405-1.203 3.95-1.1 6.625-1.062"/><path fill="#B582DF" d="M305 316h1q.794 3.404 1.563 6.813l.878 3.832C309 330 309 330 308 333l-2-1c-.312-2.714-.513-5.34-.625-8.062l-.117-2.3c-.095-1.878-.177-3.758-.258-5.638"/><path fill="#7F35AE" d="m342 306 3 1v2h2v14h-1v-11h-2v-4h-2z"/><path fill="#9D67E8" d="M276 251h1c.375 2.188.375 2.188 0 5-1.829 2.088-3.69 3.383-6 5h-2c1.67-3.948 4.18-6.818 7-10"/><path fill="#B45539" d="M305 242h2l-3 10h-2v2h-5l4-1v-2h2l.438-3.937c.437-3.938.437-3.938 1.562-5.063"/><path fill="#8F6ED6" d="M76 227h2l-1 13c-2-2-2-2-2.23-4.348l.043-2.714.019-2.723C75 228 75 228 76 227"/><path fill="#EBDDFC" d="M126 206h1c.455 5.763-1.209 10.606-3 16h-1c-.379-5.93.894-10.472 3-16"/><path fill="#9F54D1" d="M206 187c-1.067 3.095-1.975 3.985-4.812 5.75-3.054 1.197-4.961 1.535-8.188 1.25 2.647-1.46 3.894-2 7-2v-2h2v-2c2-1 2-1 4-1"/><path fill="#DA9136" d="m41 93 2 4h2v2l5 2v2c-3.91-1.303-6.418-2.748-9-6z"/><path fill="#DB9A45" d="M100 76h1l1 11h-2c-2-3-2-3-1.687-6.062C99 78 99 78 100 76"/><path fill="#FBEAD7" d="M123 68c1.938.938 1.938.938 4 3 .662 2.986.872 5.949 1 9l-3-1 .125-2.875c.225-3.227.225-3.227-2.125-5.125z"/><path fill="#C599DC" d="M338 234c1.89.184 1.89.184 4 1 1.047 2.285 1.047 2.285 1.75 5.063l.734 2.785L345 245h-2v-2h-2l-.375-3.375c-.272-3.656-.272-3.656-2.625-5.625"/><path fill="#B48AE0" d="M99 212c2.867.573 3.861.861 6 3 .125 3.625.125 3.625 0 7l-3-1 .063-2.312c.066-2.79.066-2.79-1.063-5.688z"/><path fill="#B290E1" d="M136 211c3.354.599 5.499 1.671 8 4 .75 2.188.75 2.188 1 4-4.274-1.583-6.265-4.506-9-8"/><path fill="#F1E0D7" d="M176 158v2h-9v6h-1v-7c6.625-2.125 6.625-2.125 10-1"/><path fill="#6521C0" d="M232 140h1v11l-3-2c.875-7.875.875-7.875 2-9"/><path fill="#8C60CB" d="M266 142h19l-3 3h-2v-2h-14z"/><path fill="#D3AB54" d="M60 68h5l-4 7-3-3z"/><path fill="#A068EC" d="M268 261c0 3 0 3-2 6h-2v6l-2-2c.102-3.761.99-4.99 3.563-7.812z"/><path fill="#9562D1" d="m309 191 1 2c-.937 2.625-.937 2.625-2 5h-2l-1 3-1-4h2l.375-2.437L307 192z"/><path fill="#6F2796" d="m39 101 7 3v2l4 2-6-1v-2h-5z"/><path fill="#F5DFCC" d="m168 82 1 3h-2l-.687 1.875C164.62 89.615 163.008 90.05 160 91l1-3h2v-2l5-2z"/><path fill="#965FE3" d="m392 335 3 1h-2l-1 6-3-1c.375-2.437.375-2.437 1-5z"/><path fill="#8A4BC8" d="M310 235h3v7l-2 1v-3h-2z"/><path fill="#DEDBE7" d="M117 212h1c-.468 4.056-.88 7.466-3 11-1.318-3.955-.295-6.114 1-10z"/><path fill="#F6E3D7" d="M121 168h2c-1.875 4.875-1.875 4.875-3 6-2 .04-4 .043-6 0l-1-2h5v-2h3z"/><path fill="#DE902E" d="M190 140h2v10h-2q-.29-2.218-.562-4.437l-.317-2.497L189 141z"/><path fill="#EAD3BE" d="M121 140c1.124 3.304.896 5.05-.437 8.25l-.872 2.14L119 152c-1.307-4.169-.398-6.885 1-11z"/><path fill="#A972D2" d="M311 118c0 3.38-.875 5.835-2 9l-4-2c1.23-3.688 2.939-4.724 6-7"/><path fill="#7235D1" d="M39 105h5v2l2 1-7 2z"/><path fill="#F0C05A" d="m328 88 3 1c-.53 3.821-1.497 6.062-4 9l-2-1q.994-1.988 2.063-3.937c1.144-2.14 1.144-2.14.937-5.063"/><path fill="#5826C1" d="M304 380h2l1 4h2v4h-2l-1-3-3-1z"/><path fill="#6D36CA" d="M361 377v1l-3.312.813c-3.305 1.064-4.638 1.534-6.688 4.187l-1-3c3.514-3.374 6.26-3.273 11-3"/><path fill="#9F7BDB" d="m360 358 1 2c-2.518 3.123-3.726 3.945-7.75 4.75L350 365c3.197-2.649 6.395-4.94 10-7"/><path fill="#905DEB" d="m241 303 4 1-2 1v12h-1z"/><path fill="#9C7FDB" d="m304 270-9 5c1-4 1-4 2.813-5.312C300 269 300 269 304 270"/><path fill="#B6A2E2" d="M302 364c7.385.492 7.385.492 10.5 3.063L314 369q-2.44-.676-4.875-1.375l-2.742-.773C304 366 304 366 302 364"/><path fill="#985FEC" d="m340 337-1 2c-2.882.96-4.699 1.106-7.687 1.063l-2.45-.028L327 340v-1c4.537-1.452 8.18-2.235 13-2"/><path fill="#BAA8E4" d="M277 333c3.15 3.423 3.562 6.443 4 11-2.645-3.125-3.844-6.088-5-10z"/><path fill="#854EE7" d="M81 249q1.693 1.4 3.375 2.813l1.898 1.582C88 255 88 255 90 258h-4c-2.038-2.822-3.447-5.894-5-9"/><path fill="#A88EDF" d="m97 227 1 2c-1.255 3.766-2.529 4.264-6 6h-3z"/><path fill="#8451CA" d="m303 200 1 2c-.777 1.727-.777 1.727-1.937 3.625L300 209l-2-1c1.625-5.75 1.625-5.75 5-8"/><path fill="#7D49C6" d="m280 146-9 6v-3h2v-2c3.625-2.125 3.625-2.125 7-1"/><path fill="#D8A458" d="M100 142h2l-1 8h-2c-.93-2.606-1.15-3.642-.062-6.25z"/><path fill="#C36A1E" d="M36 91a91 91 0 0 1 4 4v2h2v2l-3-1v-2h-2l-1 2z"/><path fill="#BCAADD" d="M295 358h2l1 2a78 78 0 0 0 5 2l-1 2c-3.375-1.186-5.647-2.276-8-5z"/><path fill="#9C2C4B" d="m316 300 2 1c-2.578 2.648-4.916 4.944-8 7 1.27-3.914 2.512-5.79 6-8"/><path fill="#8F59EA" d="M275 292c1.063 1.875 1.063 1.875 2 4l-1 2h-3v2l-2-1z"/><path fill="#DAD9E8" d="M107 252h1v13l-3-1z"/><path fill="#702DCB" d="M258 235h6l-1 3c-2.562 1.188-2.562 1.188-5 2z"/><path fill="#D4B9B2" d="M371 144h12v6h-1v-5l-10 1z"/><path fill="#F6E1EA" d="M266 132h6c-1.375 1.5-1.375 1.5-3 3h-2v6h-1z"/><path fill="#BC8BE0" d="m324 101 1 3c-1.312 1.5-1.312 1.5-3 3h-3v2h-2l1-3 1.938-.437c2.265-.364 2.265-.364 3.312-2.626z"/><path fill="#BD94F4" d="m374 247 5 2v2h-3v5h-1z"/><path fill="#DDE1E4" d="M113 230h1v7h-3c.875-5.875.875-5.875 2-7"/><path fill="#7620CC" d="M286 228c1.125 3.75 1.125 3.75 0 6-2.062.625-2.062.625-4 1a56.5 56.5 0 0 1 4-7m-6 7 2 1Z"/><path fill="#8E5AD6" d="m254 168 2 3-4 6-1-2c.936-2.36 1.933-4.696 3-7"/><path fill="#D9D5DF" d="M373 159c4.875 2.625 4.875 2.625 6 6h2l-1 2c-3-1-3-1-4.062-3l-.938-2-2-1z"/><path fill="#B570BD" d="M318 107c-2 3-2 3-4 4v-2l-4-1c3.067-1.862 4.597-2.215 8-1"/><path fill="#E3BB6E" d="M85 69c3 1 3 1 4 3a95 95 0 0 1 .063 5.125l-.028 2.758L89 82h-1l-.148-1.828-.227-2.422c-.07-.789-.14-1.578-.21-2.39-.43-2.446-1.201-4.208-2.415-6.36"/><path fill="#F4DFBC" d="m156.188 64.813 2.73.082L161 65v1l-3.687.438c-3.14.39-6.22.886-9.313 1.562 2.51-3.177 4.226-3.342 8.188-3.187"/><path fill="#E1A43D" d="m48 54 2 1-7 8-1-4z"/><path fill="#AF94E0" d="M371 344h1c.25 2.313.25 2.313 0 5-2 1.813-2 1.813-4 3l-2-1a698 698 0 0 1 2.438-3.5l1.37-1.969z"/><path fill="#835DD4" d="m351 331 2 2a125 125 0 0 1-4 6h-2c1.75-5.75 1.75-5.75 4-8"/><path fill="#B43F18" d="M338 328h2v4l-5 2 1-4h2z"/><path fill="#C195F9" d="M411 315h1c.37 5.538.37 5.538-1.5 7.875L409 324v-6h2z"/><path fill="#7E41D4" d="m277 246 3 3-9 2c3.75-3.875 3.75-3.875 6-5"/><path fill="#C5A0B1" d="M295 218c0 3 0 3-2 6h-3c.813-2.437.813-2.437 2-5z"/><path fill="#9D72D3" d="m265 177 1 2a136 136 0 0 1-3 7h-2c1.059-3.403 2.009-6.014 4-9"/><path fill="#CFA55A" d="M170 149h6v3h-5z"/><path fill="#E7CC7E" d="M333 70h1v17h-1z"/><path fill="#E2BB66" d="M297 46h15v1h-15z"/><path fill="#D9AC56" d="M52 46h15v1H52z"/><path fill="#DCD2A7" d="m407 197 1 3h6v1h-7z"/><path fill="#DEC29E" d="m391 198 1 3h-6v-1h5z"/><path fill="#D2B868" d="M366 241h1v7h-1z"/><path fill="#B08CED" d="M412 323h1v6h-1z"/><path fill="#B892F0" d="M412 307h1v6h-1z"/><path fill="#3E2496" d="M372 389h5v1h-5z"/><path fill="#3812A5" d="M354 382h5v1h-5z"/><path fill="#351098" d="M294 382h5v1h-5z"/><path fill="#9770E2" d="M261 345h1v5h-1z"/><path fill="#7D5ACA" d="M35 259h1v5h-1z"/><path fill="#C38859" d="M30 84h1v5h-1z"/><path fill="#D0966E" d="M29 76h1v5h-1z"/><path fill="#C59970" d="M30 68h1v5h-1z"/><path fill="#3F2295" d="m276 389 4 1Z"/><path fill="#9175D6" d="m254 364 1 4Z"/><path fill="#451EB7" d="m56 288 4 1Z"/><path fill="#7658B2" d="m36 265 1 4Z"/><path fill="#6A3CC8" d="m397 339 3 1Z"/><path fill="#6336CE" d="m400 338 3 1Z"/><path fill="#391AA1" d="m247 337 3 1Z"/><path fill="#B195E1" d="m401 297 3 1Z"/><path fill="#B494E8" d="m398 296 3 1Z"/><path fill="#A986D8" d="m371 246 3 1Z"/><path fill="#C9B2CE" d="m346 149 3 1Z"/><path fill="#D2B0B4" d="m343 148 3 1Z"/><path fill="#E1A951" d="m48 47 3 1Z"/><path fill="#3A1BAF" d="m370 388 2 1Z"/><path fill="#5E31B2" d="m280 388 2 1Z"/><path fill="#36189C" d="m368 387 2 1Z"/><path fill="#3714AC" d="m366 386 2 1Z"/><path fill="#3612AC" d="m364 385 2 1Z"/><path fill="#3D1DB1" d="m362 384 2 1Z"/><path fill="#572FC3" d="m289 384 2 1Z"/><path fill="#2D109A" d="m359 383 2 1Z"/><path fill="#6835BA" d="m351 383 2 1Z"/><path fill="#4E26B5" d="m299 383 2 1Z"/><path fill="#4F25BC" d="m291 383 2 1Z"/><path fill="#824FD4" d="m393 341 2 1Z"/><path fill="#7441D4" d="m395 340 2 1Z"/><path fill="#461BBD" d="m256 340 2 1Z"/><path fill="#4017AD" d="m253 339 2 1Z"/><path fill="#3C13BF" d="m250 338 2 1Z"/><path fill="#6335C4" d="m403 337 2 1Z"/><path fill="#4123B0" d="m245 336 2 1Z"/><path fill="#976ADB" d="m244 299 2 1Z"/><path fill="#B295E2" d="m404 298 2 1Z"/><path fill="#966BDB" d="m246 298 2 1Z"/><path fill="#9064D3" d="m249 297 2 1Z"/><path fill="#8B58D3" d="m252 296 2 1Z"/><path fill="#B594F2" d="m396 295 2 1Z"/><path fill="#8D57D5" d="m255 295 2 1Z"/><path fill="#BA96F1" d="m394 294 2 1Z"/><path fill="#8D57DF" d="m257 294 2 1Z"/><path fill="#371A91" d="m54 287 2 1Z"/><path fill="#4324A8" d="m52 286 2 1Z"/><path fill="#4724BC" d="m50 285 2 1Z"/><path fill="#BC86DD" d="m367 248 2 1Z"/><path fill="#B481F3" d="m369 247 2 1Z"/><path fill="#B89CE0" d="m376 246 2 1Z"/><path fill="#D69B39" d="m414 235 2 1Z"/><path fill="#B7AECC" d="m368 161 2 1Z"/><path fill="#BBB1D0" d="m364 158 2 1Z"/><path fill="#BEB0DA" d="m361 156 2 1Z"/><path fill="#BFB0D4" d="m358 154 2 1Z"/><path fill="#BE703A" d="m385 153 2 1Z"/><path fill="#BDADCD" d="m356 153 2 1Z"/><path fill="#C8B6D1" d="m354 152 2 1Z"/><path fill="#C7B5D0" d="m352 151 2 1Z"/><path fill="#BFA4C4" d="m349 150 2 1Z"/><path fill="#DFD2DC" d="m376 148 2 1Z"/><path fill="#E4C673" d="m319 50 2 1Z"/><path fill="#D8A046" d="m44 49 2 1Z"/><path fill="#D9A55E" d="m46 48 2 1Z"/><path fill="#E8C769" d="m313 47 2 1Z"/></svg>